SplineFontDB: 3.0
FontName: Montaga-Regular
FullName: Montaga
FamilyName: Montaga
Weight: Book
Copyright: Copyright (c) 2011, Alejandra Rodriguez (ale_guez@yahoo.com.ar http://twitter.com/ale_guez), with Reserved Font Name "Montaga"
Version: 1.001
ItalicAngle: 0
UnderlinePosition: -50
UnderlineWidth: 50
Ascent: 800
Descent: 200
sfntRevision: 0x00010042
LayerCount: 2
Layer: 0 1 "Back"  1
Layer: 1 1 "Fore"  0
XUID: [1021 73 553420963 12879184]
FSType: 0
OS2Version: 2
OS2_WeightWidthSlopeOnly: 0
OS2_UseTypoMetrics: 1
CreationTime: 1326327225
ModificationTime: 1326324277
PfmFamily: 17
TTFWeight: 400
TTFWidth: 5
LineGap: 0
VLineGap: 0
Panose: 2 0 5 0 0 0 0 2 0 3
OS2TypoAscent: 178
OS2TypoAOffset: 1
OS2TypoDescent: -54
OS2TypoDOffset: 1
OS2TypoLinegap: 0
OS2WinAscent: 0
OS2WinAOffset: 1
OS2WinDescent: 0
OS2WinDOffset: 1
HheadAscent: 0
HheadAOffset: 1
HheadDescent: 0
HheadDOffset: 1
OS2SubXSize: 700
OS2SubYSize: 650
OS2SubXOff: 0
OS2SubYOff: 140
OS2SupXSize: 700
OS2SupYSize: 650
OS2SupXOff: 0
OS2SupYOff: 477
OS2StrikeYSize: 50
OS2StrikeYPos: 250
OS2Vendor: 'PYRS'
OS2CodePages: 00000001.00000000
OS2UnicodeRanges: 800000ef.00000002.00000000.00000000
Lookup: 258 0 0 "'kern' Horizontal Kerning in Latin lookup 0"  {"'kern' Horizontal Kerning in Latin lookup 0 subtable"  } ['kern' ('DFLT' <'dflt' > 'latn' <'dflt' > ) ]
MarkAttachClasses: 1
DEI: 91125
TtTable: prep
PUSHW_1
 511
SCANCTRL
PUSHB_1
 4
SCANTYPE
EndTTInstrs
ShortTable: maxp 16
  1
  0
  246
  80
  5
  0
  0
  2
  0
  1
  1
  0
  64
  0
  0
  0
EndShort
LangName: 1033 "" "" "" "AlejandraRodriguez: Montaga: 2011" "" "Version 1.001" "" "Montaga is a trademark of Alejandra Rodriguez" "Alejandra Rodriguez" "Alejandra Rodriguez" "" "" "" "This Font Software is licensed under the SIL Open Font License, Version 1.1. This license is available with a FAQ at: http://scripts.sil.org/OFL" "http://scripts.sil.org/OFL" 
GaspTable: 1 65535 15 1
Encoding: UnicodeBmp
UnicodeInterp: none
NameList: Adobe Glyph List
DisplaySize: -24

StartChar: exclam
Encoding: 33 33 5
Width: 258
GlyphClass: 2
Flags: W
LayerCount: 2
Fore
SplineSet
169 198 m 1,0,-1
 121 180 l 1,1,-1
 101 688 l 1,2,-1
 187 718 l 1,3,-1
 169 198 l 1,0,-1
174 0 m 128,-1,5
 155 -16 155 -16 132.5 -16 c 128,-1,6
 110 -16 110 -16 97.5 0 c 128,-1,7
 85 16 85 16 85 38 c 128,-1,8
 85 60 85 60 104 77 c 128,-1,9
 123 94 123 94 145.5 94 c 128,-1,10
 168 94 168 94 180.5 78 c 128,-1,11
 193 62 193 62 193 39 c 128,-1,4
 193 16 193 16 174 0 c 128,-1,5
EndSplineSet
EndChar

StartChar: quotedbl
Encoding: 34 34 6
Width: 354
GlyphClass: 2
Flags: W
LayerCount: 2
Fore
SplineSet
118 538 m 1,0,-1
 90 526 l 1,1,2
 72 692 72 692 60 734 c 1,3,-1
 144 764 l 1,4,5
 137 681 137 681 118 538 c 1,0,-1
294 764 m 1,6,-1
 266 538 l 1,7,-1
 238 526 l 1,8,9
 219 704 219 704 210 734 c 1,10,-1
 294 764 l 1,6,-1
EndSplineSet
EndChar

StartChar: numbersign
Encoding: 35 35 7
Width: 550
GlyphClass: 2
Flags: W
LayerCount: 2
Fore
SplineSet
312 0 m 1,0,-1
 264 0 l 1,1,-1
 308 210 l 1,2,-1
 184 210 l 1,3,-1
 138 0 l 1,4,-1
 90 0 l 1,5,-1
 136 210 l 1,6,-1
 24 210 l 1,7,-1
 32 264 l 1,8,-1
 148 264 l 1,9,-1
 186 434 l 1,10,-1
 78 434 l 1,11,-1
 84 486 l 1,12,-1
 198 486 l 1,13,-1
 242 690 l 1,14,-1
 290 690 l 1,15,-1
 246 486 l 1,16,-1
 372 486 l 1,17,-1
 414 690 l 1,18,-1
 462 690 l 1,19,-1
 420 486 l 1,20,-1
 522 486 l 1,21,-1
 514 434 l 1,22,-1
 408 434 l 1,23,-1
 368 264 l 1,24,-1
 470 264 l 1,25,-1
 462 210 l 1,26,-1
 358 210 l 1,27,-1
 312 0 l 1,0,-1
322 264 m 1,28,-1
 360 434 l 1,29,-1
 236 434 l 1,30,-1
 198 264 l 1,31,-1
 322 264 l 1,28,-1
EndSplineSet
EndChar

StartChar: dollar
Encoding: 36 36 8
Width: 500
GlyphClass: 2
Flags: W
LayerCount: 2
Fore
SplineSet
266 -108 m 1,0,-1
 220 -108 l 1,1,-1
 220 20 l 1,2,3
 111 20 111 20 42 74 c 1,4,-1
 54 188 l 1,5,-1
 86 186 l 1,6,7
 86 151 86 151 125.5 127.5 c 128,-1,8
 165 104 165 104 220 96 c 1,9,-1
 220 336 l 1,10,-1
 206 344 l 1,11,12
 190 349 190 349 158.5 368 c 128,-1,13
 127 387 127 387 106 402 c 0,14,15
 62 436 62 436 62 482 c 0,16,17
 62 622 62 622 220 650 c 1,18,-1
 220 738 l 1,19,-1
 266 738 l 1,20,-1
 266 656 l 1,21,-1
 292 656 l 2,22,23
 357 656 357 656 418 624 c 1,24,-1
 408 522 l 1,25,-1
 378 522 l 1,26,27
 378 580 378 580 266 590 c 1,28,-1
 266 404 l 1,29,-1
 288 394 l 1,30,31
 409 347 409 347 444 280 c 0,32,33
 460 248 460 248 460 210 c 0,34,35
 460 130 460 130 407.5 81.5 c 128,-1,36
 355 33 355 33 266 22 c 1,37,-1
 266 -108 l 1,0,-1
266 312 m 1,38,-1
 266 92 l 1,39,40
 400 92 400 92 400 166 c 0,41,42
 400 216 400 216 368.5 245.5 c 128,-1,43
 337 275 337 275 266 312 c 1,38,-1
220 426 m 1,44,-1
 220 590 l 1,45,46
 170 587 170 587 144 567.5 c 128,-1,47
 118 548 118 548 118 522 c 0,48,49
 118 477 118 477 220 426 c 1,44,-1
EndSplineSet
EndChar

StartChar: percent
Encoding: 37 37 9
Width: 832
GlyphClass: 2
Flags: W
LayerCount: 2
Fore
SplineSet
321.5 388 m 128,-1,1
 267 324 267 324 202.5 324 c 128,-1,2
 138 324 138 324 98 375 c 128,-1,3
 58 426 58 426 58 501 c 128,-1,4
 58 576 58 576 115.5 638 c 128,-1,5
 173 700 173 700 234.5 700 c 128,-1,6
 296 700 296 700 336 647.5 c 128,-1,7
 376 595 376 595 376 523.5 c 128,-1,0
 376 452 376 452 321.5 388 c 128,-1,1
156 411.5 m 128,-1,9
 184 362 184 362 222 362 c 128,-1,10
 260 362 260 362 284 404 c 128,-1,11
 308 446 308 446 308 504 c 128,-1,12
 308 562 308 562 280.5 609 c 128,-1,13
 253 656 253 656 217 656 c 128,-1,14
 181 656 181 656 154.5 617.5 c 128,-1,15
 128 579 128 579 128 520 c 128,-1,8
 128 461 128 461 156 411.5 c 128,-1,9
202 -20 m 1,16,-1
 158 6 l 1,17,-1
 592 712 l 1,18,-1
 636 690 l 1,19,-1
 202 -20 l 1,16,-1
682.5 45 m 128,-1,21
 627 -20 627 -20 562.5 -20 c 128,-1,22
 498 -20 498 -20 458 32 c 128,-1,23
 418 84 418 84 418 159 c 128,-1,24
 418 234 418 234 475.5 296 c 128,-1,25
 533 358 533 358 594.5 358 c 128,-1,26
 656 358 656 358 697 305.5 c 128,-1,27
 738 253 738 253 738 181.5 c 128,-1,20
 738 110 738 110 682.5 45 c 128,-1,21
516.5 69.5 m 128,-1,29
 545 20 545 20 583 20 c 128,-1,30
 621 20 621 20 645.5 62 c 128,-1,31
 670 104 670 104 670 161.5 c 128,-1,32
 670 219 670 219 641.5 266.5 c 128,-1,33
 613 314 613 314 577 314 c 128,-1,34
 541 314 541 314 514.5 275 c 128,-1,35
 488 236 488 236 488 177.5 c 128,-1,28
 488 119 488 119 516.5 69.5 c 128,-1,29
EndSplineSet
EndChar

StartChar: ampersand
Encoding: 38 38 10
Width: 710
GlyphClass: 2
Flags: W
LayerCount: 2
Fore
SplineSet
714 368 m 1,0,-1
 740 360 l 1,1,2
 721 315 721 315 690 279 c 1,3,4
 634 210 634 210 572 210 c 0,5,6
 562 210 562 210 556 212 c 1,7,8
 554 151 554 151 529 105 c 128,-1,9
 504 59 504 59 464 34 c 0,10,11
 385 -16 385 -16 275 -16 c 128,-1,12
 165 -16 165 -16 100.5 35 c 128,-1,13
 36 86 36 86 36 170.5 c 128,-1,14
 36 255 36 255 95 310.5 c 128,-1,15
 154 366 154 366 228 378 c 1,16,17
 159 381 159 381 120.5 419.5 c 128,-1,18
 82 458 82 458 82 514 c 0,19,20
 82 606 82 606 156.5 660 c 128,-1,21
 231 714 231 714 334 714 c 128,-1,22
 437 714 437 714 494 676 c 1,23,-1
 482 560 l 1,24,-1
 450 562 l 1,25,26
 450 654 450 654 288 654 c 0,27,28
 152 654 152 654 152 544 c 0,29,30
 152 491 152 491 204.5 456 c 128,-1,31
 257 421 257 421 352 418 c 1,32,-1
 349 384 l 1,33,34
 338 380 338 380 314 372.5 c 128,-1,35
 290 365 290 365 277 360.5 c 128,-1,36
 264 356 264 356 243 347.5 c 128,-1,37
 222 339 222 339 210.5 331 c 128,-1,38
 199 323 199 323 184.5 309.5 c 128,-1,39
 170 296 170 296 162 281 c 0,40,41
 144 244 144 244 144 199 c 0,42,43
 144 136 144 136 192 90 c 128,-1,44
 240 44 240 44 325 44 c 128,-1,45
 410 44 410 44 464 83 c 128,-1,46
 518 122 518 122 518 206 c 0,47,48
 518 234 518 234 460 234 c 0,49,50
 422 234 422 234 397 214 c 128,-1,51
 372 194 372 194 344 148 c 1,52,-1
 316 156 l 1,53,54
 391 306 391 306 488 306 c 0,55,56
 517 306 517 306 557.5 295 c 128,-1,57
 598 284 598 284 610 284 c 0,58,59
 644 284 644 284 667 304 c 128,-1,60
 690 324 690 324 714 368 c 1,0,-1
EndSplineSet
EndChar

StartChar: quotesingle
Encoding: 39 39 11
Width: 204
GlyphClass: 2
Flags: W
LayerCount: 2
Fore
SplineSet
118 538 m 1,0,-1
 90 526 l 1,1,2
 72 692 72 692 60 734 c 1,3,-1
 144 764 l 1,4,5
 137 681 137 681 118 538 c 1,0,-1
EndSplineSet
EndChar

StartChar: parenleft
Encoding: 40 40 12
Width: 340
GlyphClass: 2
Flags: W
LayerCount: 2
Fore
SplineSet
294 -140 m 1,0,-1
 258 -184 l 1,1,2
 200 -154 200 -154 155.5 -79.5 c 128,-1,3
 111 -5 111 -5 90.5 75 c 128,-1,4
 70 155 70 155 70 226 c 0,5,6
 70 358 70 358 126.5 521.5 c 128,-1,7
 183 685 183 685 276 756 c 1,8,-1
 298 738 l 1,9,10
 237 682 237 682 184.5 543.5 c 128,-1,11
 132 405 132 405 132 258.5 c 128,-1,12
 132 112 132 112 183.5 7.5 c 128,-1,13
 235 -97 235 -97 294 -140 c 1,0,-1
EndSplineSet
EndChar

StartChar: parenright
Encoding: 41 41 13
Width: 348
GlyphClass: 2
Flags: W
LayerCount: 2
Fore
SplineSet
90 -184 m 1,0,-1
 54 -140 l 1,1,2
 113 -97 113 -97 164.5 7.5 c 128,-1,3
 216 112 216 112 216 258.5 c 128,-1,4
 216 405 216 405 163.5 543.5 c 128,-1,5
 111 682 111 682 50 738 c 1,6,-1
 72 756 l 1,7,8
 165 685 165 685 221.5 521.5 c 128,-1,9
 278 358 278 358 278 226 c 0,10,11
 278 155 278 155 257.5 75 c 128,-1,12
 237 -5 237 -5 192.5 -79.5 c 128,-1,13
 148 -154 148 -154 90 -184 c 1,0,-1
EndSplineSet
EndChar

StartChar: asterisk
Encoding: 42 42 14
Width: 364
GlyphClass: 2
Flags: W
LayerCount: 2
Fore
SplineSet
250 330 m 1,0,-1
 228 320 l 1,1,-1
 158 452 l 1,2,-1
 36 374 l 1,3,-1
 22 396 l 1,4,-1
 126 490 l 1,5,-1
 20 592 l 1,6,-1
 36 610 l 1,7,-1
 156 530 l 1,8,-1
 214 666 l 1,9,-1
 236 658 l 1,10,-1
 208 520 l 1,11,-1
 342 516 l 1,12,-1
 344 494 l 1,13,-1
 212 470 l 1,14,-1
 250 330 l 1,0,-1
EndSplineSet
EndChar

StartChar: plus
Encoding: 43 43 15
Width: 540
GlyphClass: 2
Flags: W
LayerCount: 2
Fore
SplineSet
502 215 m 1,0,-1
 295 215 l 1,1,-1
 298 8 l 1,2,-1
 244 8 l 1,3,-1
 248 215 l 1,4,-1
 38 215 l 1,5,-1
 38 263 l 1,6,-1
 247 263 l 1,7,-1
 249 470 l 1,8,-1
 294 470 l 1,9,-1
 295 263 l 1,10,-1
 502 263 l 1,11,-1
 502 215 l 1,0,-1
EndSplineSet
EndChar

StartChar: comma
Encoding: 44 44 16
Width: 232
GlyphClass: 2
Flags: W
LayerCount: 2
Fore
SplineSet
78 -144 m 1,0,-1
 62 -124 l 1,1,2
 117 -82 117 -82 130 -14 c 1,3,4
 109 -14 109 -14 96.5 -0.5 c 128,-1,5
 84 13 84 13 84 36.5 c 128,-1,6
 84 60 84 60 103 77 c 128,-1,7
 122 94 122 94 145 94 c 128,-1,8
 168 94 168 94 180 81 c 128,-1,9
 192 68 192 68 192 48 c 0,10,11
 192 2 192 2 167.5 -42.5 c 128,-1,12
 143 -87 143 -87 121.5 -107.5 c 128,-1,13
 100 -128 100 -128 78 -144 c 1,0,-1
EndSplineSet
EndChar

StartChar: hyphen
Encoding: 45 45 17
Width: 528
GlyphClass: 2
Flags: W
LayerCount: 2
Fore
SplineSet
463 226 m 1,0,-1
 65 226 l 1,1,-1
 65 274 l 1,2,-1
 463 274 l 1,3,-1
 463 226 l 1,0,-1
EndSplineSet
EndChar

StartChar: period
Encoding: 46 46 18
Width: 228
GlyphClass: 2
Flags: W
LayerCount: 2
Fore
SplineSet
157.5 78 m 128,-1,1
 170 62 170 62 170 39 c 128,-1,2
 170 16 170 16 151 0 c 128,-1,3
 132 -16 132 -16 109.5 -16 c 128,-1,4
 87 -16 87 -16 74.5 0 c 128,-1,5
 62 16 62 16 62 38 c 128,-1,6
 62 60 62 60 81 77 c 128,-1,7
 100 94 100 94 122.5 94 c 128,-1,0
 145 94 145 94 157.5 78 c 128,-1,1
EndSplineSet
EndChar

StartChar: slash
Encoding: 47 47 19
Width: 380
GlyphClass: 2
Flags: W
LayerCount: 2
Fore
SplineSet
90 -234 m 1,0,-1
 40 -234 l 1,1,-1
 286 746 l 1,2,-1
 332 746 l 1,3,-1
 90 -234 l 1,0,-1
EndSplineSet
EndChar

StartChar: zero
Encoding: 48 48 20
Width: 564
GlyphClass: 2
Flags: W
LayerCount: 2
Fore
SplineSet
265 -20 m 128,-1,1
 198 -20 198 -20 142 29.5 c 128,-1,2
 86 79 86 79 55.5 158 c 128,-1,3
 25 237 25 237 25 324 c 0,4,5
 25 473 25 473 110 586.5 c 128,-1,6
 195 700 195 700 299 700 c 0,7,8
 366 700 366 700 422 651 c 128,-1,9
 478 602 478 602 508.5 524 c 128,-1,10
 539 446 539 446 539 354 c 128,-1,11
 539 262 539 262 499 173 c 128,-1,12
 459 84 459 84 395.5 32 c 128,-1,0
 332 -20 332 -20 265 -20 c 128,-1,1
250 616 m 0,13,14
 175 616 175 616 133.5 547.5 c 128,-1,15
 92 479 92 479 92 386 c 0,16,17
 92 242 92 242 152 153.5 c 128,-1,18
 212 65 212 65 318 65 c 0,19,20
 396 65 396 65 435.5 133 c 128,-1,21
 475 201 475 201 475 297 c 0,22,23
 475 437 475 437 415.5 526.5 c 128,-1,24
 356 616 356 616 250 616 c 0,13,14
EndSplineSet
EndChar

StartChar: one
Encoding: 49 49 21
Width: 376
GlyphClass: 2
Flags: W
LayerCount: 2
Fore
SplineSet
326 0 m 1,0,-1
 50 0 l 1,1,-1
 50 28 l 1,2,-1
 88 28 l 2,3,4
 152 28 152 28 152 74 c 2,5,-1
 152 546 l 2,6,7
 152 575 152 575 129 588.5 c 128,-1,8
 106 602 106 602 40 602 c 1,9,-1
 40 630 l 1,10,11
 150 630 150 630 216 696 c 1,12,-1
 240 700 l 1,13,-1
 240 74 l 2,14,15
 240 46 240 46 252 37 c 128,-1,16
 264 28 264 28 302 28 c 2,17,-1
 326 28 l 1,18,-1
 326 0 l 1,0,-1
EndSplineSet
EndChar

StartChar: two
Encoding: 50 50 22
Width: 550
GlyphClass: 2
Flags: W
LayerCount: 2
Fore
SplineSet
482 0 m 1,0,-1
 18 0 l 1,1,-1
 18 24 l 1,2,3
 159 160 159 160 270.5 306.5 c 128,-1,4
 382 453 382 453 382 542 c 0,5,6
 382 634 382 634 276 634 c 0,7,8
 231 634 231 634 181.5 601.5 c 128,-1,9
 132 569 132 569 102 524 c 1,10,-1
 80 542 l 1,11,12
 117 614 117 614 183.5 657 c 128,-1,13
 250 700 250 700 344 700 c 0,14,15
 404 700 404 700 441 666 c 128,-1,16
 478 632 478 632 478 560 c 0,17,18
 478 469 478 469 406 376 c 0,19,20
 368 327 368 327 332.5 288 c 128,-1,21
 297 249 297 249 234.5 183.5 c 128,-1,22
 172 118 172 118 132 72 c 1,23,-1
 370 72 l 2,24,25
 423 72 423 72 457.5 105 c 128,-1,26
 492 138 492 138 492 172 c 1,27,-1
 520 166 l 1,28,-1
 482 0 l 1,0,-1
EndSplineSet
EndChar

StartChar: three
Encoding: 51 51 23
Width: 513
GlyphClass: 2
Flags: W
LayerCount: 2
Fore
SplineSet
417 588 m 0,0,1
 417 490 417 490 257 404 c 1,2,-1
 259 400 l 1,3,4
 290 414 290 414 317 414 c 0,5,6
 390 414 390 414 436.5 368.5 c 128,-1,7
 483 323 483 323 483 240 c 0,8,9
 483 126 483 126 398 56 c 128,-1,10
 313 -14 313 -14 199 -14 c 0,11,12
 141 -14 141 -14 102.5 -0.5 c 128,-1,13
 64 13 64 13 25 48 c 1,14,-1
 41 154 l 1,15,-1
 67 154 l 1,16,17
 81 96 81 96 111.5 65 c 128,-1,18
 142 34 142 34 220.5 34 c 128,-1,19
 299 34 299 34 344 78.5 c 128,-1,20
 389 123 389 123 389 198 c 128,-1,21
 389 273 389 273 351 316.5 c 128,-1,22
 313 360 313 360 241 360 c 0,23,24
 196 360 196 360 159 350 c 1,25,-1
 159 378 l 1,26,-1
 203 402 l 1,27,28
 266 433 266 433 289.5 468.5 c 128,-1,29
 313 504 313 504 313 552 c 0,30,31
 313 632 313 632 213 632 c 0,32,33
 154 632 154 632 102 588 c 0,34,35
 76 566 76 566 62 552 c 1,36,-1
 43 572 l 1,37,38
 122 700 122 700 279 700 c 0,39,40
 344 700 344 700 380.5 668.5 c 128,-1,41
 417 637 417 637 417 588 c 0,0,1
EndSplineSet
EndChar

StartChar: four
Encoding: 52 52 24
Width: 590
GlyphClass: 2
Flags: W
LayerCount: 2
Fore
SplineSet
334 276 m 1,0,-1
 334 612 l 1,1,2
 171 374 171 374 114 279 c 1,3,-1
 114 275 l 1,4,-1
 334 276 l 1,0,-1
506 0 m 1,5,-1
 252 0 l 1,6,-1
 252 28 l 1,7,-1
 286 28 l 2,8,9
 316 28 316 28 325 40 c 128,-1,10
 334 52 334 52 334 74 c 2,11,-1
 334 212 l 1,12,-1
 15 212 l 1,13,-1
 15 231 l 1,14,15
 76 330 76 330 188 476.5 c 128,-1,16
 300 623 300 623 334 670 c 1,17,18
 379 670 379 670 404 714 c 1,19,-1
 418 718 l 1,20,-1
 418 276 l 1,21,22
 531 276 531 276 541 332 c 1,23,-1
 560 328 l 1,24,-1
 532 212 l 1,25,-1
 418 212 l 1,26,-1
 418 74 l 2,27,28
 418 52 418 52 428 40 c 128,-1,29
 438 28 438 28 468 28 c 2,30,-1
 506 28 l 1,31,-1
 506 0 l 1,5,-1
EndSplineSet
EndChar

StartChar: five
Encoding: 53 53 25
Width: 548
GlyphClass: 2
Flags: W
LayerCount: 2
Fore
SplineSet
50 54 m 1,0,-1
 90 162 l 1,1,-1
 116 162 l 1,2,3
 141 70 141 70 200 48 c 0,4,5
 227 38 227 38 266 38 c 0,6,7
 340 38 340 38 387 88 c 128,-1,8
 434 138 434 138 434 226 c 0,9,10
 434 289 434 289 386 343.5 c 128,-1,11
 338 398 338 398 268.5 398 c 128,-1,12
 199 398 199 398 110 324 c 1,13,-1
 86 324 l 1,14,-1
 108 690 l 1,15,-1
 342 690 l 2,16,17
 390 690 390 690 410.5 700.5 c 128,-1,18
 431 711 431 711 438 730 c 1,19,-1
 456 726 l 1,20,-1
 430 606 l 1,21,-1
 160 606 l 1,22,-1
 148 408 l 1,23,-1
 152 408 l 1,24,25
 202 443 202 443 235.5 454.5 c 128,-1,26
 269 466 269 466 318 466 c 0,27,28
 398 466 398 466 458 399.5 c 128,-1,29
 518 333 518 333 518 252 c 0,30,31
 518 130 518 130 433 58 c 128,-1,32
 348 -14 348 -14 232 -14 c 0,33,34
 174 -14 174 -14 134 2 c 128,-1,35
 94 18 94 18 50 54 c 1,0,-1
EndSplineSet
EndChar

StartChar: six
Encoding: 54 54 26
Width: 531
GlyphClass: 2
Flags: W
LayerCount: 2
Fore
SplineSet
456 720 m 1,0,-1
 466 690 l 1,1,2
 348 632 348 632 264 558.5 c 128,-1,3
 180 485 180 485 136 372 c 1,4,5
 193 426 193 426 289.5 426 c 128,-1,6
 386 426 386 426 444 362 c 128,-1,7
 502 298 502 298 502 218 c 0,8,9
 502 121 502 121 428.5 53.5 c 128,-1,10
 355 -14 355 -14 248 -14 c 0,11,12
 158 -14 158 -14 97 53.5 c 128,-1,13
 36 121 36 121 36 221.5 c 128,-1,14
 36 322 36 322 69.5 405 c 128,-1,15
 103 488 103 488 162 548 c 0,16,17
 281 668 281 668 456 720 c 1,0,-1
304 36 m 0,18,19
 360 36 360 36 394 77 c 128,-1,20
 428 118 428 118 428 176 c 0,21,22
 428 233 428 233 387 301 c 0,23,24
 367 334 367 334 331.5 356 c 128,-1,25
 296 378 296 378 246.5 378 c 128,-1,26
 197 378 197 378 162.5 337 c 128,-1,27
 128 296 128 296 128 238 c 0,28,29
 128 152 128 152 180 94 c 128,-1,30
 232 36 232 36 304 36 c 0,18,19
EndSplineSet
EndChar

StartChar: seven
Encoding: 55 55 27
Width: 503
GlyphClass: 2
Flags: W
LayerCount: 2
Fore
SplineSet
201 0 m 1,0,-1
 85 0 l 1,1,2
 142 127 142 127 172.5 189 c 128,-1,3
 203 251 203 251 273.5 366 c 128,-1,4
 344 481 344 481 439 606 c 1,5,-1
 179 606 l 2,6,7
 121 606 121 606 83 577 c 128,-1,8
 45 548 45 548 43 518 c 1,9,-1
 15 522 l 1,10,-1
 55 690 l 1,11,-1
 523 690 l 1,12,-1
 521 666 l 1,13,14
 382 483 382 483 298.5 306.5 c 128,-1,15
 215 130 215 130 201 0 c 1,0,-1
EndSplineSet
EndChar

StartChar: eight
Encoding: 56 56 28
Width: 524
GlyphClass: 2
Flags: W
LayerCount: 2
Fore
SplineSet
215 355 m 1,0,1
 170 339 170 339 139 293 c 128,-1,2
 108 247 108 247 108 197 c 0,3,4
 108 124 108 124 156.5 81.5 c 128,-1,5
 205 39 205 39 264 39 c 0,6,7
 413 39 413 39 413 187 c 0,8,9
 413 258 413 258 357.5 301.5 c 128,-1,10
 302 345 302 345 215 355 c 1,0,1
182 381 m 1,11,12
 127 402 127 402 96.5 433.5 c 128,-1,13
 66 465 66 465 66 521 c 0,14,15
 66 593 66 593 131.5 647.5 c 128,-1,16
 197 702 197 702 278 702 c 128,-1,17
 359 702 359 702 402 658 c 128,-1,18
 445 614 445 614 445 559.5 c 128,-1,19
 445 505 445 505 418 463.5 c 128,-1,20
 391 422 391 422 343 398 c 1,21,22
 412 374 412 374 453 320.5 c 128,-1,23
 494 267 494 267 494 188.5 c 128,-1,24
 494 110 494 110 426.5 49 c 128,-1,25
 359 -12 359 -12 254.5 -12 c 128,-1,26
 150 -12 150 -12 93 48.5 c 128,-1,27
 36 109 36 109 36 177 c 128,-1,28
 36 245 36 245 76.5 300 c 128,-1,29
 117 355 117 355 182 381 c 1,11,12
293 419 m 1,30,31
 326 438 326 438 352.5 475.5 c 128,-1,32
 379 513 379 513 379 551 c 128,-1,33
 379 589 379 589 345.5 620.5 c 128,-1,34
 312 652 312 652 255.5 652 c 128,-1,35
 199 652 199 652 169.5 619.5 c 128,-1,36
 140 587 140 587 140 546.5 c 128,-1,37
 140 506 140 506 168 479 c 0,38,39
 213 436 213 436 293 419 c 1,30,31
EndSplineSet
EndChar

StartChar: nine
Encoding: 57 57 29
Width: 532
GlyphClass: 2
Flags: W
LayerCount: 2
Fore
SplineSet
86 -14 m 1,0,-1
 76 16 l 1,1,2
 188 69 188 69 271 142 c 128,-1,3
 354 215 354 215 398 326 c 1,4,5
 341 272 341 272 224 272 c 0,6,7
 149 272 149 272 94.5 335.5 c 128,-1,8
 40 399 40 399 40 474 c 0,9,10
 40 570 40 570 112 635 c 128,-1,11
 184 700 184 700 280 700 c 128,-1,12
 376 700 376 700 436 635 c 128,-1,13
 496 570 496 570 496 472 c 128,-1,14
 496 374 496 374 463 293 c 128,-1,15
 430 212 430 212 372 154 c 0,16,17
 258 39 258 39 86 -14 c 1,0,-1
207.5 341.5 m 128,-1,19
 242 320 242 320 290.5 320 c 128,-1,20
 339 320 339 320 371.5 359 c 128,-1,21
 404 398 404 398 404 456 c 0,22,23
 404 539 404 539 354 595.5 c 128,-1,24
 304 652 304 652 234 652 c 0,25,26
 179 652 179 652 146.5 612.5 c 128,-1,27
 114 573 114 573 114 516 c 0,28,29
 114 460 114 460 154 395 c 0,30,18
 173 363 173 363 207.5 341.5 c 128,-1,19
EndSplineSet
EndChar

StartChar: colon
Encoding: 58 58 30
Width: 282
GlyphClass: 2
Flags: W
LayerCount: 2
Fore
SplineSet
186.5 404 m 128,-1,1
 200 388 200 388 200 365 c 128,-1,2
 200 342 200 342 180.5 326 c 128,-1,3
 161 310 161 310 138.5 310 c 128,-1,4
 116 310 116 310 104 326 c 128,-1,5
 92 342 92 342 92 364 c 128,-1,6
 92 386 92 386 110.5 403 c 128,-1,7
 129 420 129 420 151 420 c 128,-1,0
 173 420 173 420 186.5 404 c 128,-1,1
186.5 79 m 128,-1,9
 200 64 200 64 200 40.5 c 128,-1,10
 200 17 200 17 181 1.5 c 128,-1,11
 162 -14 162 -14 139 -14 c 128,-1,12
 116 -14 116 -14 104 1.5 c 128,-1,13
 92 17 92 17 92 39 c 128,-1,14
 92 61 92 61 110.5 77.5 c 128,-1,15
 129 94 129 94 151 94 c 128,-1,8
 173 94 173 94 186.5 79 c 128,-1,9
EndSplineSet
EndChar

StartChar: semicolon
Encoding: 59 59 31
AltUni2: 00037e.ffffffff.0
Width: 274
GlyphClass: 2
Flags: W
LayerCount: 2
Fore
SplineSet
78 -144 m 1,0,-1
 62 -124 l 1,1,2
 117 -82 117 -82 130 -14 c 1,3,4
 109 -14 109 -14 96.5 -0.5 c 128,-1,5
 84 13 84 13 84 36.5 c 128,-1,6
 84 60 84 60 103 77 c 128,-1,7
 122 94 122 94 145 94 c 128,-1,8
 168 94 168 94 180 81 c 128,-1,9
 192 68 192 68 192 48 c 0,10,11
 192 2 192 2 167.5 -42.5 c 128,-1,12
 143 -87 143 -87 121.5 -107.5 c 128,-1,13
 100 -128 100 -128 78 -144 c 1,0,-1
178.5 404 m 128,-1,15
 192 388 192 388 192 365 c 128,-1,16
 192 342 192 342 172.5 326 c 128,-1,17
 153 310 153 310 130.5 310 c 128,-1,18
 108 310 108 310 96 326 c 128,-1,19
 84 342 84 342 84 364 c 128,-1,20
 84 386 84 386 102.5 403 c 128,-1,21
 121 420 121 420 143 420 c 128,-1,14
 165 420 165 420 178.5 404 c 128,-1,15
EndSplineSet
EndChar

StartChar: less
Encoding: 60 60 32
Width: 832
GlyphClass: 2
Flags: W
LayerCount: 2
Fore
SplineSet
616 0 m 1,0,-1
 154 218 l 1,1,-1
 154 268 l 1,2,-1
 616 486 l 1,3,-1
 616 439 l 1,4,-1
 215 253 l 1,5,-1
 616 65 l 1,6,-1
 616 0 l 1,0,-1
EndSplineSet
EndChar

StartChar: equal
Encoding: 61 61 33
Width: 785
GlyphClass: 2
Flags: W
LayerCount: 2
Fore
SplineSet
589 308 m 1,0,-1
 191 308 l 1,1,-1
 191 356 l 1,2,-1
 589 356 l 1,3,-1
 589 308 l 1,0,-1
589 144 m 1,4,-1
 191 144 l 1,5,-1
 191 192 l 1,6,-1
 589 192 l 1,7,-1
 589 144 l 1,4,-1
EndSplineSet
EndChar

StartChar: greater
Encoding: 62 62 34
Width: 832
GlyphClass: 2
Flags: W
LayerCount: 2
Fore
SplineSet
616 218 m 1,0,-1
 154 0 l 1,1,-1
 154 65 l 1,2,-1
 555 253 l 1,3,-1
 154 439 l 1,4,-1
 154 486 l 1,5,-1
 616 268 l 1,6,-1
 616 218 l 1,0,-1
EndSplineSet
EndChar

StartChar: question
Encoding: 63 63 35
Width: 455
GlyphClass: 2
Flags: W
LayerCount: 2
Fore
SplineSet
196.5 78 m 128,-1,1
 209 62 209 62 209 39 c 128,-1,2
 209 16 209 16 190 0 c 128,-1,3
 171 -16 171 -16 148.5 -16 c 128,-1,4
 126 -16 126 -16 113.5 0 c 128,-1,5
 101 16 101 16 101 38 c 128,-1,6
 101 60 101 60 120 77 c 128,-1,7
 139 94 139 94 161.5 94 c 128,-1,0
 184 94 184 94 196.5 78 c 128,-1,1
171 182 m 1,8,-1
 141 180 l 1,9,-1
 129 312 l 1,10,11
 193 339 193 339 266 398 c 0,12,13
 305 430 305 430 329 474.5 c 128,-1,14
 353 519 353 519 353 564 c 0,15,16
 353 654 353 654 229 654 c 0,17,18
 171 654 171 654 135 632.5 c 128,-1,19
 99 611 99 611 99 573 c 0,20,21
 99 571 99 571 99 568 c 1,22,-1
 73 568 l 1,23,-1
 55 676 l 1,24,25
 122 714 122 714 187 714 c 0,26,27
 268 714 268 714 342 675 c 0,28,29
 379 655 379 655 402 618 c 128,-1,30
 425 581 425 581 425 532 c 0,31,32
 425 390 425 390 285 320 c 1,33,-1
 273 316 l 2,34,35
 261 311 261 311 258 309 c 128,-1,36
 255 307 255 307 243.5 301.5 c 128,-1,37
 232 296 232 296 227.5 291.5 c 128,-1,38
 223 287 223 287 213.5 279 c 128,-1,39
 204 271 204 271 199 262 c 128,-1,40
 194 253 194 253 188 241 c 0,41,42
 175 218 175 218 171 182 c 1,8,-1
EndSplineSet
EndChar

StartChar: at
Encoding: 64 64 36
Width: 896
GlyphClass: 2
Flags: W
LayerCount: 2
Fore
SplineSet
676 -66 m 1,0,-1
 670 -102 l 1,1,2
 561 -208 561 -208 395 -208 c 128,-1,3
 229 -208 229 -208 132.5 -118.5 c 128,-1,4
 36 -29 36 -29 36 152 c 0,5,6
 36 253 36 253 68 346.5 c 128,-1,7
 100 440 100 440 157.5 513.5 c 128,-1,8
 215 587 215 587 304 631.5 c 128,-1,9
 393 676 393 676 500 676 c 0,10,11
 665 676 665 676 762.5 583.5 c 128,-1,12
 860 491 860 491 860 326 c 0,13,14
 860 195 860 195 784 98.5 c 128,-1,15
 708 2 708 2 612 2 c 0,16,17
 569 2 569 2 548 42 c 0,18,19
 543 52 543 52 537 102.5 c 128,-1,20
 531 153 531 153 530 160 c 1,21,22
 490 98 490 98 435 50 c 128,-1,23
 380 2 380 2 333 2 c 128,-1,24
 286 2 286 2 268 31.5 c 128,-1,25
 250 61 250 61 250 114 c 0,26,27
 250 245 250 245 340.5 354.5 c 128,-1,28
 431 464 431 464 522 464 c 0,29,30
 551 464 551 464 562 456 c 1,31,-1
 568 480 l 1,32,-1
 640 510 l 1,33,34
 617 421 617 421 607.5 354 c 128,-1,35
 598 287 598 287 590 178 c 1,36,37
 590 126 590 126 612.5 94 c 128,-1,38
 635 62 635 62 668 62 c 0,39,40
 715 62 715 62 763.5 120.5 c 128,-1,41
 812 179 812 179 812 274 c 0,42,43
 812 437 812 437 714.5 534.5 c 128,-1,44
 617 632 617 632 480 632 c 0,45,46
 318 632 318 632 219 504.5 c 128,-1,47
 120 377 120 377 120 190 c 0,48,49
 120 27 120 27 207 -62.5 c 128,-1,50
 294 -152 294 -152 440.5 -152 c 128,-1,51
 587 -152 587 -152 676 -66 c 1,0,-1
528 238 m 1,52,-1
 552 388 l 1,53,54
 530 410 530 410 488 410 c 0,55,56
 420 410 420 410 373 329.5 c 128,-1,57
 326 249 326 249 326 153.5 c 128,-1,58
 326 58 326 58 370 58 c 0,59,60
 402 58 402 58 436 92 c 0,61,62
 497 151 497 151 528 238 c 1,52,-1
EndSplineSet
EndChar

StartChar: A
Encoding: 65 65 37
Width: 731
GlyphClass: 2
Flags: W
LayerCount: 2
Fore
SplineSet
721 0 m 1,0,-1
 465 0 l 1,1,-1
 465 28 l 1,2,-1
 497 28 l 2,3,4
 541 28 541 28 541 56 c 0,5,6
 541 60 541 60 531 90 c 1,7,-1
 463 268 l 1,8,-1
 211 268 l 1,9,-1
 145 98 l 2,10,11
 145 96 145 96 138 73.5 c 128,-1,12
 131 51 131 51 131 42.5 c 128,-1,13
 131 34 131 34 142 31 c 128,-1,14
 153 28 153 28 189 28 c 2,15,-1
 205 28 l 1,16,-1
 205 0 l 1,17,-1
 9 0 l 1,18,-1
 9 28 l 1,19,-1
 23 28 l 2,20,21
 56 28 56 28 71 39.5 c 128,-1,22
 86 51 86 51 97 78 c 2,23,-1
 317 652 l 1,24,25
 322 653 322 653 335 666.5 c 128,-1,26
 348 680 348 680 359 694.5 c 128,-1,27
 370 709 370 709 370 711 c 128,-1,28
 370 713 370 713 369 714 c 1,29,-1
 383 718 l 1,30,-1
 629 74 l 1,31,32
 640 51 640 51 651.5 39.5 c 128,-1,33
 663 28 663 28 685 28 c 2,34,-1
 721 28 l 1,35,-1
 721 0 l 1,0,-1
445 310 m 1,36,-1
 337 596 l 1,37,-1
 227 310 l 1,38,-1
 445 310 l 1,36,-1
EndSplineSet
EndChar

StartChar: B
Encoding: 66 66 38
Width: 620
GlyphClass: 2
Flags: W
LayerCount: 2
Fore
SplineSet
174 700 m 1,0,-1
 346 710 l 1,1,2
 482 710 482 710 519 644 c 0,3,4
 534 617 534 617 534 578 c 0,5,6
 534 462 534 462 438 394 c 1,7,8
 540 375 540 375 570 314 c 0,9,10
 584 284 584 284 584 242 c 0,11,12
 584 141 584 141 499.5 70.5 c 128,-1,13
 415 0 415 0 300 0 c 2,14,-1
 40 0 l 1,15,-1
 40 30 l 1,16,-1
 74 30 l 2,17,18
 104 30 104 30 112 41 c 128,-1,19
 120 52 120 52 120 74 c 2,20,-1
 120 626 l 2,21,22
 120 650 120 650 111.5 660 c 128,-1,23
 103 670 103 670 74 670 c 2,24,-1
 40 670 l 1,25,-1
 40 700 l 1,26,-1
 174 700 l 1,0,-1
282 656 m 0,27,28
 242 656 242 656 208 650 c 1,29,-1
 208 388 l 1,30,-1
 330 388 l 2,31,32
 385 388 385 388 423.5 428.5 c 128,-1,33
 462 469 462 469 462 516 c 0,34,35
 462 584 462 584 408 620 c 128,-1,36
 354 656 354 656 282 656 c 0,27,28
300 346 m 2,37,-1
 208 346 l 1,38,-1
 208 62 l 1,39,40
 269 44 269 44 322 44 c 0,41,42
 402 44 402 44 452 83.5 c 128,-1,43
 502 123 502 123 502 190 c 0,44,45
 502 279 502 279 438 314 c 0,46,47
 381 346 381 346 300 346 c 2,37,-1
EndSplineSet
EndChar

StartChar: C
Encoding: 67 67 39
Width: 696
GlyphClass: 2
Flags: W
LayerCount: 2
Fore
SplineSet
642 196 m 1,0,-1
 666 160 l 1,1,2
 585 68 585 68 504 24 c 128,-1,3
 423 -20 423 -20 330 -20 c 0,4,5
 215 -20 215 -20 125.5 81 c 128,-1,6
 36 182 36 182 36 310 c 0,7,8
 36 471 36 471 157.5 594.5 c 128,-1,9
 279 718 279 718 440 718 c 0,10,11
 504 718 504 718 600 686 c 1,12,-1
 588 546 l 1,13,-1
 554 546 l 1,14,15
 554 583 554 583 529 604 c 128,-1,16
 504 625 504 625 472.5 630.5 c 128,-1,17
 441 636 441 636 394 636 c 0,18,19
 278 636 278 636 192 568 c 128,-1,20
 106 500 106 500 106 382 c 0,21,22
 106 296 106 296 138 229 c 128,-1,23
 170 162 170 162 218 126 c 0,24,25
 313 56 313 56 400 56 c 0,26,27
 454 56 454 56 520 91 c 128,-1,28
 586 126 586 126 642 196 c 1,0,-1
EndSplineSet
EndChar

StartChar: D
Encoding: 68 68 40
Width: 778
GlyphClass: 2
Flags: W
LayerCount: 2
Fore
SplineSet
208 634 m 1,0,-1
 208 90 l 1,1,2
 266 56 266 56 366 56 c 0,3,4
 485 56 485 56 576 121 c 0,5,6
 622 154 622 154 649 213 c 128,-1,7
 676 272 676 272 676 346.5 c 128,-1,8
 676 421 676 421 646.5 479 c 128,-1,9
 617 537 617 537 570 572 c 0,10,11
 475 644 475 644 374 644 c 1,12,-1
 208 634 l 1,0,-1
194 700 m 1,13,-1
 442 710 l 1,14,15
 581 710 581 710 661.5 620 c 128,-1,16
 742 530 742 530 742 379.5 c 128,-1,17
 742 229 742 229 626.5 114.5 c 128,-1,18
 511 0 511 0 356 0 c 2,19,-1
 40 0 l 1,20,-1
 40 30 l 1,21,-1
 74 30 l 2,22,23
 104 30 104 30 113 41 c 128,-1,24
 122 52 122 52 122 74 c 2,25,-1
 122 626 l 2,26,27
 122 649 122 649 112.5 659.5 c 128,-1,28
 103 670 103 670 74 670 c 2,29,-1
 40 670 l 1,30,-1
 40 700 l 1,31,-1
 194 700 l 1,13,-1
EndSplineSet
EndChar

StartChar: E
Encoding: 69 69 41
Width: 640
GlyphClass: 2
Flags: W
LayerCount: 2
Fore
SplineSet
576 0 m 1,0,-1
 40 0 l 1,1,-1
 40 28 l 1,2,-1
 74 28 l 2,3,4
 103 28 103 28 112.5 39 c 128,-1,5
 122 50 122 50 122 74 c 2,6,-1
 122 626 l 2,7,8
 122 646 122 646 109.5 659 c 128,-1,9
 97 672 97 672 74 672 c 2,10,-1
 40 672 l 1,11,-1
 40 700 l 1,12,-1
 568 700 l 1,13,-1
 576 562 l 1,14,-1
 548 556 l 1,15,16
 548 592 548 592 519 625 c 128,-1,17
 490 658 490 658 438 658 c 2,18,-1
 256 658 l 2,19,20
 226 658 226 658 217 646.5 c 128,-1,21
 208 635 208 635 208 614 c 2,22,-1
 208 386 l 1,23,-1
 408 386 l 2,24,25
 423 386 423 386 431 387.5 c 128,-1,26
 439 389 439 389 445.5 398 c 128,-1,27
 452 407 452 407 452 424 c 2,28,-1
 452 470 l 1,29,-1
 482 470 l 1,30,-1
 482 262 l 1,31,-1
 452 262 l 1,32,-1
 452 304 l 2,33,34
 452 329 452 329 441 336.5 c 128,-1,35
 430 344 430 344 408 344 c 2,36,-1
 208 344 l 1,37,-1
 208 86 l 2,38,39
 208 65 208 65 217 53.5 c 128,-1,40
 226 42 226 42 256 42 c 2,41,-1
 446 42 l 2,42,43
 499 42 499 42 539.5 76 c 128,-1,44
 580 110 580 110 582 142 c 1,45,-1
 610 138 l 1,46,-1
 576 0 l 1,0,-1
EndSplineSet
EndChar

StartChar: F
Encoding: 70 70 42
Width: 598
GlyphClass: 2
Flags: W
LayerCount: 2
Fore
SplineSet
294 0 m 1,0,-1
 40 0 l 1,1,-1
 40 28 l 1,2,-1
 72 28 l 2,3,4
 94 28 94 28 105 35.5 c 128,-1,5
 116 43 116 43 118 51 c 128,-1,6
 120 59 120 59 120 74 c 2,7,-1
 120 626 l 2,8,9
 120 651 120 651 110 661.5 c 128,-1,10
 100 672 100 672 72 672 c 2,11,-1
 40 672 l 1,12,-1
 40 700 l 1,13,-1
 574 700 l 1,14,-1
 584 558 l 1,15,-1
 556 554 l 1,16,17
 554 591 554 591 525 624.5 c 128,-1,18
 496 658 496 658 444 658 c 2,19,-1
 256 658 l 2,20,21
 234 658 234 658 223 651 c 128,-1,22
 212 644 212 644 210 636 c 128,-1,23
 208 628 208 628 208 614 c 2,24,-1
 208 392 l 1,25,-1
 402 392 l 2,26,27
 417 392 417 392 425 394 c 0,28,29
 446 399 446 399 446 432 c 2,30,-1
 446 480 l 1,31,-1
 476 480 l 1,32,-1
 476 266 l 1,33,-1
 446 266 l 1,34,-1
 446 310 l 2,35,36
 446 336 446 336 435 343 c 128,-1,37
 424 350 424 350 402 350 c 2,38,-1
 208 350 l 1,39,-1
 208 74 l 2,40,41
 208 59 208 59 210 51 c 128,-1,42
 212 43 212 43 223 35.5 c 128,-1,43
 234 28 234 28 256 28 c 2,44,-1
 294 28 l 1,45,-1
 294 0 l 1,0,-1
EndSplineSet
EndChar

StartChar: G
Encoding: 71 71 43
Width: 738
GlyphClass: 2
Flags: W
LayerCount: 2
Fore
SplineSet
556 114 m 1,0,-1
 556 238 l 2,1,2
 556 252 556 252 554 260 c 128,-1,3
 552 268 552 268 541 275 c 128,-1,4
 530 282 530 282 508 282 c 2,5,-1
 472 282 l 1,6,-1
 472 310 l 1,7,-1
 706 310 l 1,8,-1
 706 282 l 1,9,-1
 690 282 l 2,10,11
 660 282 660 282 651 270.5 c 128,-1,12
 642 259 642 259 642 238 c 2,13,-1
 642 136 l 1,14,15
 498 -20 498 -20 328 -20 c 0,16,17
 214 -20 214 -20 125 81 c 128,-1,18
 36 182 36 182 36 308 c 0,19,20
 36 471 36 471 156.5 594.5 c 128,-1,21
 277 718 277 718 438 718 c 0,22,23
 498 718 498 718 600 684 c 1,24,-1
 606 546 l 1,25,-1
 570 546 l 1,26,27
 570 636 570 636 394 636 c 0,28,29
 273 636 273 636 188.5 569.5 c 128,-1,30
 104 503 104 503 104 380 c 0,31,32
 104 311 104 311 125.5 254 c 128,-1,33
 147 197 147 197 180 161 c 128,-1,34
 213 125 213 125 254 100 c 1,35,36
 330 56 330 56 401 56 c 128,-1,37
 472 56 472 56 556 114 c 1,0,-1
EndSplineSet
EndChar

StartChar: H
Encoding: 72 72 44
Width: 810
GlyphClass: 2
Flags: W
LayerCount: 2
Fore
SplineSet
770 0 m 1,0,-1
 516 0 l 1,1,-1
 516 28 l 1,2,-1
 548 28 l 2,3,4
 570 28 570 28 581 35.5 c 128,-1,5
 592 43 592 43 594 51 c 128,-1,6
 596 59 596 59 596 74 c 2,7,-1
 596 342 l 1,8,-1
 208 342 l 1,9,-1
 208 74 l 2,10,11
 208 52 208 52 217 40 c 128,-1,12
 226 28 226 28 256 28 c 2,13,-1
 294 28 l 1,14,-1
 294 0 l 1,15,-1
 40 0 l 1,16,-1
 40 28 l 1,17,-1
 74 28 l 2,18,19
 104 28 104 28 113 40 c 128,-1,20
 122 52 122 52 122 74 c 2,21,-1
 122 626 l 2,22,23
 122 648 122 648 113 660 c 128,-1,24
 104 672 104 672 74 672 c 2,25,-1
 40 672 l 1,26,-1
 40 700 l 1,27,-1
 294 700 l 1,28,-1
 294 672 l 1,29,-1
 256 672 l 2,30,31
 226 672 226 672 217 660 c 128,-1,32
 208 648 208 648 208 626 c 2,33,-1
 208 386 l 1,34,-1
 596 386 l 1,35,-1
 596 626 l 2,36,37
 596 641 596 641 594 649 c 128,-1,38
 592 657 592 657 581 664.5 c 128,-1,39
 570 672 570 672 548 672 c 2,40,-1
 516 672 l 1,41,-1
 516 700 l 1,42,-1
 770 700 l 1,43,-1
 770 672 l 1,44,-1
 732 672 l 2,45,46
 710 672 710 672 699 664.5 c 128,-1,47
 688 657 688 657 686 649 c 128,-1,48
 684 641 684 641 684 626 c 2,49,-1
 684 74 l 2,50,51
 684 59 684 59 686 51 c 128,-1,52
 688 43 688 43 699 35.5 c 128,-1,53
 710 28 710 28 732 28 c 2,54,-1
 770 28 l 1,55,-1
 770 0 l 1,0,-1
EndSplineSet
EndChar

StartChar: I
Encoding: 73 73 45
Width: 334
GlyphClass: 2
Flags: W
LayerCount: 2
Fore
SplineSet
294 0 m 1,0,-1
 40 0 l 1,1,-1
 40 28 l 1,2,-1
 74 28 l 2,3,4
 104 28 104 28 113 40 c 128,-1,5
 122 52 122 52 122 74 c 2,6,-1
 122 626 l 2,7,8
 122 648 122 648 113 660 c 128,-1,9
 104 672 104 672 74 672 c 2,10,-1
 40 672 l 1,11,-1
 40 700 l 1,12,-1
 294 700 l 1,13,-1
 294 672 l 1,14,-1
 256 672 l 2,15,16
 226 672 226 672 217 660 c 128,-1,17
 208 648 208 648 208 626 c 2,18,-1
 208 74 l 2,19,20
 208 52 208 52 217 40 c 128,-1,21
 226 28 226 28 256 28 c 2,22,-1
 294 28 l 1,23,-1
 294 0 l 1,0,-1
EndSplineSet
EndChar

StartChar: J
Encoding: 74 74 46
Width: 332
GlyphClass: 2
Flags: W
LayerCount: 2
Fore
SplineSet
34 -218 m 1,0,-1
 12 -180 l 1,1,2
 54 -152 54 -152 87 -111 c 128,-1,3
 120 -70 120 -70 120 -36 c 2,4,-1
 120 626 l 2,5,6
 120 641 120 641 118 649 c 128,-1,7
 116 657 116 657 105 663.5 c 128,-1,8
 94 670 94 670 72 670 c 2,9,-1
 40 670 l 1,10,-1
 40 700 l 1,11,-1
 294 700 l 1,12,-1
 294 670 l 1,13,-1
 256 670 l 2,14,15
 234 670 234 670 223 663.5 c 128,-1,16
 212 657 212 657 210 649 c 128,-1,17
 208 641 208 641 208 626 c 2,18,-1
 208 -6 l 2,19,20
 208 -109 208 -109 152 -154 c 0,21,22
 133 -169 133 -169 118 -176.5 c 128,-1,23
 103 -184 103 -184 76 -196.5 c 128,-1,24
 49 -209 49 -209 34 -218 c 1,0,-1
EndSplineSet
EndChar

StartChar: K
Encoding: 75 75 47
Width: 710
GlyphClass: 2
Flags: W
LayerCount: 2
Fore
SplineSet
692 0 m 1,0,-1
 464 0 l 1,1,-1
 464 30 l 1,2,-1
 482 30 l 2,3,4
 498 30 498 30 498 38 c 0,5,6
 498 42 498 42 482 66 c 2,7,-1
 278 382 l 1,8,-1
 208 312 l 1,9,-1
 208 74 l 2,10,11
 208 59 208 59 210 51 c 128,-1,12
 212 43 212 43 223 36.5 c 128,-1,13
 234 30 234 30 256 30 c 2,14,-1
 294 30 l 1,15,-1
 294 0 l 1,16,-1
 40 0 l 1,17,-1
 40 30 l 1,18,-1
 72 30 l 2,19,20
 94 30 94 30 105 36.5 c 128,-1,21
 116 43 116 43 118 51 c 128,-1,22
 120 59 120 59 120 74 c 2,23,-1
 120 626 l 2,24,25
 120 641 120 641 118 649 c 128,-1,26
 116 657 116 657 105 663.5 c 128,-1,27
 94 670 94 670 72 670 c 2,28,-1
 40 670 l 1,29,-1
 40 700 l 1,30,-1
 294 700 l 1,31,-1
 294 670 l 1,32,-1
 256 670 l 2,33,34
 234 670 234 670 223 663.5 c 128,-1,35
 212 657 212 657 210 649 c 128,-1,36
 208 641 208 641 208 626 c 2,37,-1
 208 366 l 1,38,-1
 466 618 l 1,39,40
 486 636 486 636 486 650 c 0,41,42
 486 670 486 670 456 670 c 2,43,-1
 438 670 l 1,44,-1
 438 700 l 1,45,-1
 636 700 l 1,46,-1
 636 670 l 1,47,-1
 620 670 l 2,48,49
 602 670 602 670 568 651 c 128,-1,50
 534 632 534 632 510 608 c 2,51,-1
 340 440 l 1,52,-1
 566 100 l 1,53,54
 578 84 578 84 588 68 c 1,55,56
 618 30 618 30 668 30 c 2,57,-1
 692 30 l 1,58,-1
 692 0 l 1,0,-1
EndSplineSet
EndChar

StartChar: L
Encoding: 76 76 48
Width: 624
GlyphClass: 2
Flags: W
LayerCount: 2
Fore
SplineSet
576 0 m 1,0,-1
 40 0 l 1,1,-1
 40 30 l 1,2,-1
 74 30 l 2,3,4
 104 30 104 30 113 41 c 128,-1,5
 122 52 122 52 122 74 c 2,6,-1
 122 626 l 2,7,8
 122 648 122 648 113 659 c 128,-1,9
 104 670 104 670 74 670 c 2,10,-1
 40 670 l 1,11,-1
 40 700 l 1,12,-1
 294 700 l 1,13,-1
 294 670 l 1,14,-1
 256 670 l 2,15,16
 226 670 226 670 217 659 c 128,-1,17
 208 648 208 648 208 626 c 2,18,-1
 208 88 l 2,19,20
 208 66 208 66 217 54 c 128,-1,21
 226 42 226 42 256 42 c 2,22,-1
 446 42 l 2,23,24
 499 42 499 42 539.5 76.5 c 128,-1,25
 580 111 580 111 580 144 c 1,26,-1
 610 138 l 1,27,-1
 576 0 l 1,0,-1
EndSplineSet
EndChar

StartChar: M
Encoding: 77 77 49
Width: 928
GlyphClass: 2
Flags: W
LayerCount: 2
Fore
SplineSet
468 10 m 2,0,1
 467 10 467 10 463 10 c 128,-1,2
 459 10 459 10 432 -10 c 1,3,-1
 202 592 l 1,4,-1
 154 68 l 2,5,6
 152 52 152 52 169 41 c 128,-1,7
 186 30 186 30 216 30 c 2,8,-1
 258 30 l 1,9,-1
 258 0 l 1,10,-1
 18 0 l 1,11,-1
 18 30 l 1,12,-1
 50 30 l 2,13,14
 108 30 108 30 112 74 c 2,15,-1
 162 626 l 2,16,17
 164 645 164 645 148.5 657.5 c 128,-1,18
 133 670 133 670 100 670 c 2,19,-1
 68 670 l 1,20,-1
 68 700 l 1,21,-1
 256 700 l 1,22,-1
 470 136 l 1,23,-1
 686 700 l 1,24,-1
 866 700 l 1,25,-1
 866 672 l 1,26,-1
 826 672 l 2,27,28
 778 672 778 672 778 635 c 0,29,30
 778 632 778 632 778 628 c 2,31,-1
 824 74 l 2,32,33
 826 51 826 51 835.5 40.5 c 128,-1,34
 845 30 845 30 870 30 c 2,35,-1
 910 30 l 1,36,-1
 910 0 l 1,37,-1
 654 0 l 1,38,-1
 654 30 l 1,39,-1
 688 30 l 2,40,41
 716 30 716 30 726 39 c 128,-1,42
 736 48 736 48 736 58.5 c 128,-1,43
 736 69 736 69 736 74 c 2,44,-1
 692 598 l 1,45,-1
 468 10 l 2,0,1
EndSplineSet
EndChar

StartChar: N
Encoding: 78 78 50
Width: 798
GlyphClass: 2
Flags: W
LayerCount: 2
Fore
SplineSet
622 -16 m 1,0,-1
 180 576 l 1,1,-1
 180 74 l 2,2,3
 180 30 180 30 242 30 c 2,4,-1
 280 30 l 1,5,-1
 280 0 l 1,6,-1
 40 0 l 1,7,-1
 40 30 l 1,8,-1
 72 30 l 2,9,10
 134 30 134 30 134 74 c 2,11,-1
 134 626 l 2,12,13
 134 670 134 670 72 670 c 2,14,-1
 40 670 l 1,15,-1
 40 700 l 1,16,-1
 198 700 l 1,17,-1
 610 146 l 1,18,-1
 610 626 l 2,19,20
 610 670 610 670 550 670 c 2,21,-1
 516 670 l 1,22,-1
 516 700 l 1,23,-1
 756 700 l 1,24,-1
 756 670 l 1,25,-1
 718 670 l 2,26,27
 656 670 656 670 656 626 c 2,28,-1
 656 4 l 1,29,30
 645 4 645 4 632.5 -5.5 c 128,-1,31
 620 -15 620 -15 622 -16 c 1,0,-1
EndSplineSet
EndChar

StartChar: O
Encoding: 79 79 51
Width: 764
GlyphClass: 2
Flags: W
LayerCount: 2
Fore
SplineSet
342 -20 m 0,0,1
 211 -20 211 -20 123.5 81 c 128,-1,2
 36 182 36 182 36 314 c 0,3,4
 36 396 36 396 72 472 c 128,-1,5
 108 548 108 548 164.5 601 c 128,-1,6
 221 654 221 654 289.5 686 c 128,-1,7
 358 718 358 718 422 718 c 0,8,9
 552 718 552 718 640 617 c 128,-1,10
 728 516 728 516 728 384 c 0,11,12
 728 286 728 286 675 192.5 c 128,-1,13
 622 99 622 99 531.5 39.5 c 128,-1,14
 441 -20 441 -20 342 -20 c 0,0,1
404 56 m 0,15,16
 513 56 513 56 587.5 136 c 128,-1,17
 662 216 662 216 662 334 c 128,-1,18
 662 452 662 452 575.5 546 c 128,-1,19
 489 640 489 640 366 640 c 0,20,21
 261 640 261 640 181.5 564.5 c 128,-1,22
 102 489 102 489 102 384 c 0,23,24
 102 248 102 248 185.5 152 c 128,-1,25
 269 56 269 56 404 56 c 0,15,16
EndSplineSet
EndChar

StartChar: P
Encoding: 80 80 52
Width: 604
GlyphClass: 2
Flags: W
LayerCount: 2
Fore
SplineSet
234 354 m 1,0,-1
 282 352 l 1,1,2
 357 352 357 352 420 376 c 0,3,4
 457 390 457 390 479.5 420 c 128,-1,5
 502 450 502 450 502 494 c 0,6,7
 502 652 502 652 312 652 c 1,8,-1
 208 648 l 1,9,-1
 208 72 l 2,10,11
 208 58 208 58 210 50 c 128,-1,12
 212 42 212 42 223 35 c 128,-1,13
 234 28 234 28 256 28 c 2,14,-1
 294 28 l 1,15,-1
 294 0 l 1,16,-1
 40 0 l 1,17,-1
 40 28 l 1,18,-1
 72 28 l 2,19,20
 94 28 94 28 105 35 c 128,-1,21
 116 42 116 42 118 50 c 128,-1,22
 120 58 120 58 120 72 c 2,23,-1
 120 626 l 2,24,25
 120 649 120 649 110.5 659.5 c 128,-1,26
 101 670 101 670 72 670 c 2,27,-1
 40 670 l 1,28,-1
 40 700 l 1,29,-1
 194 700 l 1,30,-1
 384 710 l 1,31,32
 474 710 474 710 529 671 c 128,-1,33
 584 632 584 632 584 561.5 c 128,-1,34
 584 491 584 491 551.5 438.5 c 128,-1,35
 519 386 519 386 471 360 c 0,36,37
 380 312 380 312 308 312 c 0,38,39
 266 312 266 312 242 314 c 1,40,-1
 234 354 l 1,0,-1
EndSplineSet
EndChar

StartChar: Q
Encoding: 81 81 53
Width: 814
GlyphClass: 2
Flags: W
LayerCount: 2
Fore
SplineSet
1058 -174 m 1,0,-1
 1048 -202 l 1,1,2
 1034 -204 1034 -204 991 -204 c 128,-1,3
 948 -204 948 -204 878 -195.5 c 128,-1,4
 808 -187 808 -187 723 -168 c 128,-1,5
 638 -149 638 -149 550.5 -109 c 128,-1,6
 463 -69 463 -69 394 -14 c 1,7,8
 370 -20 370 -20 342 -20 c 0,9,10
 211 -20 211 -20 122.5 81.5 c 128,-1,11
 34 183 34 183 34 316 c 0,12,13
 34 421 34 421 95 516 c 128,-1,14
 156 611 156 611 245 664.5 c 128,-1,15
 334 718 334 718 420 718 c 0,16,17
 551 718 551 718 639.5 616 c 128,-1,18
 728 514 728 514 728 382 c 0,19,20
 728 274 728 274 667 180 c 128,-1,21
 606 86 606 86 504 26 c 1,22,23
 585 -50 585 -50 745 -112 c 128,-1,24
 905 -174 905 -174 1058 -174 c 1,0,-1
404 56 m 0,25,26
 510 56 510 56 586 139 c 128,-1,27
 662 222 662 222 662 328 c 0,28,29
 662 452 662 452 574.5 545 c 128,-1,30
 487 638 487 638 366 638 c 0,31,32
 262 638 262 638 182 563.5 c 128,-1,33
 102 489 102 489 102 386 c 0,34,35
 102 305 102 305 138 230.5 c 128,-1,36
 174 156 174 156 245 106 c 128,-1,37
 316 56 316 56 404 56 c 0,25,26
EndSplineSet
EndChar

StartChar: R
Encoding: 82 82 54
Width: 706
GlyphClass: 2
Flags: W
LayerCount: 2
Fore
SplineSet
194 700 m 1,0,-1
 384 710 l 1,1,2
 472 710 472 710 528 673 c 128,-1,3
 584 636 584 636 584 572 c 0,4,5
 584 483 584 483 536 427 c 128,-1,6
 488 371 488 371 418 342 c 1,7,-1
 580 98 l 2,8,9
 590 82 590 82 618.5 55 c 128,-1,10
 647 28 647 28 670 28 c 2,11,-1
 688 28 l 1,12,-1
 688 0 l 1,13,-1
 540 0 l 2,14,15
 543 0 543 0 521 30 c 128,-1,16
 499 60 499 60 496 66 c 2,17,-1
 330 322 l 1,18,19
 320 320 320 320 290 320 c 128,-1,20
 260 320 260 320 242 322 c 1,21,-1
 234 362 l 1,22,23
 248 360 248 360 294 360 c 128,-1,24
 340 360 340 360 386 372 c 128,-1,25
 432 384 432 384 467 417.5 c 128,-1,26
 502 451 502 451 502 504 c 0,27,28
 502 652 502 652 312 652 c 1,29,-1
 208 648 l 1,30,-1
 208 74 l 2,31,32
 208 59 208 59 210 51 c 128,-1,33
 212 43 212 43 223 35.5 c 128,-1,34
 234 28 234 28 256 28 c 2,35,-1
 294 28 l 1,36,-1
 294 0 l 1,37,-1
 40 0 l 1,38,-1
 40 28 l 1,39,-1
 72 28 l 2,40,41
 94 28 94 28 105 35.5 c 128,-1,42
 116 43 116 43 118 51 c 128,-1,43
 120 59 120 59 120 74 c 2,44,-1
 120 626 l 2,45,46
 120 649 120 649 110.5 659.5 c 128,-1,47
 101 670 101 670 72 670 c 2,48,-1
 40 670 l 1,49,-1
 40 700 l 1,50,-1
 194 700 l 1,0,-1
EndSplineSet
EndChar

StartChar: S
Encoding: 83 83 55
Width: 550
GlyphClass: 2
Flags: W
LayerCount: 2
Fore
SplineSet
30 48 m 1,0,-1
 44 178 l 1,1,-1
 78 176 l 1,2,3
 78 121 78 121 143.5 87.5 c 128,-1,4
 209 54 209 54 292.5 54 c 128,-1,5
 376 54 376 54 418 79.5 c 128,-1,6
 460 105 460 105 460 144 c 0,7,8
 460 210 460 210 390 262 c 0,9,10
 361 283 361 283 329 299 c 0,11,12
 256 337 256 337 237.5 347.5 c 128,-1,13
 219 358 219 358 196 369 c 128,-1,14
 173 380 173 380 153.5 392.5 c 128,-1,15
 134 405 134 405 112 423 c 0,16,17
 62 463 62 463 62 512.5 c 128,-1,18
 62 562 62 562 79.5 599 c 128,-1,19
 97 636 97 636 123.5 657 c 128,-1,20
 150 678 150 678 186 692 c 0,21,22
 247 714 247 714 322.5 714 c 128,-1,23
 398 714 398 714 468 676 c 1,24,-1
 456 560 l 1,25,-1
 422 560 l 1,26,27
 422 654 422 654 264 654 c 0,28,29
 191 654 191 654 154.5 631 c 128,-1,30
 118 608 118 608 118 568 c 0,31,32
 118 504 118 504 326 414 c 0,33,34
 463 355 463 355 501 283 c 0,35,36
 520 247 520 247 520 204 c 0,37,38
 520 100 520 100 436.5 43 c 128,-1,39
 353 -14 353 -14 235 -14 c 128,-1,40
 117 -14 117 -14 30 48 c 1,0,-1
EndSplineSet
EndChar

StartChar: T
Encoding: 84 84 56
Width: 610
GlyphClass: 2
Flags: W
LayerCount: 2
Fore
SplineSet
434 0 m 1,0,-1
 174 0 l 1,1,-1
 174 28 l 1,2,-1
 214 28 l 2,3,4
 244 28 244 28 252 39.5 c 128,-1,5
 260 51 260 51 260 72 c 2,6,-1
 260 612 l 2,7,8
 260 627 260 627 258 635.5 c 128,-1,9
 256 644 256 644 245.5 651 c 128,-1,10
 235 658 235 658 214 658 c 2,11,-1
 154 658 l 2,12,13
 101 658 101 658 72.5 625.5 c 128,-1,14
 44 593 44 593 42 556 c 1,15,-1
 14 562 l 1,16,-1
 24 700 l 1,17,-1
 586 700 l 1,18,-1
 596 562 l 1,19,-1
 568 556 l 1,20,21
 566 592 566 592 537 625 c 128,-1,22
 508 658 508 658 456 658 c 2,23,-1
 396 658 l 2,24,25
 374 658 374 658 363 650.5 c 128,-1,26
 352 643 352 643 350 635 c 128,-1,27
 348 627 348 627 348 612 c 2,28,-1
 348 72 l 2,29,30
 348 58 348 58 350 50 c 128,-1,31
 352 42 352 42 363 35 c 128,-1,32
 374 28 374 28 396 28 c 2,33,-1
 434 28 l 1,34,-1
 434 0 l 1,0,-1
EndSplineSet
EndChar

StartChar: U
Encoding: 85 85 57
Width: 795
GlyphClass: 2
Flags: W
LayerCount: 2
Fore
SplineSet
614 288 m 2,0,-1
 614 626 l 2,1,2
 614 670 614 670 552 670 c 2,3,-1
 520 670 l 1,4,-1
 520 700 l 1,5,-1
 760 700 l 1,6,-1
 760 670 l 1,7,-1
 722 670 l 2,8,9
 689 670 689 670 672.5 657.5 c 128,-1,10
 656 645 656 645 656 626 c 2,11,-1
 656 288 l 2,12,13
 656 212 656 212 628.5 150.5 c 128,-1,14
 601 89 601 89 558 53 c 0,15,16
 469 -20 469 -20 370 -20 c 128,-1,17
 271 -20 271 -20 194.5 42 c 128,-1,18
 118 104 118 104 118 188 c 2,19,-1
 118 626 l 2,20,21
 118 641 118 641 116 649 c 128,-1,22
 114 657 114 657 103 663.5 c 128,-1,23
 92 670 92 670 70 670 c 2,24,-1
 36 670 l 1,25,-1
 36 700 l 1,26,-1
 292 700 l 1,27,-1
 292 670 l 1,28,-1
 254 670 l 2,29,30
 232 670 232 670 221 663.5 c 128,-1,31
 210 657 210 657 208 649 c 128,-1,32
 206 641 206 641 206 626 c 2,33,-1
 206 274 l 2,34,35
 206 163 206 163 256.5 113.5 c 128,-1,36
 307 64 307 64 408 64 c 0,37,38
 455 64 455 64 494 80 c 128,-1,39
 533 96 533 96 556.5 118 c 128,-1,40
 580 140 580 140 597 184.5 c 128,-1,41
 614 229 614 229 614 288 c 2,0,-1
EndSplineSet
EndChar

StartChar: V
Encoding: 86 86 58
Width: 732
GlyphClass: 2
Flags: W
LayerCount: 2
Fore
SplineSet
362 -14 m 1,0,-1
 346 -20 l 1,1,-1
 100 626 l 2,2,3
 91 648 91 648 79.5 659 c 128,-1,4
 68 670 68 670 46 670 c 2,5,-1
 12 670 l 1,6,-1
 12 700 l 1,7,-1
 266 700 l 1,8,-1
 266 670 l 1,9,-1
 232 670 l 2,10,11
 190 670 190 670 190 644 c 0,12,13
 190 632 190 632 200 608 c 2,14,-1
 394 104 l 1,15,-1
 594 624 l 1,16,-1
 604 654 l 1,17,18
 604 664 604 664 592 667 c 128,-1,19
 580 670 580 670 544 670 c 2,20,-1
 522 670 l 1,21,-1
 522 700 l 1,22,-1
 720 700 l 1,23,-1
 720 670 l 1,24,-1
 708 670 l 2,25,26
 674 670 674 670 658.5 659 c 128,-1,27
 643 648 643 648 634 620 c 1,28,-1
 414 48 l 1,29,30
 378 22 378 22 362 -14 c 1,0,-1
EndSplineSet
EndChar

StartChar: W
Encoding: 87 87 59
Width: 1060
GlyphClass: 2
Flags: W
LayerCount: 2
Fore
SplineSet
718 -14 m 1,0,-1
 702 -20 l 1,1,-1
 536 458 l 1,2,-1
 394 48 l 1,3,-1
 342 -14 l 1,4,-1
 326 -20 l 1,5,-1
 102 626 l 1,6,7
 93 648 93 648 81.5 659 c 128,-1,8
 70 670 70 670 46 670 c 2,9,-1
 12 670 l 1,10,-1
 12 700 l 1,11,-1
 260 700 l 1,12,-1
 260 670 l 1,13,-1
 236 670 l 2,14,15
 192 670 192 670 192 644 c 0,16,17
 192 636 192 636 200 614 c 2,18,-1
 374 108 l 1,19,-1
 516 518 l 1,20,-1
 478 626 l 2,21,22
 466 658 466 658 457 664 c 128,-1,23
 448 670 448 670 432 670 c 2,24,-1
 424 670 l 1,25,-1
 424 700 l 1,26,-1
 648 700 l 1,27,-1
 648 670 l 1,28,-1
 612 670 l 2,29,30
 566 670 566 670 566 646 c 0,31,32
 566 634 566 634 574 614 c 2,33,-1
 750 108 l 1,34,-1
 922 602 l 1,35,36
 934 642 934 642 934 652.5 c 128,-1,37
 934 663 934 663 920.5 666.5 c 128,-1,38
 907 670 907 670 866 670 c 2,39,-1
 852 670 l 1,40,-1
 852 700 l 1,41,-1
 1048 700 l 1,42,-1
 1048 670 l 1,43,-1
 1030 670 l 2,44,45
 998 670 998 670 988 661 c 128,-1,46
 978 652 978 652 968 622 c 2,47,-1
 770 48 l 1,48,-1
 718 -14 l 1,0,-1
EndSplineSet
EndChar

StartChar: X
Encoding: 88 88 60
Width: 686
GlyphClass: 2
Flags: W
LayerCount: 2
Fore
SplineSet
670 0 m 1,0,-1
 442 0 l 1,1,-1
 442 28 l 1,2,-1
 452 28 l 2,3,4
 468 28 468 28 468 36.5 c 128,-1,5
 468 45 468 45 442 94 c 1,6,-1
 328 322 l 1,7,-1
 208 94 l 1,8,9
 184 46 184 46 184 40 c 0,10,11
 184 28 184 28 214 28 c 2,12,-1
 240 28 l 1,13,-1
 240 0 l 1,14,-1
 16 0 l 1,15,-1
 16 28 l 1,16,-1
 54 28 l 2,17,18
 124 28 124 28 164 102 c 2,19,-1
 304 360 l 1,20,-1
 170 600 l 1,21,22
 128 672 128 672 74 672 c 2,23,-1
 48 672 l 1,24,-1
 48 700 l 1,25,-1
 276 700 l 1,26,-1
 276 672 l 1,27,-1
 260 672 l 2,28,29
 246 672 246 672 246 663 c 128,-1,30
 246 654 246 654 260 626 c 2,31,-1
 358 440 l 1,32,-1
 436 590 l 1,33,34
 466 650 466 650 466 661 c 128,-1,35
 466 672 466 672 436 672 c 2,36,-1
 412 672 l 1,37,-1
 412 700 l 1,38,-1
 636 700 l 1,39,-1
 636 672 l 1,40,-1
 598 672 l 2,41,42
 526 672 526 672 486 598 c 1,43,-1
 384 402 l 1,44,-1
 542 106 l 2,45,46
 584 28 584 28 644 28 c 2,47,-1
 670 28 l 1,48,-1
 670 0 l 1,0,-1
EndSplineSet
EndChar

StartChar: Y
Encoding: 89 89 61
Width: 652
GlyphClass: 2
Flags: W
LayerCount: 2
Fore
SplineSet
468 0 m 1,0,-1
 214 0 l 1,1,-1
 214 28 l 1,2,-1
 246 28 l 2,3,4
 276 28 276 28 286 40 c 128,-1,5
 296 52 296 52 296 72 c 2,6,-1
 296 290 l 1,7,-1
 148 586 l 1,8,9
 107 672 107 672 42 672 c 2,10,-1
 20 672 l 1,11,-1
 20 700 l 1,12,-1
 246 700 l 1,13,-1
 246 672 l 1,14,-1
 234 672 l 2,15,16
 218 672 218 672 218 662 c 128,-1,17
 218 652 218 652 230 630 c 1,18,-1
 356 362 l 1,19,-1
 484 630 l 2,20,21
 496 654 496 654 496 660 c 0,22,23
 496 672 496 672 466 672 c 2,24,-1
 440 672 l 1,25,-1
 440 700 l 1,26,-1
 642 700 l 1,27,-1
 642 672 l 1,28,-1
 626 672 l 2,29,30
 551 672 551 672 518 602 c 1,31,-1
 382 330 l 1,32,-1
 382 72 l 2,33,34
 382 52 382 52 392 40 c 128,-1,35
 402 28 402 28 432 28 c 2,36,-1
 468 28 l 1,37,-1
 468 0 l 1,0,-1
EndSplineSet
EndChar

StartChar: Z
Encoding: 90 90 62
Width: 622
GlyphClass: 2
Flags: W
LayerCount: 2
Fore
SplineSet
570 0 m 1,0,-1
 18 0 l 1,1,-1
 20 24 l 1,2,-1
 444 658 l 1,3,-1
 162 658 l 2,4,5
 110 658 110 658 81 625 c 128,-1,6
 52 592 52 592 52 556 c 1,7,-1
 22 562 l 1,8,-1
 32 700 l 1,9,-1
 566 700 l 1,10,-1
 564 676 l 1,11,-1
 138 44 l 1,12,-1
 440 44 l 2,13,14
 493 44 493 44 533.5 77.5 c 128,-1,15
 574 111 574 111 576 144 c 1,16,-1
 604 138 l 1,17,-1
 570 0 l 1,0,-1
EndSplineSet
EndChar

StartChar: bracketleft
Encoding: 91 91 63
Width: 324
GlyphClass: 2
Flags: W
LayerCount: 2
Fore
SplineSet
274 -198 m 1,0,-1
 70 -198 l 1,1,-1
 70 760 l 1,2,-1
 270 760 l 1,3,-1
 266 740 l 1,4,5
 142 725 142 725 117 713 c 1,6,-1
 144 -154 l 1,7,8
 168 -166 168 -166 270 -178 c 1,9,-1
 274 -198 l 1,0,-1
EndSplineSet
EndChar

StartChar: backslash
Encoding: 92 92 64
Width: 388
GlyphClass: 2
Flags: W
LayerCount: 2
Fore
SplineSet
86 746 m 1,0,-1
 332 -234 l 1,1,-1
 282 -234 l 1,2,-1
 40 746 l 1,3,-1
 86 746 l 1,0,-1
EndSplineSet
EndChar

StartChar: bracketright
Encoding: 93 93 65
Width: 324
GlyphClass: 2
Flags: W
LayerCount: 2
Fore
SplineSet
254 -198 m 1,0,-1
 50 -198 l 1,1,-1
 54 -178 l 1,2,3
 156 -166 156 -166 180 -154 c 1,4,-1
 207 713 l 1,5,6
 182 725 182 725 58 740 c 1,7,-1
 54 760 l 1,8,-1
 254 760 l 1,9,-1
 254 -198 l 1,0,-1
EndSplineSet
EndChar

StartChar: asciicircum
Encoding: 94 94 66
Width: 832
GlyphClass: 2
Flags: W
LayerCount: 2
Fore
SplineSet
650 262 m 1,0,-1
 586 262 l 1,1,-1
 414 578 l 1,2,-1
 242 262 l 1,3,-1
 178 262 l 1,4,-1
 384 642 l 1,5,-1
 446 642 l 1,6,-1
 650 262 l 1,0,-1
EndSplineSet
EndChar

StartChar: underscore
Encoding: 95 95 67
Width: 500
GlyphClass: 2
Flags: W
LayerCount: 2
Fore
SplineSet
500 -124 m 1,0,-1
 0 -124 l 1,1,-1
 0 -76 l 1,2,-1
 500 -76 l 1,3,-1
 500 -124 l 1,0,-1
EndSplineSet
EndChar

StartChar: grave
Encoding: 96 96 68
Width: 298
GlyphClass: 2
Flags: W
LayerCount: 2
Fore
SplineSet
130 702 m 1,0,-1
 238 548 l 1,1,-1
 214 532 l 1,2,-1
 64 660 l 1,3,-1
 130 702 l 1,0,-1
EndSplineSet
EndChar

StartChar: a
Encoding: 97 97 69
Width: 510
GlyphClass: 2
Flags: W
LayerCount: 2
Fore
SplineSet
476 0 m 1,0,-1
 332 0 l 1,1,-1
 332 80 l 1,2,3
 282 26 282 26 249 6 c 128,-1,4
 216 -14 216 -14 159.5 -14 c 128,-1,5
 103 -14 103 -14 71.5 12.5 c 128,-1,6
 40 39 40 39 40 87 c 128,-1,7
 40 135 40 135 81.5 180.5 c 128,-1,8
 123 226 123 226 178.5 249.5 c 128,-1,9
 234 273 234 273 276 285.5 c 128,-1,10
 318 298 318 298 332 298 c 1,11,-1
 332 320 l 2,12,13
 332 414 332 414 254 414 c 0,14,15
 200 414 200 414 153.5 391 c 128,-1,16
 107 368 107 368 84 332 c 1,17,-1
 64 350 l 1,18,19
 131 480 131 480 296 480 c 0,20,21
 338 480 338 480 365.5 457.5 c 128,-1,22
 393 435 393 435 402.5 405 c 128,-1,23
 412 375 412 375 412 338 c 2,24,-1
 412 68 l 2,25,26
 412 55 412 55 414 48 c 128,-1,27
 416 41 416 41 426.5 34.5 c 128,-1,28
 437 28 437 28 458 28 c 2,29,-1
 476 28 l 1,30,-1
 476 0 l 1,0,-1
332 136 m 1,31,-1
 332 258 l 1,32,33
 254 243 254 243 187 198 c 128,-1,34
 120 153 120 153 120 100 c 0,35,36
 120 79 120 79 140.5 63.5 c 128,-1,37
 161 48 161 48 191.5 48 c 128,-1,38
 222 48 222 48 264 75.5 c 128,-1,39
 306 103 306 103 332 136 c 1,31,-1
EndSplineSet
EndChar

StartChar: b
Encoding: 98 98 70
Width: 532
GlyphClass: 2
Flags: W
LayerCount: 2
Fore
SplineSet
88 48 m 1,0,-1
 88 660 l 2,1,2
 88 679 88 679 75.5 687.5 c 128,-1,3
 63 696 63 696 30 696 c 1,4,-1
 30 724 l 1,5,6
 52 724 52 724 92.5 735 c 128,-1,7
 133 746 133 746 152 758 c 1,8,-1
 170 762 l 1,9,-1
 170 348 l 1,10,11
 190 406 190 406 237 443 c 128,-1,12
 284 480 284 480 353.5 480 c 128,-1,13
 423 480 423 480 463.5 434.5 c 128,-1,14
 504 389 504 389 504 312 c 0,15,16
 504 171 504 171 430 78.5 c 128,-1,17
 356 -14 356 -14 248 -14 c 0,18,19
 210 -14 210 -14 160.5 9 c 128,-1,20
 111 32 111 32 88 48 c 1,0,-1
170 268 m 2,21,-1
 170 90 l 1,22,23
 179 72 179 72 198 57 c 0,24,25
 234 30 234 30 266 30 c 0,26,27
 338 30 338 30 387 99.5 c 128,-1,28
 436 169 436 169 436 274 c 0,29,30
 436 334 436 334 400.5 373 c 128,-1,31
 365 412 365 412 310.5 412 c 128,-1,32
 256 412 256 412 213 351.5 c 128,-1,33
 170 291 170 291 170 268 c 2,21,-1
EndSplineSet
EndChar

StartChar: c
Encoding: 99 99 71
Width: 470
GlyphClass: 2
Flags: W
LayerCount: 2
Fore
SplineSet
426 122 m 1,0,-1
 444 104 l 1,1,2
 380 -14 380 -14 214 -14 c 0,3,4
 137 -14 137 -14 82.5 54 c 128,-1,5
 28 122 28 122 28 206 c 0,6,7
 28 260 28 260 54.5 314.5 c 128,-1,8
 81 369 81 369 109.5 401.5 c 128,-1,9
 138 434 138 434 187.5 457 c 128,-1,10
 237 480 237 480 292 480 c 128,-1,11
 347 480 347 480 406 458 c 1,12,-1
 400 366 l 1,13,-1
 370 366 l 1,14,15
 370 392 370 392 337.5 409 c 128,-1,16
 305 426 305 426 265 426 c 128,-1,17
 225 426 225 426 193 413.5 c 128,-1,18
 161 401 161 401 144.5 383 c 128,-1,19
 128 365 128 365 118 340 c 0,20,21
 102 303 102 303 102 258 c 0,22,23
 102 180 102 180 151 114 c 128,-1,24
 200 48 200 48 270 48 c 0,25,26
 320 48 320 48 362.5 68.5 c 128,-1,27
 405 89 405 89 426 122 c 1,0,-1
EndSplineSet
EndChar

StartChar: d
Encoding: 100 100 72
Width: 546
GlyphClass: 2
Flags: W
LayerCount: 2
Fore
SplineSet
506 0 m 1,0,-1
 362 0 l 1,1,-1
 362 116 l 1,2,3
 341 59 341 59 294 22.5 c 128,-1,4
 247 -14 247 -14 177.5 -14 c 128,-1,5
 108 -14 108 -14 68 31 c 128,-1,6
 28 76 28 76 28 152 c 0,7,8
 28 293 28 293 101.5 386.5 c 128,-1,9
 175 480 175 480 282 480 c 0,10,11
 306 480 306 480 362 460 c 1,12,-1
 362 660 l 2,13,14
 362 679 362 679 349 687.5 c 128,-1,15
 336 696 336 696 304 696 c 1,16,-1
 304 724 l 1,17,18
 325 724 325 724 366 735 c 128,-1,19
 407 746 407 746 424 758 c 1,20,-1
 442 762 l 1,21,-1
 442 68 l 2,22,23
 442 49 442 49 449.5 40.5 c 128,-1,24
 457 32 457 32 486 32 c 2,25,-1
 506 32 l 1,26,-1
 506 0 l 1,0,-1
362 198 m 2,27,-1
 362 376 l 1,28,29
 358 382 358 382 350 392 c 128,-1,30
 342 402 342 402 316.5 418 c 128,-1,31
 291 434 291 434 264 434 c 0,32,33
 191 434 191 434 142.5 365 c 128,-1,34
 94 296 94 296 94 190 c 0,35,36
 94 131 94 131 129.5 92.5 c 128,-1,37
 165 54 165 54 220.5 54 c 128,-1,38
 276 54 276 54 319 114.5 c 128,-1,39
 362 175 362 175 362 198 c 2,27,-1
EndSplineSet
EndChar

StartChar: e
Encoding: 101 101 73
Width: 482
GlyphClass: 2
Flags: W
LayerCount: 2
Fore
SplineSet
426 122 m 1,0,-1
 444 104 l 1,1,2
 380 -14 380 -14 214 -14 c 0,3,4
 137 -14 137 -14 82.5 54 c 128,-1,5
 28 122 28 122 28 206 c 0,6,7
 28 319 28 319 101.5 399.5 c 128,-1,8
 175 480 175 480 280 480 c 0,9,10
 330 480 330 480 368 451 c 0,11,12
 436 398 436 398 436 314 c 0,13,14
 436 302 436 302 431.5 285 c 128,-1,15
 427 268 427 268 424 268 c 2,16,-1
 102 258 l 1,17,18
 102 180 102 180 151 114 c 128,-1,19
 200 48 200 48 270 48 c 0,20,21
 320 48 320 48 362.5 68.5 c 128,-1,22
 405 89 405 89 426 122 c 1,0,-1
112 298 m 1,23,-1
 346 308 l 2,24,25
 348 308 348 308 348 326 c 0,26,27
 348 378 348 378 317.5 400 c 128,-1,28
 287 422 287 422 233.5 422 c 128,-1,29
 180 422 180 422 146 389 c 128,-1,30
 112 356 112 356 112 298 c 1,23,-1
EndSplineSet
EndChar

StartChar: f
Encoding: 102 102 74
Width: 344
GlyphClass: 2
Flags: W
LayerCount: 2
Fore
SplineSet
312 772 m 0,0,1
 350 772 350 772 398 748 c 1,2,-1
 390 658 l 1,3,-1
 362 660 l 1,4,5
 362 680 362 680 342 706 c 128,-1,6
 322 732 322 732 290 732 c 0,7,8
 236 732 236 732 209 679 c 128,-1,9
 182 626 182 626 182 508 c 0,10,11
 182 468 182 468 222 468 c 2,12,-1
 320 468 l 1,13,-1
 320 426 l 1,14,-1
 184 426 l 1,15,-1
 184 74 l 2,16,17
 184 58 184 58 185.5 50.5 c 128,-1,18
 187 43 187 43 197 35.5 c 128,-1,19
 207 28 207 28 228 28 c 2,20,-1
 260 28 l 1,21,-1
 260 0 l 1,22,-1
 44 0 l 1,23,-1
 44 28 l 1,24,-1
 56 28 l 2,25,26
 78 28 78 28 88.5 35.5 c 128,-1,27
 99 43 99 43 100.5 50.5 c 128,-1,28
 102 58 102 58 102 74 c 2,29,-1
 102 390 l 2,30,31
 102 409 102 409 95 417.5 c 128,-1,32
 88 426 88 426 66 426 c 2,33,-1
 44 426 l 1,34,-1
 44 468 l 1,35,-1
 102 468 l 1,36,-1
 102 512 l 2,37,38
 102 772 102 772 312 772 c 0,0,1
EndSplineSet
EndChar

StartChar: g
Encoding: 103 103 75
Width: 494
GlyphClass: 2
Flags: W
LayerCount: 2
Fore
SplineSet
184 52 m 1,0,-1
 284 56 l 1,1,2
 398 56 398 56 442 31.5 c 128,-1,3
 486 7 486 7 486 -47 c 128,-1,4
 486 -101 486 -101 455 -141 c 128,-1,5
 424 -181 424 -181 374 -204 c 0,6,7
 275 -248 275 -248 162 -248 c 0,8,9
 96 -248 96 -248 55 -216.5 c 128,-1,10
 14 -185 14 -185 14 -138 c 0,11,12
 14 -28 14 -28 108 4 c 1,13,14
 85 4 85 4 70.5 14 c 128,-1,15
 56 24 56 24 56 36.5 c 128,-1,16
 56 49 56 49 60 61 c 128,-1,17
 64 73 64 73 73 85.5 c 128,-1,18
 82 98 82 98 88.5 105.5 c 128,-1,19
 95 113 95 113 110 128 c 2,20,-1
 130 148 l 1,21,22
 76 196 76 196 76 278.5 c 128,-1,23
 76 361 76 361 138 421.5 c 128,-1,24
 200 482 200 482 274 482 c 0,25,26
 320 482 320 482 356 456 c 1,27,28
 398 504 398 504 496 504 c 1,29,-1
 486 418 l 1,30,31
 480 427 480 427 465 435.5 c 128,-1,32
 450 444 450 444 442 444 c 0,33,34
 415 444 415 444 386 426 c 1,35,36
 424 382 424 382 424 320 c 0,37,38
 424 242 424 242 364 181 c 128,-1,39
 304 120 304 120 228 120 c 0,40,41
 189 120 189 120 164 134 c 1,42,43
 122 84 122 84 122 72 c 0,44,45
 122 52 122 52 184 52 c 1,0,-1
234 2 m 2,46,-1
 164 2 l 1,47,48
 133 -17 133 -17 123 -27 c 128,-1,49
 113 -37 113 -37 106 -46 c 128,-1,50
 99 -55 99 -55 94 -64 c 0,51,52
 84 -85 84 -85 84 -111 c 128,-1,53
 84 -137 84 -137 108 -156 c 1,54,55
 149 -186 149 -186 222.5 -186 c 128,-1,56
 296 -186 296 -186 359 -161 c 128,-1,57
 422 -136 422 -136 422 -92 c 128,-1,58
 422 -48 422 -48 371 -23 c 128,-1,59
 320 2 320 2 234 2 c 2,46,-1
177.5 219 m 128,-1,61
 215 178 215 178 262 178 c 128,-1,62
 309 178 309 178 334.5 207.5 c 128,-1,63
 360 237 360 237 360 286.5 c 128,-1,64
 360 336 360 336 323.5 380 c 128,-1,65
 287 424 287 424 238 424 c 128,-1,66
 189 424 189 424 164.5 395.5 c 128,-1,67
 140 367 140 367 140 313.5 c 128,-1,60
 140 260 140 260 177.5 219 c 128,-1,61
EndSplineSet
EndChar

StartChar: h
Encoding: 104 104 76
Width: 578
GlyphClass: 2
Flags: W
LayerCount: 2
Fore
SplineSet
546 0 m 1,0,-1
 372 0 l 1,1,-1
 372 28 l 1,2,-1
 378 28 l 2,3,4
 388 28 388 28 395 38.5 c 128,-1,5
 402 49 402 49 402 66 c 2,6,-1
 402 320 l 2,7,8
 402 412 402 412 322 412 c 0,9,10
 265 412 265 412 221.5 352 c 128,-1,11
 178 292 178 292 178 262 c 2,12,-1
 178 72 l 2,13,14
 178 57 178 57 180 49 c 0,15,16
 185 28 185 28 222 28 c 2,17,-1
 242 28 l 1,18,-1
 242 0 l 1,19,-1
 40 0 l 1,20,-1
 40 28 l 1,21,-1
 54 28 l 2,22,23
 81 28 81 28 89.5 37.5 c 128,-1,24
 98 47 98 47 98 66 c 2,25,-1
 98 660 l 2,26,27
 98 679 98 679 85 687.5 c 128,-1,28
 72 696 72 696 40 696 c 1,29,-1
 40 724 l 1,30,31
 61 724 61 724 102 735 c 128,-1,32
 143 746 143 746 160 758 c 1,33,-1
 178 762 l 1,34,-1
 178 348 l 1,35,36
 230 480 230 480 366 480 c 0,37,38
 402 480 402 480 427.5 464 c 128,-1,39
 453 448 453 448 464 423 c 0,40,41
 484 381 484 381 484 338 c 2,42,-1
 484 68 l 2,43,44
 484 54 484 54 486 47 c 0,45,46
 490 28 490 28 526 28 c 2,47,-1
 546 28 l 1,48,-1
 546 0 l 1,0,-1
EndSplineSet
EndChar

StartChar: i
Encoding: 105 105 77
Width: 282
GlyphClass: 2
Flags: W
LayerCount: 2
Fore
SplineSet
171.5 681 m 128,-1,1
 184 666 184 666 184 642.5 c 128,-1,2
 184 619 184 619 165 603.5 c 128,-1,3
 146 588 146 588 123.5 588 c 128,-1,4
 101 588 101 588 88.5 603 c 128,-1,5
 76 618 76 618 76 640.5 c 128,-1,6
 76 663 76 663 95 679.5 c 128,-1,7
 114 696 114 696 136.5 696 c 128,-1,0
 159 696 159 696 171.5 681 c 128,-1,1
246 0 m 1,8,-1
 44 0 l 1,9,-1
 44 28 l 1,10,-1
 60 28 l 2,11,12
 87 28 87 28 94.5 37 c 128,-1,13
 102 46 102 46 102 66 c 2,14,-1
 102 366 l 2,15,16
 102 385 102 385 89.5 393.5 c 128,-1,17
 77 402 77 402 44 402 c 1,18,-1
 44 430 l 1,19,20
 64 430 64 430 104.5 444.5 c 128,-1,21
 145 459 145 459 166 472 c 1,22,-1
 184 476 l 1,23,-1
 184 72 l 2,24,25
 184 56 184 56 185.5 49 c 128,-1,26
 187 42 187 42 197 35 c 128,-1,27
 207 28 207 28 228 28 c 2,28,-1
 246 28 l 1,29,-1
 246 0 l 1,8,-1
EndSplineSet
EndChar

StartChar: j
Encoding: 106 106 78
Width: 252
GlyphClass: 2
Flags: W
LayerCount: 2
Fore
SplineSet
154.5 681 m 128,-1,1
 167 666 167 666 167 642.5 c 128,-1,2
 167 619 167 619 148 603.5 c 128,-1,3
 129 588 129 588 106.5 588 c 128,-1,4
 84 588 84 588 71.5 603 c 128,-1,5
 59 618 59 618 59 640.5 c 128,-1,6
 59 663 59 663 78 679.5 c 128,-1,7
 97 696 97 696 119.5 696 c 128,-1,0
 142 696 142 696 154.5 681 c 128,-1,1
11 -240 m 1,8,-1
 -5 -214 l 1,9,10
 39 -187 39 -187 62 -152 c 128,-1,11
 85 -117 85 -117 85 -60 c 2,12,-1
 85 366 l 2,13,14
 85 385 85 385 72.5 393.5 c 128,-1,15
 60 402 60 402 27 402 c 1,16,-1
 27 430 l 1,17,18
 47 430 47 430 87.5 444.5 c 128,-1,19
 128 459 128 459 149 472 c 1,20,-1
 167 476 l 1,21,-1
 167 -22 l 2,22,23
 167 -100 167 -100 123.5 -158.5 c 128,-1,24
 80 -217 80 -217 11 -240 c 1,8,-1
EndSplineSet
EndChar

StartChar: k
Encoding: 107 107 79
Width: 542
GlyphClass: 2
Flags: W
LayerCount: 2
Fore
SplineSet
560 0 m 1,0,-1
 436 0 l 1,1,-1
 220 266 l 1,2,-1
 180 232 l 1,3,-1
 180 72 l 2,4,5
 180 56 180 56 181.5 49 c 128,-1,6
 183 42 183 42 193.5 35 c 128,-1,7
 204 28 204 28 226 28 c 2,8,-1
 244 28 l 1,9,-1
 244 0 l 1,10,-1
 42 0 l 1,11,-1
 42 28 l 1,12,-1
 54 28 l 2,13,14
 76 28 76 28 86.5 35 c 128,-1,15
 97 42 97 42 98.5 49 c 128,-1,16
 100 56 100 56 100 72 c 2,17,-1
 100 660 l 2,18,19
 100 679 100 679 86.5 687.5 c 128,-1,20
 73 696 73 696 40 696 c 1,21,-1
 40 724 l 1,22,23
 62 724 62 724 103.5 735 c 128,-1,24
 145 746 145 746 164 758 c 1,25,-1
 180 762 l 1,26,-1
 180 290 l 1,27,-1
 330 410 l 2,28,29
 346 423 346 423 346 428 c 0,30,31
 346 436 346 436 322 436 c 2,32,-1
 314 436 l 1,33,-1
 314 466 l 1,34,-1
 482 466 l 1,35,-1
 482 436 l 1,36,-1
 472 436 l 2,37,38
 434 436 434 436 410 416 c 2,39,-1
 286 314 l 1,40,-1
 482 72 l 1,41,42
 515 28 515 28 538 28 c 2,43,-1
 560 28 l 1,44,-1
 560 0 l 1,0,-1
EndSplineSet
EndChar

StartChar: l
Encoding: 108 108 80
Width: 278
GlyphClass: 2
Flags: W
LayerCount: 2
Fore
SplineSet
238 0 m 1,0,-1
 38 0 l 1,1,-1
 38 28 l 1,2,-1
 52 28 l 2,3,4
 74 28 74 28 84 37.5 c 128,-1,5
 94 47 94 47 94 70 c 2,6,-1
 94 660 l 2,7,8
 94 679 94 679 81 687.5 c 128,-1,9
 68 696 68 696 36 696 c 1,10,-1
 36 724 l 1,11,12
 56 724 56 724 97.5 735 c 128,-1,13
 139 746 139 746 158 758 c 1,14,-1
 176 762 l 1,15,-1
 176 72 l 2,16,17
 176 56 176 56 177.5 49 c 128,-1,18
 179 42 179 42 189 35 c 128,-1,19
 199 28 199 28 220 28 c 2,20,-1
 238 28 l 1,21,-1
 238 0 l 1,0,-1
EndSplineSet
EndChar

StartChar: m
Encoding: 109 109 81
Width: 870
GlyphClass: 2
Flags: W
LayerCount: 2
Fore
SplineSet
836 0 m 1,0,-1
 662 0 l 1,1,-1
 662 28 l 1,2,-1
 666 28 l 2,3,4
 677 28 677 28 684.5 39 c 128,-1,5
 692 50 692 50 692 66 c 2,6,-1
 692 320 l 2,7,8
 692 360 692 360 672.5 386 c 128,-1,9
 653 412 653 412 622.5 412 c 128,-1,10
 592 412 592 412 566.5 398 c 128,-1,11
 541 384 541 384 525.5 364 c 128,-1,12
 510 344 510 344 498 322 c 0,13,14
 478 283 478 283 478 264 c 2,15,-1
 478 68 l 2,16,17
 478 28 478 28 522 28 c 2,18,-1
 540 28 l 1,19,-1
 540 0 l 1,20,-1
 366 0 l 1,21,-1
 366 28 l 1,22,-1
 372 28 l 2,23,24
 381 28 381 28 388.5 39 c 128,-1,25
 396 50 396 50 396 66 c 2,26,-1
 396 320 l 2,27,28
 396 360 396 360 377 386 c 128,-1,29
 358 412 358 412 325.5 412 c 128,-1,30
 293 412 293 412 264 391 c 128,-1,31
 235 370 235 370 218 342 c 0,32,33
 184 285 184 285 184 262 c 2,34,-1
 184 72 l 2,35,36
 184 56 184 56 185.5 49 c 128,-1,37
 187 42 187 42 197 35 c 128,-1,38
 207 28 207 28 228 28 c 2,39,-1
 246 28 l 1,40,-1
 246 0 l 1,41,-1
 44 0 l 1,42,-1
 44 28 l 1,43,-1
 60 28 l 2,44,45
 87 28 87 28 94.5 37 c 128,-1,46
 102 46 102 46 102 66 c 2,47,-1
 102 366 l 2,48,49
 102 385 102 385 89.5 393.5 c 128,-1,50
 77 402 77 402 44 402 c 1,51,-1
 44 430 l 1,52,53
 64 430 64 430 104.5 444.5 c 128,-1,54
 145 459 145 459 166 472 c 1,55,-1
 184 476 l 1,56,-1
 184 348 l 1,57,58
 213 416 213 416 253.5 448 c 128,-1,59
 294 480 294 480 364 480 c 0,60,61
 396 480 396 480 420 466.5 c 128,-1,62
 444 453 444 453 456 431 c 0,63,64
 476 392 476 392 478 348 c 1,65,66
 501 415 501 415 543 447.5 c 128,-1,67
 585 480 585 480 656 480 c 0,68,69
 692 480 692 480 717 464 c 128,-1,70
 742 448 742 448 753 423 c 0,71,72
 772 380 772 380 772 338 c 2,73,-1
 772 68 l 2,74,75
 772 54 772 54 774 47 c 0,76,77
 779 28 779 28 816 28 c 2,78,-1
 836 28 l 1,79,-1
 836 0 l 1,0,-1
EndSplineSet
EndChar

StartChar: n
Encoding: 110 110 82
Width: 586
GlyphClass: 2
Flags: W
LayerCount: 2
Fore
SplineSet
550 0 m 1,0,-1
 378 0 l 1,1,-1
 378 28 l 1,2,-1
 382 28 l 2,3,4
 393 28 393 28 400.5 39 c 128,-1,5
 408 50 408 50 408 66 c 2,6,-1
 408 320 l 2,7,8
 408 365 408 365 386.5 388.5 c 128,-1,9
 365 412 365 412 326 412 c 0,10,11
 270 412 270 412 227 352 c 128,-1,12
 184 292 184 292 184 262 c 2,13,-1
 184 72 l 2,14,15
 184 56 184 56 185.5 49 c 128,-1,16
 187 42 187 42 197 35 c 128,-1,17
 207 28 207 28 228 28 c 2,18,-1
 246 28 l 1,19,-1
 246 0 l 1,20,-1
 44 0 l 1,21,-1
 44 28 l 1,22,-1
 60 28 l 2,23,24
 87 28 87 28 94.5 37 c 128,-1,25
 102 46 102 46 102 66 c 2,26,-1
 102 366 l 2,27,28
 102 385 102 385 89.5 393.5 c 128,-1,29
 77 402 77 402 44 402 c 1,30,-1
 44 430 l 1,31,32
 64 430 64 430 104.5 444.5 c 128,-1,33
 145 459 145 459 166 472 c 1,34,-1
 184 476 l 1,35,-1
 184 348 l 1,36,37
 207 411 207 411 255 445.5 c 128,-1,38
 303 480 303 480 372 480 c 0,39,40
 408 480 408 480 433 464 c 128,-1,41
 458 448 458 448 469 423 c 0,42,43
 488 380 488 380 488 338 c 2,44,-1
 488 68 l 2,45,46
 488 54 488 54 490 47 c 0,47,48
 495 28 495 28 532 28 c 2,49,-1
 550 28 l 1,50,-1
 550 0 l 1,0,-1
EndSplineSet
EndChar

StartChar: o
Encoding: 111 111 83
Width: 528
GlyphClass: 2
Flags: W
LayerCount: 2
Fore
SplineSet
234 -14 m 0,0,1
 146 -14 146 -14 87 52 c 128,-1,2
 28 118 28 118 28 206 c 0,3,4
 28 318 28 318 112.5 399 c 128,-1,5
 197 480 197 480 291 480 c 128,-1,6
 385 480 385 480 442.5 413.5 c 128,-1,7
 500 347 500 347 500 260 c 0,8,9
 500 151 500 151 419.5 68.5 c 128,-1,10
 339 -14 339 -14 234 -14 c 0,0,1
154.5 105.5 m 128,-1,12
 211 44 211 44 281.5 44 c 128,-1,13
 352 44 352 44 392 97 c 128,-1,14
 432 150 432 150 432 206 c 0,15,16
 432 291 432 291 379.5 354.5 c 128,-1,17
 327 418 327 418 252 418 c 128,-1,18
 177 418 177 418 137.5 367.5 c 128,-1,19
 98 317 98 317 98 260 c 0,20,11
 98 167 98 167 154.5 105.5 c 128,-1,12
EndSplineSet
EndChar

StartChar: p
Encoding: 112 112 84
Width: 542
GlyphClass: 2
Flags: W
LayerCount: 2
Fore
SplineSet
242 -234 m 1,0,-1
 40 -234 l 1,1,-1
 40 -204 l 1,2,-1
 52 -204 l 2,3,4
 74 -204 74 -204 84.5 -197 c 128,-1,5
 95 -190 95 -190 96.5 -183 c 128,-1,6
 98 -176 98 -176 98 -160 c 2,7,-1
 98 358 l 2,8,9
 98 404 98 404 40 404 c 1,10,-1
 40 430 l 1,11,12
 59 430 59 430 100 445.5 c 128,-1,13
 141 461 141 461 160 474 c 1,14,-1
 178 476 l 1,15,-1
 178 350 l 1,16,17
 199 407 199 407 246 443.5 c 128,-1,18
 293 480 293 480 362 480 c 128,-1,19
 431 480 431 480 471.5 435 c 128,-1,20
 512 390 512 390 512 314 c 0,21,22
 512 173 512 173 438 79.5 c 128,-1,23
 364 -14 364 -14 258 -14 c 0,24,25
 221 -14 221 -14 178 6 c 1,26,-1
 178 -164 l 2,27,28
 178 -178 178 -178 180 -185 c 0,29,30
 185 -204 185 -204 222 -204 c 2,31,-1
 242 -204 l 1,32,-1
 242 -234 l 1,0,-1
178 268 m 2,33,-1
 178 90 l 1,34,35
 182 84 182 84 190 74 c 128,-1,36
 198 64 198 64 223.5 48 c 128,-1,37
 249 32 249 32 276 32 c 0,38,39
 349 32 349 32 397.5 101 c 128,-1,40
 446 170 446 170 446 276 c 0,41,42
 446 335 446 335 409.5 373.5 c 128,-1,43
 373 412 373 412 318.5 412 c 128,-1,44
 264 412 264 412 221 351.5 c 128,-1,45
 178 291 178 291 178 268 c 2,33,-1
EndSplineSet
EndChar

StartChar: q
Encoding: 113 113 85
Width: 538
GlyphClass: 2
Flags: W
LayerCount: 2
Fore
SplineSet
500 -234 m 1,0,-1
 300 -234 l 1,1,-1
 300 -204 l 1,2,-1
 318 -204 l 2,3,4
 347 -204 347 -204 354.5 -194 c 128,-1,5
 362 -184 362 -184 362 -160 c 2,6,-1
 362 120 l 1,7,8
 341 62 341 62 293.5 25 c 128,-1,9
 246 -12 246 -12 177.5 -12 c 128,-1,10
 109 -12 109 -12 68.5 33.5 c 128,-1,11
 28 79 28 79 28 156 c 0,12,13
 28 297 28 297 102 389.5 c 128,-1,14
 176 482 176 482 282 482 c 0,15,16
 324 482 324 482 388 450 c 1,17,18
 398 450 398 450 410 466 c 1,19,-1
 442 472 l 1,20,-1
 442 -160 l 2,21,22
 442 -183 442 -183 450.5 -193.5 c 128,-1,23
 459 -204 459 -204 488 -204 c 2,24,-1
 500 -204 l 1,25,-1
 500 -234 l 1,0,-1
362 200 m 2,26,-1
 362 378 l 1,27,28
 360 380 360 380 357.5 384.5 c 128,-1,29
 355 389 355 389 345 399 c 128,-1,30
 335 409 335 409 324 417 c 0,31,32
 297 438 297 438 264 438 c 0,33,34
 192 438 192 438 143 368.5 c 128,-1,35
 94 299 94 299 94 194 c 0,36,37
 94 134 94 134 130 95 c 128,-1,38
 166 56 166 56 221 56 c 128,-1,39
 276 56 276 56 319 116.5 c 128,-1,40
 362 177 362 177 362 200 c 2,26,-1
EndSplineSet
EndChar

StartChar: r
Encoding: 114 114 86
Width: 402
GlyphClass: 2
Flags: W
LayerCount: 2
Fore
SplineSet
260 0 m 1,0,-1
 44 0 l 1,1,-1
 44 28 l 1,2,-1
 60 28 l 2,3,4
 87 28 87 28 94.5 37 c 128,-1,5
 102 46 102 46 102 66 c 2,6,-1
 102 366 l 2,7,8
 102 385 102 385 89.5 393.5 c 128,-1,9
 77 402 77 402 44 402 c 1,10,-1
 44 430 l 1,11,12
 64 430 64 430 104.5 444.5 c 128,-1,13
 145 459 145 459 166 472 c 1,14,-1
 184 476 l 1,15,-1
 184 352 l 1,16,17
 220 431 220 431 266 456.5 c 128,-1,18
 312 482 312 482 402 482 c 1,19,-1
 396 366 l 1,20,-1
 366 366 l 1,21,22
 366 380 366 380 355.5 393 c 128,-1,23
 345 406 345 406 322 406 c 0,24,25
 272 406 272 406 228 352 c 128,-1,26
 184 298 184 298 184 248 c 2,27,-1
 184 72 l 2,28,29
 184 56 184 56 185.5 49 c 128,-1,30
 187 42 187 42 197 35 c 128,-1,31
 207 28 207 28 228 28 c 2,32,-1
 260 28 l 1,33,-1
 260 0 l 1,0,-1
EndSplineSet
EndChar

StartChar: s
Encoding: 115 115 87
Width: 430
GlyphClass: 2
Flags: W
LayerCount: 2
Fore
SplineSet
44 28 m 1,0,-1
 54 136 l 1,1,-1
 82 134 l 1,2,3
 82 100 82 100 126 69 c 128,-1,4
 170 38 170 38 221 38 c 0,5,6
 326 38 326 38 326 102 c 0,7,8
 326 134 326 134 299 159 c 128,-1,9
 272 184 272 184 234 200.5 c 128,-1,10
 196 217 196 217 158 234.5 c 128,-1,11
 120 252 120 252 93 280.5 c 128,-1,12
 66 309 66 309 66 346 c 0,13,14
 66 476 66 476 258 476 c 0,15,16
 301 476 301 476 352 452 c 1,17,-1
 346 352 l 1,18,-1
 322 352 l 1,19,20
 322 380 322 380 289.5 406 c 128,-1,21
 257 432 257 432 219 432 c 128,-1,22
 181 432 181 432 154.5 417 c 128,-1,23
 128 402 128 402 128 372.5 c 128,-1,24
 128 343 128 343 155 324 c 128,-1,25
 182 305 182 305 220 293 c 128,-1,26
 258 281 258 281 296 266 c 128,-1,27
 334 251 334 251 361 217 c 128,-1,28
 388 183 388 183 388 132 c 128,-1,29
 388 81 388 81 355 47 c 0,30,31
 296 -14 296 -14 184 -14 c 0,32,33
 97 -14 97 -14 44 28 c 1,0,-1
EndSplineSet
EndChar

StartChar: t
Encoding: 116 116 88
Width: 338
GlyphClass: 2
Flags: W
LayerCount: 2
Fore
SplineSet
326 62 m 1,0,-1
 334 38 l 1,1,2
 259 -14 259 -14 170 -14 c 0,3,4
 138 -14 138 -14 115 9 c 128,-1,5
 92 32 92 32 92 70 c 2,6,-1
 92 424 l 1,7,-1
 34 424 l 1,8,-1
 34 466 l 1,9,-1
 56 466 l 2,10,11
 89 466 89 466 117.5 506 c 128,-1,12
 146 546 146 546 146 580 c 1,13,-1
 172 580 l 1,14,-1
 172 466 l 1,15,-1
 308 466 l 1,16,-1
 308 424 l 1,17,-1
 210 424 l 2,18,19
 172 424 172 424 172 388 c 2,20,-1
 172 102 l 2,21,22
 172 36 172 36 220 36 c 0,23,24
 274 36 274 36 326 62 c 1,0,-1
EndSplineSet
EndChar

StartChar: u
Encoding: 117 117 89
Width: 570
GlyphClass: 2
Flags: W
LayerCount: 2
Fore
SplineSet
536 0 m 1,0,-1
 392 0 l 1,1,-1
 392 118 l 1,2,3
 369 55 369 55 321 20.5 c 128,-1,4
 273 -14 273 -14 204 -14 c 0,5,6
 168 -14 168 -14 143 2 c 128,-1,7
 118 18 118 18 107 43 c 0,8,9
 88 86 88 86 88 128 c 2,10,-1
 88 366 l 2,11,12
 88 412 88 412 30 412 c 1,13,-1
 30 440 l 1,14,15
 50 440 50 440 90.5 451 c 128,-1,16
 131 462 131 462 150 474 c 1,17,-1
 168 476 l 1,18,-1
 168 146 l 2,19,20
 168 101 168 101 189.5 77.5 c 128,-1,21
 211 54 211 54 250 54 c 0,22,23
 306 54 306 54 349 114 c 128,-1,24
 392 174 392 174 392 204 c 2,25,-1
 392 366 l 2,26,27
 392 412 392 412 334 412 c 1,28,-1
 334 440 l 1,29,30
 356 440 356 440 396.5 451 c 128,-1,31
 437 462 437 462 456 474 c 1,32,-1
 474 476 l 1,33,-1
 474 68 l 2,34,35
 474 54 474 54 476 47 c 0,36,37
 481 28 481 28 518 28 c 2,38,-1
 536 28 l 1,39,-1
 536 0 l 1,0,-1
EndSplineSet
EndChar

StartChar: v
Encoding: 118 118 90
Width: 502
GlyphClass: 2
Flags: W
LayerCount: 2
Fore
SplineSet
220 -14 m 1,0,-1
 68 392 l 2,1,2
 59 415 59 415 48.5 425.5 c 128,-1,3
 38 436 38 436 16 436 c 2,4,-1
 2 436 l 1,5,-1
 2 466 l 1,6,-1
 188 466 l 1,7,-1
 186 436 l 1,8,-1
 176 436 l 2,9,10
 146 436 146 436 146 418 c 0,11,12
 146 406 146 406 148 402 c 2,13,-1
 260 108 l 1,14,-1
 374 396 l 1,15,16
 382 412 382 412 382 421 c 128,-1,17
 382 430 382 430 371.5 433 c 128,-1,18
 361 436 361 436 324 436 c 2,19,-1
 312 436 l 1,20,-1
 312 466 l 1,21,-1
 500 466 l 1,22,-1
 500 436 l 1,23,-1
 492 436 l 2,24,25
 460 436 460 436 446.5 426 c 128,-1,26
 433 416 433 416 422 388 c 2,27,-1
 290 50 l 1,28,29
 282 50 282 50 259 23.5 c 128,-1,30
 236 -3 236 -3 236 -10 c 1,31,-1
 220 -14 l 1,0,-1
EndSplineSet
EndChar

StartChar: w
Encoding: 119 119 91
Width: 726
GlyphClass: 2
Flags: W
LayerCount: 2
Fore
SplineSet
476 -10 m 1,0,-1
 458 -14 l 1,1,-1
 358 278 l 1,2,-1
 280 50 l 1,3,4
 270 47 270 47 249 21 c 128,-1,5
 228 -5 228 -5 228 -10 c 1,6,-1
 210 -14 l 1,7,-1
 68 392 l 2,8,9
 59 415 59 415 48.5 425.5 c 128,-1,10
 38 436 38 436 16 436 c 2,11,-1
 2 436 l 1,12,-1
 2 466 l 1,13,-1
 190 466 l 1,14,-1
 188 436 l 1,15,16
 148 436 148 436 148 412 c 0,17,18
 148 404 148 404 156 380 c 2,19,-1
 252 108 l 1,20,-1
 334 346 l 1,21,-1
 316 392 l 2,22,23
 299 436 299 436 272 436 c 1,24,-1
 272 466 l 1,25,-1
 450 466 l 1,26,-1
 450 436 l 1,27,-1
 442 436 l 2,28,29
 398 436 398 436 398 412 c 0,30,31
 398 408 398 408 404 390 c 2,32,-1
 500 108 l 1,33,-1
 598 394 l 1,34,35
 606 413 606 413 606 421.5 c 128,-1,36
 606 430 606 430 595.5 433 c 128,-1,37
 585 436 585 436 548 436 c 2,38,-1
 536 436 l 1,39,-1
 536 466 l 1,40,-1
 724 466 l 1,41,-1
 724 436 l 1,42,-1
 714 436 l 2,43,44
 681 436 681 436 668 426 c 128,-1,45
 655 416 655 416 646 388 c 2,46,-1
 530 50 l 1,47,48
 521 50 521 50 498.5 22.5 c 128,-1,49
 476 -5 476 -5 476 -10 c 1,0,-1
EndSplineSet
EndChar

StartChar: x
Encoding: 120 120 92
Width: 530
GlyphClass: 2
Flags: W
LayerCount: 2
Fore
SplineSet
520 0 m 1,0,-1
 324 0 l 1,1,-1
 324 28 l 1,2,-1
 334 28 l 2,3,4
 346 28 346 28 346 34 c 128,-1,5
 346 40 346 40 332 62 c 1,6,-1
 250 204 l 1,7,-1
 172 66 l 1,8,9
 158 44 158 44 158 36 c 128,-1,10
 158 28 158 28 182 28 c 2,11,-1
 198 28 l 1,12,-1
 198 0 l 1,13,-1
 10 0 l 1,14,-1
 10 28 l 1,15,-1
 38 28 l 2,16,17
 91 28 91 28 126 82 c 1,18,-1
 226 244 l 1,19,-1
 130 400 l 2,20,21
 106 438 106 438 54 438 c 2,22,-1
 40 438 l 1,23,-1
 40 466 l 1,24,-1
 234 466 l 1,25,-1
 234 438 l 1,26,-1
 224 438 l 2,27,28
 212 438 212 438 212 431.5 c 128,-1,29
 212 425 212 425 220 412 c 2,30,-1
 278 314 l 1,31,-1
 336 412 l 2,32,33
 338 416 338 416 340 420.5 c 128,-1,34
 342 425 342 425 343 427 c 128,-1,35
 344 429 344 429 344 430 c 0,36,37
 344 438 344 438 324 438 c 2,38,-1
 314 438 l 1,39,-1
 314 466 l 1,40,-1
 490 466 l 1,41,-1
 490 438 l 1,42,-1
 464 438 l 2,43,44
 411 438 411 438 394 412 c 2,45,-1
 302 274 l 1,46,-1
 418 76 l 2,47,48
 435 47 435 47 451.5 37.5 c 128,-1,49
 468 28 468 28 494 28 c 2,50,-1
 520 28 l 1,51,-1
 520 0 l 1,0,-1
EndSplineSet
EndChar

StartChar: y
Encoding: 121 121 93
Width: 500
GlyphClass: 2
Flags: W
LayerCount: 2
Fore
SplineSet
-14 -232 m 1,0,-1
 2 -154 l 1,1,-1
 16 -154 l 1,2,3
 18 -165 18 -165 34 -178.5 c 128,-1,4
 50 -192 50 -192 68 -192 c 0,5,6
 130 -192 130 -192 156 -150 c 128,-1,7
 182 -108 182 -108 210 2 c 1,8,-1
 58 396 l 2,9,10
 49 417 49 417 39 426.5 c 128,-1,11
 29 436 29 436 8 436 c 2,12,-1
 -6 436 l 1,13,-1
 -6 466 l 1,14,-1
 190 466 l 1,15,-1
 190 436 l 1,16,-1
 184 436 l 2,17,18
 142 436 142 436 142 412 c 0,19,20
 142 407 142 407 152 380 c 2,21,-1
 254 108 l 1,22,-1
 366 390 l 1,23,24
 378 414 378 414 378 420 c 0,25,26
 378 429 378 429 366.5 432.5 c 128,-1,27
 355 436 355 436 320 436 c 2,28,-1
 312 436 l 1,29,-1
 312 466 l 1,30,-1
 498 466 l 1,31,-1
 498 436 l 1,32,-1
 488 436 l 2,33,34
 454 436 454 436 441 426 c 128,-1,35
 428 416 428 416 418 388 c 1,36,-1
 216 -118 l 2,37,38
 189 -184 189 -184 151.5 -216 c 128,-1,39
 114 -248 114 -248 50 -248 c 0,40,41
 26 -248 26 -248 -14 -232 c 1,0,-1
EndSplineSet
EndChar

StartChar: z
Encoding: 122 122 94
Width: 468
GlyphClass: 2
Flags: W
LayerCount: 2
Fore
SplineSet
412 0 m 1,0,-1
 10 0 l 1,1,-1
 10 22 l 1,2,-1
 288 404 l 1,3,4
 298 414 298 414 298 424 c 1,5,-1
 208 424 l 2,6,7
 139 424 139 424 103.5 403 c 128,-1,8
 68 382 68 382 66 354 c 1,9,-1
 42 358 l 1,10,-1
 56 466 l 1,11,-1
 420 466 l 1,12,-1
 420 444 l 1,13,-1
 142 66 l 1,14,-1
 132 46 l 1,15,-1
 260 46 l 2,16,17
 333 46 333 46 365.5 65 c 128,-1,18
 398 84 398 84 400 112 c 1,19,-1
 428 108 l 1,20,-1
 412 0 l 1,0,-1
EndSplineSet
EndChar

StartChar: braceleft
Encoding: 123 123 95
Width: 362
GlyphClass: 2
Flags: W
LayerCount: 2
Fore
SplineSet
212 122 m 2,0,-1
 212 72 l 2,1,2
 212 -72 212 -72 268 -128 c 0,3,4
 285 -145 285 -145 295.5 -151 c 128,-1,5
 306 -157 306 -157 322 -164 c 1,6,-1
 306 -198 l 1,7,8
 245 -198 245 -198 205.5 -151.5 c 128,-1,9
 166 -105 166 -105 151 -35 c 128,-1,10
 136 35 136 35 136 128 c 1,11,-1
 144 248 l 1,12,13
 144 278 144 278 127.5 288.5 c 128,-1,14
 111 299 111 299 70 304 c 1,15,-1
 70 336 l 1,16,17
 109 337 109 337 130.5 366.5 c 128,-1,18
 152 396 152 396 152 426 c 1,19,-1
 146 544 l 1,20,21
 146 685 146 685 216 726 c 0,22,23
 248 744 248 744 310 760 c 1,24,-1
 322 740 l 1,25,-1
 310 736 l 1,26,27
 270 725 270 725 259 715.5 c 128,-1,28
 248 706 248 706 237.5 695.5 c 128,-1,29
 227 685 227 685 222 673 c 0,30,31
 208 644 208 644 208 606 c 2,32,33
 208 606 208 606 211 477 c 1,34,35
 211 422 211 422 199.5 389 c 128,-1,36
 188 356 188 356 154 324 c 1,37,38
 193 291 193 291 202.5 254 c 128,-1,39
 212 217 212 217 212 122 c 2,0,-1
EndSplineSet
EndChar

StartChar: bar
Encoding: 124 124 96
Width: 372
GlyphClass: 2
Flags: W
LayerCount: 2
Fore
SplineSet
206 -248 m 1,0,-1
 160 -248 l 1,1,-1
 160 772 l 1,2,-1
 206 772 l 1,3,-1
 206 -248 l 1,0,-1
EndSplineSet
EndChar

StartChar: braceright
Encoding: 125 125 97
Width: 362
GlyphClass: 2
Flags: W
LayerCount: 2
Fore
SplineSet
219 248 m 1,0,-1
 227 128 l 1,1,2
 227 35 227 35 212 -35 c 128,-1,3
 197 -105 197 -105 157.5 -151.5 c 128,-1,4
 118 -198 118 -198 57 -198 c 1,5,-1
 41 -164 l 1,6,7
 57 -157 57 -157 67.5 -151 c 128,-1,8
 78 -145 78 -145 95.5 -127.5 c 128,-1,9
 113 -110 113 -110 124 -87 c 0,10,11
 151 -27 151 -27 151 72 c 2,12,-1
 151 122 l 2,13,14
 151 188 151 188 154 219 c 0,15,16
 160 283 160 283 209 324 c 1,17,18
 165 366 165 366 156 416 c 0,19,20
 152 440 152 440 152 477 c 2,21,-1
 155 606 l 1,22,23
 155 666 155 666 126 696 c 1,24,25
 98 723 98 723 70 732 c 0,26,27
 65 733 65 733 53 736 c 2,28,-1
 41 740 l 1,29,-1
 53 760 l 1,30,31
 115 744 115 744 147 726 c 0,32,33
 217 685 217 685 217 544 c 1,34,-1
 211 426 l 1,35,36
 211 396 211 396 232.5 366.5 c 128,-1,37
 254 337 254 337 293 336 c 1,38,-1
 293 304 l 1,39,40
 252 299 252 299 235.5 288.5 c 128,-1,41
 219 278 219 278 219 248 c 1,0,-1
EndSplineSet
EndChar

StartChar: asciitilde
Encoding: 126 126 98
Width: 520
GlyphClass: 2
Flags: W
LayerCount: 2
Fore
SplineSet
420 312 m 1,0,-1
 452 284 l 1,1,2
 408 192 408 192 340 192 c 0,3,4
 301 192 301 192 228 239 c 0,5,6
 215 247 215 247 211 249 c 128,-1,7
 207 251 207 251 198 256 c 0,8,9
 182 264 182 264 166 264 c 0,10,11
 120 264 120 264 84 192 c 1,12,-1
 50 220 l 1,13,14
 70 263 70 263 101.5 287.5 c 128,-1,15
 133 312 133 312 170 312 c 0,16,17
 196 312 196 312 214 304 c 0,18,19
 244 289 244 289 255 282 c 128,-1,20
 266 275 266 275 273 270.5 c 128,-1,21
 280 266 280 266 282 264.5 c 128,-1,22
 284 263 284 263 290 259.5 c 128,-1,23
 296 256 296 256 299 254 c 0,24,25
 312 248 312 248 315.5 247 c 128,-1,26
 319 246 319 246 324 244 c 0,27,28
 332 242 332 242 342 242 c 0,29,30
 385 242 385 242 420 312 c 1,0,-1
EndSplineSet
EndChar

StartChar: exclamdown
Encoding: 161 161 99
Width: 258
GlyphClass: 2
Flags: W
LayerCount: 2
Fore
SplineSet
157 -224 m 1,0,-1
 71 -254 l 1,1,-1
 89 268 l 1,2,-1
 137 286 l 1,3,-1
 157 -224 l 1,0,-1
160.5 465 m 128,-1,5
 173 450 173 450 173 427.5 c 128,-1,6
 173 405 173 405 154 388.5 c 128,-1,7
 135 372 135 372 112.5 372 c 128,-1,8
 90 372 90 372 77.5 387 c 128,-1,9
 65 402 65 402 65 425.5 c 128,-1,10
 65 449 65 449 84 464.5 c 128,-1,11
 103 480 103 480 125.5 480 c 128,-1,4
 148 480 148 480 160.5 465 c 128,-1,5
EndSplineSet
EndChar

StartChar: cent
Encoding: 162 162 100
Width: 482
GlyphClass: 2
Flags: W
LayerCount: 2
Fore
SplineSet
236 -14 m 1,0,-1
 184 -14 l 1,1,-1
 208 126 l 1,2,3
 136 135 136 135 87 201 c 128,-1,4
 38 267 38 267 38 346 c 0,5,6
 38 398 38 398 62.5 450.5 c 128,-1,7
 87 503 87 503 113.5 535 c 128,-1,8
 140 567 140 567 185.5 591.5 c 128,-1,9
 231 616 231 616 288 620 c 1,10,-1
 306 718 l 1,11,-1
 352 718 l 1,12,-1
 336 618 l 1,13,14
 368 613 368 613 418 598 c 1,15,-1
 410 506 l 1,16,-1
 382 506 l 1,17,18
 382 539 382 539 326 558 c 1,19,-1
 268 188 l 1,20,-1
 280 188 l 2,21,22
 331 188 331 188 373 208 c 128,-1,23
 415 228 415 228 438 262 c 1,24,-1
 456 244 l 1,25,26
 400 137 400 137 258 126 c 1,27,-1
 236 -14 l 1,0,-1
220 204 m 1,28,-1
 280 566 l 1,29,-1
 278 566 l 2,30,31
 235 566 235 566 203.5 553.5 c 128,-1,32
 172 541 172 541 155.5 523 c 128,-1,33
 139 505 139 505 129 480 c 0,34,35
 114 442 114 442 114 390 c 128,-1,36
 114 338 114 338 143.5 283 c 128,-1,37
 173 228 173 228 220 204 c 1,28,-1
EndSplineSet
EndChar

StartChar: sterling
Encoding: 163 163 101
Width: 598
GlyphClass: 2
Flags: W
LayerCount: 2
Fore
SplineSet
279 412 m 0,0,1
 279 384 279 384 308 384 c 2,2,-1
 472 384 l 1,3,-1
 472 340 l 1,4,-1
 256 340 l 1,5,6
 251 297 251 297 238 261 c 128,-1,7
 225 225 225 225 196.5 168.5 c 128,-1,8
 168 112 168 112 160 93.5 c 128,-1,9
 152 75 152 75 152 66 c 0,10,11
 152 48 152 48 164 48 c 1,12,-1
 184 50 l 2,13,14
 203 52 203 52 221.5 52 c 128,-1,15
 240 52 240 52 299 47 c 128,-1,16
 358 42 358 42 405 42 c 128,-1,17
 452 42 452 42 492 76 c 128,-1,18
 532 110 532 110 534 144 c 1,19,-1
 562 138 l 1,20,-1
 528 -4 l 1,21,22
 463 -4 463 -4 332.5 2 c 128,-1,23
 202 8 202 8 158 8 c 128,-1,24
 114 8 114 8 64.5 4 c 128,-1,25
 15 0 15 0 8 0 c 1,26,-1
 8 30 l 1,27,28
 10 30 10 30 12 30 c 0,29,30
 41 30 41 30 68 53 c 128,-1,31
 95 76 95 76 113 113 c 128,-1,32
 131 150 131 150 140 172 c 0,33,34
 164 231 164 231 164 308 c 0,35,36
 164 327 164 327 157 333.5 c 128,-1,37
 150 340 150 340 128 340 c 2,38,-1
 106 340 l 1,39,-1
 108 384 l 1,40,-1
 176 384 l 1,41,-1
 192 442 l 1,42,43
 231 575 231 575 309 637.5 c 128,-1,44
 387 700 387 700 488 700 c 0,45,46
 518 700 518 700 544 690.5 c 128,-1,47
 570 681 570 681 578 678 c 1,48,-1
 578 586 l 1,49,-1
 550 588 l 1,50,51
 548 607 548 607 518 633.5 c 128,-1,52
 488 660 488 660 454 660 c 0,53,54
 401 660 401 660 359 608 c 128,-1,55
 317 556 317 556 284 438 c 0,56,57
 279 423 279 423 279 412 c 0,0,1
EndSplineSet
EndChar

StartChar: currency
Encoding: 164 164 102
Width: 832
GlyphClass: 2
Flags: W
LayerCount: 2
Fore
SplineSet
328 254.5 m 128,-1,1
 360 214 360 214 416 214 c 128,-1,2
 472 214 472 214 505 251.5 c 128,-1,3
 538 289 538 289 538 348 c 128,-1,4
 538 407 538 407 503.5 446.5 c 128,-1,5
 469 486 469 486 412 486 c 128,-1,6
 355 486 355 486 325.5 448.5 c 128,-1,7
 296 411 296 411 296 353 c 128,-1,0
 296 295 296 295 328 254.5 c 128,-1,1
626 110 m 1,8,-1
 522 204 l 1,9,10
 476 170 476 170 409.5 170 c 128,-1,11
 343 170 343 170 302 208 c 1,12,-1
 204 110 l 1,13,-1
 172 142 l 1,14,-1
 270 238 l 1,15,16
 234 284 234 284 234 350.5 c 128,-1,17
 234 417 234 417 276 462 c 1,18,-1
 172 562 l 1,19,-1
 206 596 l 1,20,-1
 312 496 l 1,21,22
 352 530 352 530 418.5 530 c 128,-1,23
 485 530 485 530 524 498 c 1,24,-1
 628 594 l 1,25,-1
 658 562 l 1,26,-1
 558 466 l 1,27,28
 575 449 575 449 588.5 417 c 128,-1,29
 602 385 602 385 602 356 c 0,30,31
 602 284 602 284 560 232 c 1,32,-1
 658 144 l 1,33,-1
 626 110 l 1,8,-1
EndSplineSet
EndChar

StartChar: yen
Encoding: 165 165 103
Width: 600
GlyphClass: 2
Flags: W
LayerCount: 2
Fore
SplineSet
436 0 m 1,0,-1
 182 0 l 1,1,-1
 182 28 l 1,2,-1
 214 28 l 2,3,4
 244 28 244 28 254 40 c 128,-1,5
 264 52 264 52 264 72 c 2,6,-1
 264 218 l 1,7,-1
 34 218 l 1,8,-1
 34 262 l 1,9,-1
 264 262 l 1,10,-1
 264 290 l 1,11,-1
 236 348 l 1,12,-1
 34 348 l 1,13,-1
 34 392 l 1,14,-1
 216 392 l 1,15,-1
 128 586 l 1,16,17
 87 672 87 672 22 672 c 2,18,-1
 0 672 l 1,19,-1
 0 700 l 1,20,-1
 224 700 l 1,21,-1
 224 672 l 1,22,-1
 212 672 l 2,23,24
 196 672 196 672 196 662 c 0,25,26
 196 657 196 657 208 630 c 2,27,-1
 324 362 l 1,28,-1
 440 630 l 1,29,30
 452 654 452 654 452 660 c 0,31,32
 452 672 452 672 424 672 c 2,33,-1
 402 672 l 1,34,-1
 402 700 l 1,35,-1
 598 700 l 1,36,-1
 598 672 l 1,37,-1
 582 672 l 2,38,39
 507 672 507 672 474 602 c 2,40,-1
 378 392 l 1,41,-1
 574 392 l 1,42,-1
 574 348 l 1,43,-1
 358 348 l 1,44,-1
 350 330 l 1,45,-1
 350 262 l 1,46,-1
 574 262 l 1,47,-1
 574 218 l 1,48,-1
 350 218 l 1,49,-1
 350 72 l 2,50,51
 350 52 350 52 360 40 c 128,-1,52
 370 28 370 28 400 28 c 2,53,-1
 436 28 l 1,54,-1
 436 0 l 1,0,-1
EndSplineSet
EndChar

StartChar: brokenbar
Encoding: 166 166 104
Width: 382
GlyphClass: 2
Flags: W
LayerCount: 2
Fore
SplineSet
208 172 m 1,0,-1
 208 -188 l 1,1,-1
 160 -188 l 1,2,-1
 160 172 l 1,3,-1
 208 172 l 1,0,-1
208 680 m 1,4,-1
 208 320 l 1,5,-1
 160 320 l 1,6,-1
 160 680 l 1,7,-1
 208 680 l 1,4,-1
EndSplineSet
EndChar

StartChar: section
Encoding: 167 167 105
Width: 512
GlyphClass: 2
Flags: W
LayerCount: 2
Fore
SplineSet
30 -184 m 1,0,-1
 44 -54 l 1,1,-1
 80 -56 l 1,2,3
 80 -113 80 -113 136 -146.5 c 128,-1,4
 192 -180 192 -180 265.5 -180 c 128,-1,5
 339 -180 339 -180 378.5 -154 c 128,-1,6
 418 -128 418 -128 418 -88 c 0,7,8
 418 -43 418 -43 388 -5 c 0,9,10
 366 24 366 24 310 60 c 0,11,12
 294 70 294 70 257.5 91.5 c 128,-1,13
 221 113 221 113 211.5 119 c 128,-1,14
 202 125 202 125 185 134 c 128,-1,15
 168 143 168 143 155 150.5 c 128,-1,16
 142 158 142 158 122.5 172.5 c 128,-1,17
 103 187 103 187 90 202 c 0,18,19
 58 239 58 239 58 280 c 0,20,21
 58 374 58 374 106 422 c 1,22,23
 58 463 58 463 58 515.5 c 128,-1,24
 58 568 58 568 73.5 605 c 128,-1,25
 89 642 89 642 113 663 c 128,-1,26
 137 684 137 684 170 698 c 0,27,28
 224 720 224 720 300 720 c 128,-1,29
 376 720 376 720 446 682 c 1,30,-1
 434 566 l 1,31,-1
 400 566 l 1,32,33
 400 613 400 613 354 636.5 c 128,-1,34
 308 660 308 660 242 660 c 128,-1,35
 176 660 176 660 143 637 c 128,-1,36
 110 614 110 614 110 574 c 0,37,38
 110 553 110 553 130.5 528 c 128,-1,39
 151 503 151 503 184 480 c 0,40,41
 236 444 236 444 294 414 c 1,42,43
 329 398 329 398 353 384.5 c 128,-1,44
 377 371 377 371 411 344 c 0,45,46
 482 289 482 289 482 202 c 0,47,48
 482 140 482 140 452 84 c 1,49,50
 478 49 478 49 478 -30 c 0,51,52
 478 -132 478 -132 399 -190 c 128,-1,53
 320 -248 320 -248 208 -248 c 0,54,55
 149 -248 149 -248 109.5 -231.5 c 128,-1,56
 70 -215 70 -215 30 -184 c 1,0,-1
138 390 m 1,57,58
 114 366 114 366 114 328 c 128,-1,59
 114 290 114 290 146 259 c 128,-1,60
 178 228 178 228 220 211 c 0,61,62
 362 154 362 154 418 112 c 1,63,64
 428 129 428 129 428 158 c 128,-1,65
 428 187 428 187 414.5 213 c 128,-1,66
 401 239 401 239 370.5 261.5 c 128,-1,67
 340 284 340 284 310.5 299.5 c 128,-1,68
 281 315 281 315 228.5 341.5 c 128,-1,69
 176 368 176 368 138 390 c 1,57,58
EndSplineSet
EndChar

StartChar: dieresis
Encoding: 168 168 106
Width: 464
GlyphClass: 2
Flags: W
LayerCount: 2
Fore
SplineSet
177.5 681 m 128,-1,1
 190 666 190 666 190 642.5 c 128,-1,2
 190 619 190 619 171 603.5 c 128,-1,3
 152 588 152 588 129.5 588 c 128,-1,4
 107 588 107 588 94.5 603 c 128,-1,5
 82 618 82 618 82 640.5 c 128,-1,6
 82 663 82 663 101 679.5 c 128,-1,7
 120 696 120 696 142.5 696 c 128,-1,0
 165 696 165 696 177.5 681 c 128,-1,1
380.5 681 m 128,-1,9
 394 666 394 666 394 642.5 c 128,-1,10
 394 619 394 619 375 603.5 c 128,-1,11
 356 588 356 588 333 588 c 128,-1,12
 310 588 310 588 298 603.5 c 128,-1,13
 286 619 286 619 286 641 c 128,-1,14
 286 663 286 663 304.5 679.5 c 128,-1,15
 323 696 323 696 345 696 c 128,-1,8
 367 696 367 696 380.5 681 c 128,-1,9
EndSplineSet
EndChar

StartChar: copyright
Encoding: 169 169 107
Width: 806
GlyphClass: 2
Flags: W
LayerCount: 2
Fore
SplineSet
770 354 m 128,-1,1
 770 201 770 201 663 94.5 c 128,-1,2
 556 -12 556 -12 402.5 -12 c 128,-1,3
 249 -12 249 -12 142.5 94.5 c 128,-1,4
 36 201 36 201 36 354 c 128,-1,5
 36 507 36 507 142.5 613.5 c 128,-1,6
 249 720 249 720 402.5 720 c 128,-1,7
 556 720 556 720 663 613.5 c 128,-1,0
 770 507 770 507 770 354 c 128,-1,1
562 258 m 1,8,-1
 582 244 l 1,9,10
 491 138 491 138 386 138 c 0,11,12
 319 138 319 138 265.5 197.5 c 128,-1,13
 212 257 212 257 212 332 c 0,14,15
 212 427 212 427 284 499.5 c 128,-1,16
 356 572 356 572 450 572 c 0,17,18
 486 572 486 572 546 552 c 1,19,-1
 538 466 l 1,20,-1
 518 466 l 1,21,22
 518 520 518 520 424 520 c 0,23,24
 358 520 358 520 309 481 c 128,-1,25
 260 442 260 442 260 374 c 0,26,27
 260 325 260 325 278 287.5 c 128,-1,28
 296 250 296 250 323 230 c 0,29,30
 377 190 377 190 426 190 c 0,31,32
 509 190 509 190 562 258 c 1,8,-1
626 127 m 128,-1,34
 720 220 720 220 720 352.5 c 128,-1,35
 720 485 720 485 626.5 577.5 c 128,-1,36
 533 670 533 670 401.5 670 c 128,-1,37
 270 670 270 670 177 576.5 c 128,-1,38
 84 483 84 483 84 352 c 128,-1,39
 84 221 84 221 177 127.5 c 128,-1,40
 270 34 270 34 401 34 c 128,-1,33
 532 34 532 34 626 127 c 128,-1,34
EndSplineSet
EndChar

StartChar: ordfeminine
Encoding: 170 170 108
Width: 384
GlyphClass: 2
Flags: W
LayerCount: 2
Fore
SplineSet
324 428 m 1,0,-1
 234 428 l 1,1,-1
 234 478 l 1,2,3
 205 445 205 445 185 432.5 c 128,-1,4
 165 420 165 420 131.5 420 c 128,-1,5
 98 420 98 420 79 436 c 128,-1,6
 60 452 60 452 60 481.5 c 128,-1,7
 60 511 60 511 85 538.5 c 128,-1,8
 110 566 110 566 143 580 c 0,9,10
 213 608 213 608 234 608 c 1,11,-1
 234 622 l 2,12,13
 234 674 234 674 190 674 c 0,14,15
 158 674 158 674 130 660.5 c 128,-1,16
 102 647 102 647 90 626 c 1,17,-1
 76 640 l 1,18,19
 115 718 115 718 216 718 c 0,20,21
 253 718 253 718 269.5 693 c 128,-1,22
 286 668 286 668 286 634 c 2,23,-1
 286 470 l 2,24,25
 286 454 286 454 293.5 449 c 128,-1,26
 301 444 301 444 314 444 c 2,27,-1
 324 444 l 1,28,-1
 324 428 l 1,0,-1
234 510 m 1,29,-1
 234 582 l 1,30,31
 188 572 188 572 151 546 c 128,-1,32
 114 520 114 520 114 488 c 0,33,34
 114 479 114 479 125 471.5 c 128,-1,35
 136 464 136 464 153.5 464 c 128,-1,36
 171 464 171 464 196 478.5 c 128,-1,37
 221 493 221 493 234 510 c 1,29,-1
EndSplineSet
EndChar

StartChar: guillemotleft
Encoding: 171 171 109
Width: 466
GlyphClass: 2
Flags: W
LayerCount: 2
Fore
SplineSet
228 82 m 1,0,-1
 60 222 l 1,1,-1
 60 278 l 1,2,-1
 228 418 l 1,3,-1
 234 398 l 1,4,-1
 130 250 l 1,5,-1
 234 102 l 1,6,-1
 228 82 l 1,0,-1
400 82 m 1,7,-1
 232 222 l 1,8,-1
 232 278 l 1,9,-1
 400 418 l 1,10,-1
 406 398 l 1,11,-1
 302 250 l 1,12,-1
 406 102 l 1,13,-1
 400 82 l 1,7,-1
EndSplineSet
EndChar

StartChar: logicalnot
Encoding: 172 172 110
Width: 558
GlyphClass: 2
Flags: W
LayerCount: 2
Fore
SplineSet
470 150 m 1,0,-1
 422 150 l 1,1,-1
 422 300 l 1,2,-1
 80 300 l 1,3,-1
 80 346 l 1,4,-1
 470 346 l 1,5,-1
 470 150 l 1,0,-1
EndSplineSet
EndChar

StartChar: uni00AD
Encoding: 173 173 111
Width: 524
GlyphClass: 2
Flags: W
LayerCount: 2
Fore
SplineSet
458 178 m 1,0,-1
 60 178 l 1,1,-1
 60 226 l 1,2,-1
 458 226 l 1,3,-1
 458 178 l 1,0,-1
EndSplineSet
EndChar

StartChar: registered
Encoding: 174 174 112
Width: 806
GlyphClass: 2
Flags: W
LayerCount: 2
Fore
SplineSet
770 354 m 128,-1,1
 770 201 770 201 663 94.5 c 128,-1,2
 556 -12 556 -12 402.5 -12 c 128,-1,3
 249 -12 249 -12 142.5 94.5 c 128,-1,4
 36 201 36 201 36 354 c 128,-1,5
 36 507 36 507 142.5 613.5 c 128,-1,6
 249 720 249 720 402.5 720 c 128,-1,7
 556 720 556 720 663 613.5 c 128,-1,0
 770 507 770 507 770 354 c 128,-1,1
627.5 127.5 m 128,-1,9
 722 221 722 221 722 353 c 128,-1,10
 722 485 722 485 627.5 577.5 c 128,-1,11
 533 670 533 670 401.5 670 c 128,-1,12
 270 670 270 670 177 576.5 c 128,-1,13
 84 483 84 483 84 352.5 c 128,-1,14
 84 222 84 222 178 128 c 128,-1,15
 272 34 272 34 402.5 34 c 128,-1,8
 533 34 533 34 627.5 127.5 c 128,-1,9
328 564 m 1,16,-1
 434 570 l 1,17,18
 486 570 486 570 519 548 c 128,-1,19
 552 526 552 526 552 488 c 0,20,21
 552 395 552 395 454 352 c 1,22,-1
 546 208 l 1,23,24
 573 168 573 168 598 168 c 2,25,-1
 608 168 l 1,26,-1
 608 150 l 1,27,-1
 520 150 l 1,28,29
 498 180 498 180 494 188 c 2,30,-1
 398 340 l 1,31,-1
 358 340 l 1,32,-1
 354 364 l 1,33,-1
 384 364 l 2,34,35
 500 364 500 364 500 448 c 0,36,37
 500 536 500 536 394 536 c 1,38,-1
 338 532 l 1,39,-1
 338 196 l 2,40,41
 338 168 338 168 366 168 c 2,42,-1
 390 168 l 1,43,-1
 390 150 l 1,44,-1
 236 150 l 1,45,-1
 236 168 l 1,46,-1
 256 168 l 2,47,48
 284 168 284 168 284 196 c 2,49,-1
 284 518 l 2,50,51
 284 531 284 531 278.5 537.5 c 128,-1,52
 273 544 273 544 256 544 c 2,53,-1
 236 544 l 1,54,-1
 236 564 l 1,55,-1
 328 564 l 1,16,-1
EndSplineSet
EndChar

StartChar: macron
Encoding: 175 175 113
Width: 564
GlyphClass: 2
Flags: W
LayerCount: 2
Fore
SplineSet
428 588 m 1,0,-1
 136 588 l 1,1,-1
 136 634 l 1,2,-1
 428 634 l 1,3,-1
 428 588 l 1,0,-1
EndSplineSet
EndChar

StartChar: degree
Encoding: 176 176 114
Width: 394
GlyphClass: 2
Flags: W
LayerCount: 2
Fore
SplineSet
124 492.5 m 128,-1,1
 152 464 152 464 196.5 464 c 128,-1,2
 241 464 241 464 269.5 492.5 c 128,-1,3
 298 521 298 521 298 565.5 c 128,-1,4
 298 610 298 610 269.5 639 c 128,-1,5
 241 668 241 668 197 668 c 128,-1,6
 153 668 153 668 124.5 638.5 c 128,-1,7
 96 609 96 609 96 565 c 128,-1,0
 96 521 96 521 124 492.5 c 128,-1,1
352 566 m 128,-1,9
 352 501 352 501 307 456.5 c 128,-1,10
 262 412 262 412 197 412 c 128,-1,11
 132 412 132 412 87 457 c 128,-1,12
 42 502 42 502 42 566 c 128,-1,13
 42 630 42 630 87 675 c 128,-1,14
 132 720 132 720 197 720 c 128,-1,15
 262 720 262 720 307 675.5 c 128,-1,8
 352 631 352 631 352 566 c 128,-1,9
EndSplineSet
EndChar

StartChar: plusminus
Encoding: 177 177 115
Width: 514
GlyphClass: 2
Flags: W
LayerCount: 2
Fore
SplineSet
456 0 m 1,0,-1
 58 0 l 1,1,-1
 58 46 l 1,2,-1
 456 46 l 1,3,-1
 456 0 l 1,0,-1
459 269 m 1,4,-1
 279 269 l 1,5,-1
 282 89 l 1,6,-1
 234 89 l 1,7,-1
 237 269 l 1,8,-1
 55 269 l 1,9,-1
 55 311 l 1,10,-1
 237 311 l 1,11,-1
 239 491 l 1,12,-1
 278 491 l 1,13,-1
 279 311 l 1,14,-1
 459 311 l 1,15,-1
 459 269 l 1,4,-1
EndSplineSet
EndChar

StartChar: twosuperior
Encoding: 178 178 116
Width: 316
GlyphClass: 2
Flags: W
LayerCount: 2
Fore
SplineSet
266 514 m 1,0,-1
 18 514 l 1,1,-1
 18 526 l 1,2,3
 89 594 89 594 146.5 670 c 128,-1,4
 204 746 204 746 204 793 c 128,-1,5
 204 840 204 840 146 840 c 0,6,7
 126 840 126 840 101 821.5 c 128,-1,8
 76 803 76 803 62 780 c 1,9,-1
 50 790 l 1,10,11
 88 872 88 872 186 872 c 0,12,13
 221 872 221 872 243.5 854.5 c 128,-1,14
 266 837 266 837 266 805 c 128,-1,15
 266 773 266 773 249 743 c 128,-1,16
 232 713 232 713 213.5 692 c 128,-1,17
 195 671 195 671 152.5 628.5 c 128,-1,18
 110 586 110 586 88 562 c 1,19,-1
 210 562 l 2,20,21
 236 562 236 562 254 579.5 c 128,-1,22
 272 597 272 597 272 614 c 1,23,-1
 286 612 l 1,24,-1
 266 514 l 1,0,-1
EndSplineSet
EndChar

StartChar: threesuperior
Encoding: 179 179 117
Width: 293
GlyphClass: 2
Flags: W
LayerCount: 2
Fore
SplineSet
33 594 m 1,0,-1
 45 594 l 1,1,2
 52 565 52 565 66.5 549 c 128,-1,3
 81 533 81 533 114 533 c 0,4,5
 201 533 201 533 201 621 c 0,6,7
 201 654 201 654 182 676.5 c 128,-1,8
 163 699 163 699 134.5 699 c 128,-1,9
 106 699 106 699 88 694 c 1,10,-1
 88 708 l 1,11,-1
 110 721 l 1,12,13
 162 748 162 748 162 797 c 0,14,15
 162 838 162 838 114 838 c 0,16,17
 83 838 83 838 56 810 c 0,18,19
 49 804 49 804 42 797 c 1,20,-1
 33 807 l 1,21,22
 74 873 74 873 154 873 c 0,23,24
 189 873 189 873 209 856.5 c 128,-1,25
 229 840 229 840 229 816 c 0,26,27
 229 764 229 764 146 722 c 1,28,-1
 147 720 l 1,29,30
 164 726 164 726 177 726 c 0,31,32
 215 726 215 726 239 703 c 128,-1,33
 263 680 263 680 263 638 c 0,34,35
 263 580 263 580 218.5 544 c 128,-1,36
 174 508 174 508 117.5 508 c 128,-1,37
 61 508 61 508 25 539 c 1,38,-1
 33 594 l 1,0,-1
EndSplineSet
EndChar

StartChar: acute
Encoding: 180 180 118
Width: 298
GlyphClass: 2
Flags: W
LayerCount: 2
Fore
SplineSet
238 660 m 1,0,-1
 88 532 l 1,1,-1
 64 548 l 1,2,-1
 172 702 l 1,3,-1
 238 660 l 1,0,-1
EndSplineSet
EndChar

StartChar: mu
Encoding: 181 181 119
AltUni2: 0003bc.ffffffff.0
Width: 572
GlyphClass: 2
Flags: W
LayerCount: 2
Fore
SplineSet
538 0 m 1,0,-1
 394 0 l 1,1,-1
 394 118 l 1,2,3
 372 57 372 57 327.5 21.5 c 128,-1,4
 283 -14 283 -14 227.5 -14 c 128,-1,5
 172 -14 172 -14 144 36 c 1,6,-1
 170 -224 l 1,7,-1
 78 -254 l 1,8,9
 79 -211 79 -211 82 -134 c 0,10,11
 90 33 90 33 90 128 c 2,12,-1
 90 366 l 2,13,14
 90 412 90 412 32 412 c 1,15,-1
 32 440 l 1,16,17
 52 440 52 440 92.5 451 c 128,-1,18
 133 462 133 462 152 474 c 1,19,-1
 170 476 l 1,20,-1
 170 146 l 2,21,22
 170 101 170 101 191.5 77.5 c 128,-1,23
 213 54 213 54 252 54 c 0,24,25
 308 54 308 54 351 114 c 128,-1,26
 394 174 394 174 394 204 c 2,27,-1
 394 366 l 2,28,29
 394 412 394 412 336 412 c 1,30,-1
 336 440 l 1,31,32
 358 440 358 440 398.5 451 c 128,-1,33
 439 462 439 462 458 474 c 1,34,-1
 476 476 l 1,35,-1
 476 68 l 2,36,37
 476 54 476 54 478 47 c 0,38,39
 483 28 483 28 520 28 c 2,40,-1
 538 28 l 1,41,-1
 538 0 l 1,0,-1
EndSplineSet
EndChar

StartChar: paragraph
Encoding: 182 182 120
Width: 740
GlyphClass: 2
Flags: W
LayerCount: 2
Fore
SplineSet
310 720 m 1,0,-1
 498 714 l 1,1,-1
 632 714 l 1,2,-1
 632 684 l 1,3,-1
 598 684 l 2,4,5
 569 684 569 684 562.5 674 c 128,-1,6
 556 664 556 664 556 638 c 2,7,-1
 556 -152 l 1,8,-1
 506 -138 l 1,9,-1
 506 684 l 1,10,-1
 422 684 l 1,11,-1
 422 -152 l 1,12,-1
 374 -138 l 1,13,-1
 374 298 l 1,14,-1
 358 298 l 2,15,16
 244 298 244 298 175 351.5 c 128,-1,17
 106 405 106 405 106 508 c 128,-1,18
 106 611 106 611 161.5 665.5 c 128,-1,19
 217 720 217 720 310 720 c 1,0,-1
EndSplineSet
EndChar

StartChar: periodcentered
Encoding: 183 183 121
Width: 268
GlyphClass: 2
Flags: W
LayerCount: 2
Fore
SplineSet
174.5 356 m 128,-1,1
 188 340 188 340 188 317 c 128,-1,2
 188 294 188 294 168.5 278 c 128,-1,3
 149 262 149 262 126.5 262 c 128,-1,4
 104 262 104 262 92 278 c 128,-1,5
 80 294 80 294 80 316 c 128,-1,6
 80 338 80 338 98.5 355 c 128,-1,7
 117 372 117 372 139 372 c 128,-1,0
 161 372 161 372 174.5 356 c 128,-1,1
EndSplineSet
EndChar

StartChar: cedilla
Encoding: 184 184 122
Width: 832
GlyphClass: 2
Flags: W
LayerCount: 2
Fore
SplineSet
310 -162 m 1,0,1
 327 -188 327 -188 360.5 -188 c 128,-1,2
 394 -188 394 -188 414 -174 c 128,-1,3
 434 -160 434 -160 434 -131 c 0,4,5
 434 -92 434 -92 382 -92 c 0,6,7
 354 -92 354 -92 332 -108 c 1,8,-1
 324 -100 l 1,9,-1
 346 0 l 1,10,-1
 382 0 l 1,11,-1
 362 -70 l 1,12,13
 389 -52 389 -52 421.5 -52 c 128,-1,14
 454 -52 454 -52 471 -68.5 c 128,-1,15
 488 -85 488 -85 488 -108 c 0,16,17
 488 -150 488 -150 448.5 -182 c 128,-1,18
 409 -214 409 -214 366.5 -214 c 128,-1,19
 324 -214 324 -214 296 -180 c 1,20,-1
 310 -162 l 1,0,1
EndSplineSet
EndChar

StartChar: onesuperior
Encoding: 185 185 123
Width: 246
GlyphClass: 2
Flags: W
LayerCount: 2
Fore
SplineSet
196 514 m 1,0,-1
 44 514 l 1,1,-1
 44 532 l 1,2,-1
 64 532 l 2,3,4
 96 532 96 532 96 556 c 2,5,-1
 96 790 l 2,6,7
 96 805 96 805 85 811.5 c 128,-1,8
 74 818 74 818 40 818 c 1,9,-1
 40 836 l 1,10,11
 99 836 99 836 130 870 c 1,12,-1
 152 872 l 1,13,-1
 152 556 l 2,14,15
 152 541 152 541 158 536.5 c 128,-1,16
 164 532 164 532 184 532 c 2,17,-1
 196 532 l 1,18,-1
 196 514 l 1,0,-1
EndSplineSet
EndChar

StartChar: ordmasculine
Encoding: 186 186 124
Width: 370
GlyphClass: 2
Flags: W
LayerCount: 2
Fore
SplineSet
279 469.5 m 128,-1,1
 230 420 230 420 171.5 420 c 128,-1,2
 113 420 113 420 77.5 459.5 c 128,-1,3
 42 499 42 499 42 559.5 c 128,-1,4
 42 620 42 620 92.5 669 c 128,-1,5
 143 718 143 718 200.5 718 c 128,-1,6
 258 718 258 718 293 678 c 128,-1,7
 328 638 328 638 328 578.5 c 128,-1,0
 328 519 328 519 279 469.5 c 128,-1,1
123 495.5 m 128,-1,9
 156 460 156 460 195 460 c 128,-1,10
 234 460 234 460 256 490.5 c 128,-1,11
 278 521 278 521 278 561.5 c 128,-1,12
 278 602 278 602 249 639 c 128,-1,13
 220 676 220 676 178 676 c 128,-1,14
 136 676 136 676 113 647 c 128,-1,15
 90 618 90 618 90 586 c 0,16,8
 90 531 90 531 123 495.5 c 128,-1,9
EndSplineSet
EndChar

StartChar: guillemotright
Encoding: 187 187 125
Width: 466
GlyphClass: 2
Flags: W
LayerCount: 2
Fore
SplineSet
406 278 m 1,0,-1
 406 222 l 1,1,-1
 238 82 l 1,2,-1
 232 102 l 1,3,-1
 336 250 l 1,4,-1
 232 398 l 1,5,-1
 238 418 l 1,6,-1
 406 278 l 1,0,-1
234 278 m 1,7,-1
 234 222 l 1,8,-1
 66 82 l 1,9,-1
 60 102 l 1,10,-1
 164 250 l 1,11,-1
 60 398 l 1,12,-1
 66 418 l 1,13,-1
 234 278 l 1,7,-1
EndSplineSet
EndChar

StartChar: onequarter
Encoding: 188 188 126
Width: 778
GlyphClass: 2
Flags: W
LayerCount: 2
Fore
SplineSet
258 374 m 1,0,-1
 106 374 l 1,1,-1
 106 392 l 1,2,-1
 124 392 l 2,3,4
 158 392 158 392 158 416 c 2,5,-1
 158 650 l 2,6,7
 158 665 158 665 146.5 671.5 c 128,-1,8
 135 678 135 678 100 678 c 1,9,-1
 100 694 l 1,10,11
 159 694 159 694 190 728 c 1,12,-1
 214 730 l 1,13,-1
 214 416 l 2,14,15
 214 401 214 401 219.5 396.5 c 128,-1,16
 225 392 225 392 246 392 c 2,17,-1
 258 392 l 1,18,-1
 258 374 l 1,0,-1
544 182 m 1,19,-1
 544 346 l 1,20,21
 532 329 532 329 508 296 c 0,22,23
 458 230 458 230 430 182 c 1,24,-1
 544 182 l 1,19,-1
644 32 m 1,25,-1
 502 32 l 1,26,-1
 502 52 l 1,27,-1
 520 52 l 2,28,29
 544 52 544 52 544 76 c 2,30,-1
 544 146 l 1,31,-1
 376 146 l 1,32,-1
 376 153 l 1,33,34
 415 215 415 215 472.5 288.5 c 128,-1,35
 530 362 530 362 544 380 c 1,36,37
 574 380 574 380 578 396 c 1,38,-1
 598 398 l 1,39,-1
 598 182 l 1,40,41
 654 182 654 182 661 212 c 1,42,-1
 678 208 l 1,43,-1
 660 146 l 1,44,-1
 598 146 l 1,45,-1
 598 76 l 2,46,47
 598 52 598 52 624 52 c 2,48,-1
 644 52 l 1,49,-1
 644 32 l 1,25,-1
160 0 m 1,50,-1
 124 26 l 1,51,-1
 546 710 l 1,52,-1
 584 686 l 1,53,-1
 160 0 l 1,50,-1
EndSplineSet
EndChar

StartChar: onehalf
Encoding: 189 189 127
Width: 774
GlyphClass: 2
Flags: W
LayerCount: 2
Fore
SplineSet
256 374 m 1,0,-1
 104 374 l 1,1,-1
 104 392 l 1,2,-1
 124 392 l 2,3,4
 156 392 156 392 156 416 c 2,5,-1
 156 650 l 2,6,7
 156 665 156 665 145 671.5 c 128,-1,8
 134 678 134 678 100 678 c 1,9,-1
 100 694 l 1,10,11
 156 694 156 694 190 728 c 1,12,-1
 212 730 l 1,13,-1
 212 416 l 2,14,15
 212 401 212 401 218 396.5 c 128,-1,16
 224 392 224 392 244 392 c 2,17,-1
 256 392 l 1,18,-1
 256 374 l 1,0,-1
158 0 m 1,19,-1
 124 26 l 1,20,-1
 546 710 l 1,21,-1
 582 686 l 1,22,-1
 158 0 l 1,19,-1
654 32 m 1,23,-1
 404 32 l 1,24,-1
 404 44 l 1,25,26
 476 112 476 112 533 187 c 128,-1,27
 590 262 590 262 590 309 c 128,-1,28
 590 356 590 356 534 356 c 0,29,30
 514 356 514 356 489 338.5 c 128,-1,31
 464 321 464 321 448 298 c 1,32,-1
 436 308 l 1,33,34
 479 390 479 390 572 390 c 0,35,36
 607 390 607 390 629.5 372.5 c 128,-1,37
 652 355 652 355 652 322.5 c 128,-1,38
 652 290 652 290 635 260 c 128,-1,39
 618 230 618 230 599.5 209 c 128,-1,40
 581 188 581 188 539 146.5 c 128,-1,41
 497 105 497 105 474 80 c 1,42,-1
 594 80 l 2,43,44
 620 80 620 80 638 97.5 c 128,-1,45
 656 115 656 115 656 132 c 1,46,-1
 674 128 l 1,47,-1
 654 32 l 1,23,-1
EndSplineSet
EndChar

StartChar: threequarters
Encoding: 190 190 128
Width: 824
GlyphClass: 2
Flags: W
LayerCount: 2
Fore
SplineSet
218 0 m 1,0,-1
 182 26 l 1,1,-1
 604 710 l 1,2,-1
 642 686 l 1,3,-1
 218 0 l 1,0,-1
602 182 m 1,4,-1
 602 346 l 1,5,6
 590 329 590 329 566 296 c 0,7,8
 516 230 516 230 488 182 c 1,9,-1
 602 182 l 1,4,-1
702 32 m 1,10,-1
 560 32 l 1,11,-1
 560 52 l 1,12,-1
 578 52 l 2,13,14
 602 52 602 52 602 76 c 2,15,-1
 602 146 l 1,16,-1
 434 146 l 1,17,-1
 434 153 l 1,18,19
 473 215 473 215 530.5 288.5 c 128,-1,20
 588 362 588 362 602 380 c 1,21,22
 632 380 632 380 636 396 c 1,23,-1
 656 398 l 1,24,-1
 656 182 l 1,25,26
 712 182 712 182 719 212 c 1,27,-1
 736 208 l 1,28,-1
 718 146 l 1,29,-1
 656 146 l 1,30,-1
 656 76 l 2,31,32
 656 52 656 52 682 52 c 2,33,-1
 702 52 l 1,34,-1
 702 32 l 1,10,-1
130 453 m 1,35,-1
 142 453 l 1,36,37
 149 424 149 424 163.5 408 c 128,-1,38
 178 392 178 392 211 392 c 0,39,40
 298 392 298 392 298 480 c 0,41,42
 298 513 298 513 279 535.5 c 128,-1,43
 260 558 260 558 231.5 558 c 128,-1,44
 203 558 203 558 185 553 c 1,45,-1
 185 567 l 1,46,-1
 207 580 l 1,47,48
 259 607 259 607 259 656 c 0,49,50
 259 697 259 697 211 697 c 0,51,52
 180 697 180 697 152 670 c 0,53,54
 146 663 146 663 139 656 c 1,55,-1
 130 666 l 1,56,57
 170 732 170 732 251 732 c 0,58,59
 286 732 286 732 306 715.5 c 128,-1,60
 326 699 326 699 326 675 c 0,61,62
 326 622 326 622 243 581 c 1,63,-1
 244 579 l 1,64,65
 261 585 261 585 274 585 c 0,66,67
 312 585 312 585 336 562 c 128,-1,68
 360 539 360 539 360 497 c 0,69,70
 360 439 360 439 315.5 403 c 128,-1,71
 271 367 271 367 214.5 367 c 128,-1,72
 158 367 158 367 122 398 c 1,73,-1
 130 453 l 1,35,-1
EndSplineSet
EndChar

StartChar: questiondown
Encoding: 191 191 129
Width: 460
GlyphClass: 2
Flags: W
LayerCount: 2
Fore
SplineSet
350 464.5 m 128,-1,1
 362 449 362 449 362 427 c 128,-1,2
 362 405 362 405 343.5 388.5 c 128,-1,3
 325 372 325 372 303 372 c 128,-1,4
 281 372 281 372 267.5 387 c 128,-1,5
 254 402 254 402 254 425.5 c 128,-1,6
 254 449 254 449 273 464.5 c 128,-1,7
 292 480 292 480 315 480 c 128,-1,0
 338 480 338 480 350 464.5 c 128,-1,1
392 -104 m 1,8,-1
 408 -212 l 1,9,10
 343 -248 343 -248 276 -248 c 0,11,12
 193 -248 193 -248 122 -210 c 0,13,14
 84 -190 84 -190 61 -153 c 128,-1,15
 38 -116 38 -116 38 -66 c 0,16,17
 38 78 38 78 180 144 c 0,18,19
 181 144 181 144 196 150.5 c 128,-1,20
 211 157 211 157 215.5 160.5 c 128,-1,21
 220 164 220 164 234 172.5 c 128,-1,22
 248 181 248 181 254.5 190 c 128,-1,23
 261 199 261 199 270 212 c 0,24,25
 288 239 288 239 292 284 c 1,26,-1
 324 284 l 1,27,-1
 334 154 l 1,28,29
 265 122 265 122 199 66 c 0,30,31
 160 34 160 34 136 -10.5 c 128,-1,32
 112 -55 112 -55 112 -100 c 0,33,34
 112 -190 112 -190 234 -190 c 0,35,36
 294 -190 294 -190 330.5 -167 c 128,-1,37
 367 -144 367 -144 366 -104 c 1,38,-1
 392 -104 l 1,8,-1
EndSplineSet
EndChar

StartChar: Agrave
Encoding: 192 192 130
Width: 732
GlyphClass: 2
Flags: W
LayerCount: 2
Fore
SplineSet
722 0 m 1,0,-1
 466 0 l 1,1,-1
 466 28 l 1,2,-1
 498 28 l 2,3,4
 542 28 542 28 542 56 c 0,5,6
 542 60 542 60 532 90 c 1,7,-1
 464 268 l 1,8,-1
 212 268 l 1,9,-1
 146 98 l 2,10,11
 146 96 146 96 139 73.5 c 128,-1,12
 132 51 132 51 132 42.5 c 128,-1,13
 132 34 132 34 143 31 c 128,-1,14
 154 28 154 28 190 28 c 2,15,-1
 206 28 l 1,16,-1
 206 0 l 1,17,-1
 10 0 l 1,18,-1
 10 28 l 1,19,-1
 24 28 l 2,20,21
 57 28 57 28 72 39.5 c 128,-1,22
 87 51 87 51 98 78 c 2,23,-1
 318 652 l 1,24,25
 326 653 326 653 348.5 680 c 128,-1,26
 371 707 371 707 371 710 c 128,-1,27
 371 713 371 713 370 714 c 1,28,-1
 384 718 l 1,29,-1
 630 74 l 1,30,31
 641 51 641 51 652.5 39.5 c 128,-1,32
 664 28 664 28 686 28 c 2,33,-1
 722 28 l 1,34,-1
 722 0 l 1,0,-1
446 310 m 1,35,-1
 338 596 l 1,36,-1
 228 310 l 1,37,-1
 446 310 l 1,35,-1
428 760 m 1,38,-1
 249 842 l 1,39,-1
 301 900 l 1,40,-1
 447 782 l 1,41,-1
 428 760 l 1,38,-1
EndSplineSet
EndChar

StartChar: Aacute
Encoding: 193 193 131
Width: 732
GlyphClass: 2
Flags: W
LayerCount: 2
Fore
SplineSet
722 0 m 1,0,-1
 466 0 l 1,1,-1
 466 28 l 1,2,-1
 498 28 l 2,3,4
 542 28 542 28 542 56 c 0,5,6
 542 60 542 60 532 90 c 1,7,-1
 464 268 l 1,8,-1
 212 268 l 1,9,-1
 146 98 l 2,10,11
 146 96 146 96 139 73.5 c 128,-1,12
 132 51 132 51 132 42.5 c 128,-1,13
 132 34 132 34 143 31 c 128,-1,14
 154 28 154 28 190 28 c 2,15,-1
 206 28 l 1,16,-1
 206 0 l 1,17,-1
 10 0 l 1,18,-1
 10 28 l 1,19,-1
 24 28 l 2,20,21
 57 28 57 28 72 39.5 c 128,-1,22
 87 51 87 51 98 78 c 2,23,-1
 318 652 l 1,24,25
 326 653 326 653 348.5 680 c 128,-1,26
 371 707 371 707 371 710 c 128,-1,27
 371 713 371 713 370 714 c 1,28,-1
 384 718 l 1,29,-1
 630 74 l 1,30,31
 641 51 641 51 652.5 39.5 c 128,-1,32
 664 28 664 28 686 28 c 2,33,-1
 722 28 l 1,34,-1
 722 0 l 1,0,-1
446 310 m 1,35,-1
 338 596 l 1,36,-1
 228 310 l 1,37,-1
 446 310 l 1,35,-1
481 842 m 1,38,-1
 302 760 l 1,39,-1
 283 782 l 1,40,-1
 429 900 l 1,41,-1
 481 842 l 1,38,-1
EndSplineSet
EndChar

StartChar: Acircumflex
Encoding: 194 194 132
Width: 732
GlyphClass: 2
Flags: W
LayerCount: 2
Fore
SplineSet
478 772 m 1,0,-1
 452 760 l 1,1,-1
 364 858 l 1,2,-1
 278 760 l 1,3,-1
 252 772 l 1,4,-1
 336 940 l 1,5,-1
 394 940 l 1,6,-1
 478 772 l 1,0,-1
722 0 m 1,7,-1
 466 0 l 1,8,-1
 466 28 l 1,9,-1
 498 28 l 2,10,11
 542 28 542 28 542 56 c 0,12,13
 542 60 542 60 532 90 c 1,14,-1
 464 268 l 1,15,-1
 212 268 l 1,16,-1
 146 98 l 2,17,18
 146 96 146 96 139 73.5 c 128,-1,19
 132 51 132 51 132 42.5 c 128,-1,20
 132 34 132 34 143 31 c 128,-1,21
 154 28 154 28 190 28 c 2,22,-1
 206 28 l 1,23,-1
 206 0 l 1,24,-1
 10 0 l 1,25,-1
 10 28 l 1,26,-1
 24 28 l 2,27,28
 57 28 57 28 72 39.5 c 128,-1,29
 87 51 87 51 98 78 c 2,30,-1
 318 652 l 1,31,32
 326 653 326 653 348.5 680 c 128,-1,33
 371 707 371 707 371 710 c 128,-1,34
 371 713 371 713 370 714 c 1,35,-1
 384 718 l 1,36,-1
 630 74 l 1,37,38
 641 51 641 51 652.5 39.5 c 128,-1,39
 664 28 664 28 686 28 c 2,40,-1
 722 28 l 1,41,-1
 722 0 l 1,7,-1
446 310 m 1,42,-1
 338 596 l 1,43,-1
 228 310 l 1,44,-1
 446 310 l 1,42,-1
EndSplineSet
EndChar

StartChar: Atilde
Encoding: 195 195 133
Width: 732
GlyphClass: 2
Flags: W
LayerCount: 2
Fore
SplineSet
508 896 m 1,0,-1
 522 880 l 1,1,2
 454 802 454 802 392 802 c 0,3,4
 375 802 375 802 343 834 c 128,-1,5
 311 866 311 866 288.5 866 c 128,-1,6
 266 866 266 866 222 822 c 1,7,-1
 208 836 l 1,8,9
 283 916 283 916 338 916 c 0,10,11
 357 916 357 916 389.5 883 c 128,-1,12
 422 850 422 850 446 850 c 128,-1,13
 470 850 470 850 508 896 c 1,0,-1
722 0 m 1,14,-1
 466 0 l 1,15,-1
 466 28 l 1,16,-1
 498 28 l 2,17,18
 542 28 542 28 542 56 c 0,19,20
 542 60 542 60 532 90 c 1,21,-1
 464 268 l 1,22,-1
 212 268 l 1,23,-1
 146 98 l 2,24,25
 146 96 146 96 139 73.5 c 128,-1,26
 132 51 132 51 132 42.5 c 128,-1,27
 132 34 132 34 143 31 c 128,-1,28
 154 28 154 28 190 28 c 2,29,-1
 206 28 l 1,30,-1
 206 0 l 1,31,-1
 10 0 l 1,32,-1
 10 28 l 1,33,-1
 24 28 l 2,34,35
 57 28 57 28 72 39.5 c 128,-1,36
 87 51 87 51 98 78 c 2,37,-1
 318 652 l 1,38,39
 326 653 326 653 348.5 680 c 128,-1,40
 371 707 371 707 371 710 c 128,-1,41
 371 713 371 713 370 714 c 1,42,-1
 384 718 l 1,43,-1
 630 74 l 1,44,45
 641 51 641 51 652.5 39.5 c 128,-1,46
 664 28 664 28 686 28 c 2,47,-1
 722 28 l 1,48,-1
 722 0 l 1,14,-1
446 310 m 1,49,-1
 338 596 l 1,50,-1
 228 310 l 1,51,-1
 446 310 l 1,49,-1
EndSplineSet
EndChar

StartChar: Adieresis
Encoding: 196 196 134
Width: 732
GlyphClass: 2
Flags: W
LayerCount: 2
Fore
SplineSet
722 0 m 1,0,-1
 466 0 l 1,1,-1
 466 28 l 1,2,-1
 498 28 l 2,3,4
 542 28 542 28 542 56 c 0,5,6
 542 60 542 60 532 90 c 1,7,-1
 464 268 l 1,8,-1
 212 268 l 1,9,-1
 146 98 l 2,10,11
 146 96 146 96 139 73.5 c 128,-1,12
 132 51 132 51 132 42.5 c 128,-1,13
 132 34 132 34 143 31 c 128,-1,14
 154 28 154 28 190 28 c 2,15,-1
 206 28 l 1,16,-1
 206 0 l 1,17,-1
 10 0 l 1,18,-1
 10 28 l 1,19,-1
 24 28 l 2,20,21
 57 28 57 28 72 39.5 c 128,-1,22
 87 51 87 51 98 78 c 2,23,-1
 318 652 l 1,24,25
 326 653 326 653 348.5 680 c 128,-1,26
 371 707 371 707 371 710 c 128,-1,27
 371 713 371 713 370 714 c 1,28,-1
 384 718 l 1,29,-1
 630 74 l 1,30,31
 641 51 641 51 652.5 39.5 c 128,-1,32
 664 28 664 28 686 28 c 2,33,-1
 722 28 l 1,34,-1
 722 0 l 1,0,-1
446 310 m 1,35,-1
 338 596 l 1,36,-1
 228 310 l 1,37,-1
 446 310 l 1,35,-1
304.5 915 m 128,-1,39
 318 900 318 900 318 876.5 c 128,-1,40
 318 853 318 853 299 837.5 c 128,-1,41
 280 822 280 822 257 822 c 128,-1,42
 234 822 234 822 222 837.5 c 128,-1,43
 210 853 210 853 210 875 c 128,-1,44
 210 897 210 897 228.5 913.5 c 128,-1,45
 247 930 247 930 269 930 c 128,-1,38
 291 930 291 930 304.5 915 c 128,-1,39
507.5 915 m 128,-1,47
 520 900 520 900 520 876.5 c 128,-1,48
 520 853 520 853 501 837.5 c 128,-1,49
 482 822 482 822 459.5 822 c 128,-1,50
 437 822 437 822 424.5 837 c 128,-1,51
 412 852 412 852 412 874.5 c 128,-1,52
 412 897 412 897 431 913.5 c 128,-1,53
 450 930 450 930 472.5 930 c 128,-1,46
 495 930 495 930 507.5 915 c 128,-1,47
EndSplineSet
EndChar

StartChar: Aring
Encoding: 197 197 135
Width: 732
GlyphClass: 2
Flags: W
LayerCount: 2
Fore
SplineSet
434 872 m 128,-1,1
 434 902 434 902 415 921 c 128,-1,2
 396 940 396 940 366 940 c 128,-1,3
 336 940 336 940 317 921 c 128,-1,4
 298 902 298 902 298 872 c 128,-1,5
 298 842 298 842 317 824 c 128,-1,6
 336 806 336 806 366 806 c 128,-1,7
 396 806 396 806 415 824 c 128,-1,0
 434 842 434 842 434 872 c 128,-1,1
441 947.5 m 128,-1,9
 472 917 472 917 472 873 c 128,-1,10
 472 829 472 829 441 798.5 c 128,-1,11
 410 768 410 768 365.5 768 c 128,-1,12
 321 768 321 768 290.5 798 c 128,-1,13
 260 828 260 828 260 872.5 c 128,-1,14
 260 917 260 917 290.5 947.5 c 128,-1,15
 321 978 321 978 365.5 978 c 128,-1,8
 410 978 410 978 441 947.5 c 128,-1,9
722 0 m 1,16,-1
 466 0 l 1,17,-1
 466 28 l 1,18,-1
 498 28 l 2,19,20
 542 28 542 28 542 56 c 0,21,22
 542 60 542 60 532 90 c 1,23,-1
 464 268 l 1,24,-1
 212 268 l 1,25,-1
 146 98 l 2,26,27
 146 96 146 96 139 73.5 c 128,-1,28
 132 51 132 51 132 42.5 c 128,-1,29
 132 34 132 34 143 31 c 128,-1,30
 154 28 154 28 190 28 c 2,31,-1
 206 28 l 1,32,-1
 206 0 l 1,33,-1
 10 0 l 1,34,-1
 10 28 l 1,35,-1
 24 28 l 2,36,37
 57 28 57 28 72 39.5 c 128,-1,38
 87 51 87 51 98 78 c 2,39,-1
 318 652 l 1,40,41
 326 653 326 653 348.5 680 c 128,-1,42
 371 707 371 707 371 710 c 128,-1,43
 371 713 371 713 370 714 c 1,44,-1
 384 718 l 1,45,-1
 630 74 l 1,46,47
 641 51 641 51 652.5 39.5 c 128,-1,48
 664 28 664 28 686 28 c 2,49,-1
 722 28 l 1,50,-1
 722 0 l 1,16,-1
446 310 m 1,51,-1
 338 596 l 1,52,-1
 228 310 l 1,53,-1
 446 310 l 1,51,-1
EndSplineSet
EndChar

StartChar: AE
Encoding: 198 198 136
Width: 1006
GlyphClass: 2
Flags: W
LayerCount: 2
Fore
SplineSet
942 0 m 1,0,-1
 404 0 l 1,1,-1
 404 28 l 1,2,-1
 438 28 l 2,3,4
 467 28 467 28 476.5 39 c 128,-1,5
 486 50 486 50 486 74 c 2,6,-1
 486 326 l 1,7,-1
 300 326 l 1,8,-1
 172 98 l 1,9,10
 148 58 148 58 148 45.5 c 128,-1,11
 148 33 148 33 159.5 30.5 c 128,-1,12
 171 28 171 28 204 28 c 2,13,-1
 220 28 l 1,14,-1
 220 0 l 1,15,-1
 22 0 l 1,16,-1
 22 28 l 1,17,-1
 36 28 l 2,18,19
 69 28 69 28 85 39.5 c 128,-1,20
 101 51 101 51 116 78 c 2,21,-1
 440 672 l 1,22,-1
 376 672 l 1,23,-1
 376 700 l 1,24,-1
 934 700 l 1,25,-1
 944 562 l 1,26,-1
 916 556 l 1,27,28
 914 592 914 592 885 625 c 128,-1,29
 856 658 856 658 804 658 c 2,30,-1
 624 658 l 2,31,32
 602 658 602 658 591 651 c 128,-1,33
 580 644 580 644 578 636 c 128,-1,34
 576 628 576 628 576 614 c 2,35,-1
 576 370 l 1,36,-1
 776 370 l 2,37,38
 790 370 790 370 798 371.5 c 128,-1,39
 806 373 806 373 813 382 c 128,-1,40
 820 391 820 391 820 408 c 2,41,-1
 820 454 l 1,42,-1
 850 454 l 1,43,-1
 850 246 l 1,44,-1
 820 246 l 1,45,-1
 820 288 l 2,46,47
 820 312 820 312 808 320 c 128,-1,48
 796 328 796 328 776 328 c 2,49,-1
 576 328 l 1,50,-1
 576 86 l 2,51,52
 576 72 576 72 578 64 c 128,-1,53
 580 56 580 56 591 49 c 128,-1,54
 602 42 602 42 624 42 c 2,55,-1
 812 42 l 2,56,57
 866 42 866 42 906 76 c 128,-1,58
 946 110 946 110 948 142 c 1,59,-1
 976 138 l 1,60,-1
 942 0 l 1,0,-1
486 370 m 1,61,-1
 486 666 l 1,62,-1
 484 666 l 1,63,-1
 324 370 l 1,64,-1
 486 370 l 1,61,-1
EndSplineSet
EndChar

StartChar: Ccedilla
Encoding: 199 199 137
Width: 696
GlyphClass: 2
Flags: W
LayerCount: 2
Fore
SplineSet
266 -162 m 1,0,1
 283 -188 283 -188 316.5 -188 c 128,-1,2
 350 -188 350 -188 370 -174 c 128,-1,3
 390 -160 390 -160 390 -131 c 0,4,5
 390 -92 390 -92 338 -92 c 0,6,7
 310 -92 310 -92 288 -108 c 1,8,-1
 280 -100 l 1,9,-1
 298 -18 l 1,10,11
 192 -3 192 -3 114 94 c 128,-1,12
 36 191 36 191 36 310 c 0,13,14
 36 471 36 471 157.5 594.5 c 128,-1,15
 279 718 279 718 440 718 c 0,16,17
 504 718 504 718 600 686 c 1,18,-1
 588 546 l 1,19,-1
 554 546 l 1,20,21
 554 583 554 583 529 604 c 128,-1,22
 504 625 504 625 472.5 630.5 c 128,-1,23
 441 636 441 636 394 636 c 0,24,25
 278 636 278 636 192 568 c 128,-1,26
 106 500 106 500 106 382 c 0,27,28
 106 296 106 296 138 229 c 128,-1,29
 170 162 170 162 218 126 c 0,30,31
 313 56 313 56 400 56 c 0,32,33
 454 56 454 56 520 91 c 128,-1,34
 586 126 586 126 642 196 c 1,35,-1
 666 160 l 1,36,37
 510 -17 510 -17 332 -20 c 1,38,-1
 318 -70 l 1,39,40
 345 -52 345 -52 377.5 -52 c 128,-1,41
 410 -52 410 -52 427 -68.5 c 128,-1,42
 444 -85 444 -85 444 -108 c 0,43,44
 444 -150 444 -150 404.5 -182 c 128,-1,45
 365 -214 365 -214 322.5 -214 c 128,-1,46
 280 -214 280 -214 252 -180 c 1,47,-1
 266 -162 l 1,0,1
EndSplineSet
EndChar

StartChar: Egrave
Encoding: 200 200 138
Width: 640
GlyphClass: 2
Flags: W
LayerCount: 2
Fore
SplineSet
576 0 m 1,0,-1
 40 0 l 1,1,-1
 40 28 l 1,2,-1
 74 28 l 2,3,4
 103 28 103 28 112.5 39 c 128,-1,5
 122 50 122 50 122 74 c 2,6,-1
 122 626 l 2,7,8
 122 646 122 646 109.5 659 c 128,-1,9
 97 672 97 672 74 672 c 2,10,-1
 40 672 l 1,11,-1
 40 700 l 1,12,-1
 568 700 l 1,13,-1
 576 562 l 1,14,-1
 548 556 l 1,15,16
 548 592 548 592 519 625 c 128,-1,17
 490 658 490 658 438 658 c 2,18,-1
 256 658 l 2,19,20
 226 658 226 658 217 646.5 c 128,-1,21
 208 635 208 635 208 614 c 2,22,-1
 208 386 l 1,23,-1
 408 386 l 2,24,25
 423 386 423 386 431 387.5 c 128,-1,26
 439 389 439 389 445.5 398 c 128,-1,27
 452 407 452 407 452 424 c 2,28,-1
 452 470 l 1,29,-1
 482 470 l 1,30,-1
 482 262 l 1,31,-1
 452 262 l 1,32,-1
 452 304 l 2,33,34
 452 329 452 329 441 336.5 c 128,-1,35
 430 344 430 344 408 344 c 2,36,-1
 208 344 l 1,37,-1
 208 86 l 2,38,39
 208 65 208 65 217 53.5 c 128,-1,40
 226 42 226 42 256 42 c 2,41,-1
 446 42 l 2,42,43
 499 42 499 42 539.5 76 c 128,-1,44
 580 110 580 110 582 142 c 1,45,-1
 610 138 l 1,46,-1
 576 0 l 1,0,-1
382 760 m 1,47,-1
 203 842 l 1,48,-1
 255 900 l 1,49,-1
 401 782 l 1,50,-1
 382 760 l 1,47,-1
EndSplineSet
EndChar

StartChar: Eacute
Encoding: 201 201 139
Width: 640
GlyphClass: 2
Flags: W
LayerCount: 2
Fore
SplineSet
576 0 m 1,0,-1
 40 0 l 1,1,-1
 40 28 l 1,2,-1
 74 28 l 2,3,4
 103 28 103 28 112.5 39 c 128,-1,5
 122 50 122 50 122 74 c 2,6,-1
 122 626 l 2,7,8
 122 646 122 646 109.5 659 c 128,-1,9
 97 672 97 672 74 672 c 2,10,-1
 40 672 l 1,11,-1
 40 700 l 1,12,-1
 568 700 l 1,13,-1
 576 562 l 1,14,-1
 548 556 l 1,15,16
 548 592 548 592 519 625 c 128,-1,17
 490 658 490 658 438 658 c 2,18,-1
 256 658 l 2,19,20
 226 658 226 658 217 646.5 c 128,-1,21
 208 635 208 635 208 614 c 2,22,-1
 208 386 l 1,23,-1
 408 386 l 2,24,25
 423 386 423 386 431 387.5 c 128,-1,26
 439 389 439 389 445.5 398 c 128,-1,27
 452 407 452 407 452 424 c 2,28,-1
 452 470 l 1,29,-1
 482 470 l 1,30,-1
 482 262 l 1,31,-1
 452 262 l 1,32,-1
 452 304 l 2,33,34
 452 329 452 329 441 336.5 c 128,-1,35
 430 344 430 344 408 344 c 2,36,-1
 208 344 l 1,37,-1
 208 86 l 2,38,39
 208 65 208 65 217 53.5 c 128,-1,40
 226 42 226 42 256 42 c 2,41,-1
 446 42 l 2,42,43
 499 42 499 42 539.5 76 c 128,-1,44
 580 110 580 110 582 142 c 1,45,-1
 610 138 l 1,46,-1
 576 0 l 1,0,-1
481 842 m 1,47,-1
 302 760 l 1,48,-1
 283 782 l 1,49,-1
 429 900 l 1,50,-1
 481 842 l 1,47,-1
EndSplineSet
EndChar

StartChar: Ecircumflex
Encoding: 202 202 140
Width: 640
GlyphClass: 2
Flags: W
LayerCount: 2
Fore
SplineSet
432 772 m 1,0,-1
 406 760 l 1,1,-1
 318 858 l 1,2,-1
 232 760 l 1,3,-1
 206 772 l 1,4,-1
 290 940 l 1,5,-1
 348 940 l 1,6,-1
 432 772 l 1,0,-1
576 0 m 1,7,-1
 40 0 l 1,8,-1
 40 28 l 1,9,-1
 74 28 l 2,10,11
 103 28 103 28 112.5 39 c 128,-1,12
 122 50 122 50 122 74 c 2,13,-1
 122 626 l 2,14,15
 122 646 122 646 109.5 659 c 128,-1,16
 97 672 97 672 74 672 c 2,17,-1
 40 672 l 1,18,-1
 40 700 l 1,19,-1
 568 700 l 1,20,-1
 576 562 l 1,21,-1
 548 556 l 1,22,23
 548 592 548 592 519 625 c 128,-1,24
 490 658 490 658 438 658 c 2,25,-1
 256 658 l 2,26,27
 226 658 226 658 217 646.5 c 128,-1,28
 208 635 208 635 208 614 c 2,29,-1
 208 386 l 1,30,-1
 408 386 l 2,31,32
 423 386 423 386 431 387.5 c 128,-1,33
 439 389 439 389 445.5 398 c 128,-1,34
 452 407 452 407 452 424 c 2,35,-1
 452 470 l 1,36,-1
 482 470 l 1,37,-1
 482 262 l 1,38,-1
 452 262 l 1,39,-1
 452 304 l 2,40,41
 452 329 452 329 441 336.5 c 128,-1,42
 430 344 430 344 408 344 c 2,43,-1
 208 344 l 1,44,-1
 208 86 l 2,45,46
 208 65 208 65 217 53.5 c 128,-1,47
 226 42 226 42 256 42 c 2,48,-1
 446 42 l 2,49,50
 499 42 499 42 539.5 76 c 128,-1,51
 580 110 580 110 582 142 c 1,52,-1
 610 138 l 1,53,-1
 576 0 l 1,7,-1
EndSplineSet
EndChar

StartChar: Edieresis
Encoding: 203 203 141
Width: 640
GlyphClass: 2
Flags: W
LayerCount: 2
Fore
SplineSet
258.5 915 m 128,-1,1
 272 900 272 900 272 876.5 c 128,-1,2
 272 853 272 853 253 837.5 c 128,-1,3
 234 822 234 822 211 822 c 128,-1,4
 188 822 188 822 176 837.5 c 128,-1,5
 164 853 164 853 164 875 c 128,-1,6
 164 897 164 897 182.5 913.5 c 128,-1,7
 201 930 201 930 223 930 c 128,-1,0
 245 930 245 930 258.5 915 c 128,-1,1
461.5 915 m 128,-1,9
 474 900 474 900 474 876.5 c 128,-1,10
 474 853 474 853 455 837.5 c 128,-1,11
 436 822 436 822 413.5 822 c 128,-1,12
 391 822 391 822 378.5 837 c 128,-1,13
 366 852 366 852 366 874.5 c 128,-1,14
 366 897 366 897 385 913.5 c 128,-1,15
 404 930 404 930 426.5 930 c 128,-1,8
 449 930 449 930 461.5 915 c 128,-1,9
576 0 m 1,16,-1
 40 0 l 1,17,-1
 40 28 l 1,18,-1
 74 28 l 2,19,20
 103 28 103 28 112.5 39 c 128,-1,21
 122 50 122 50 122 74 c 2,22,-1
 122 626 l 2,23,24
 122 646 122 646 109.5 659 c 128,-1,25
 97 672 97 672 74 672 c 2,26,-1
 40 672 l 1,27,-1
 40 700 l 1,28,-1
 568 700 l 1,29,-1
 576 562 l 1,30,-1
 548 556 l 1,31,32
 548 592 548 592 519 625 c 128,-1,33
 490 658 490 658 438 658 c 2,34,-1
 256 658 l 2,35,36
 226 658 226 658 217 646.5 c 128,-1,37
 208 635 208 635 208 614 c 2,38,-1
 208 386 l 1,39,-1
 408 386 l 2,40,41
 423 386 423 386 431 387.5 c 128,-1,42
 439 389 439 389 445.5 398 c 128,-1,43
 452 407 452 407 452 424 c 2,44,-1
 452 470 l 1,45,-1
 482 470 l 1,46,-1
 482 262 l 1,47,-1
 452 262 l 1,48,-1
 452 304 l 2,49,50
 452 329 452 329 441 336.5 c 128,-1,51
 430 344 430 344 408 344 c 2,52,-1
 208 344 l 1,53,-1
 208 86 l 2,54,55
 208 65 208 65 217 53.5 c 128,-1,56
 226 42 226 42 256 42 c 2,57,-1
 446 42 l 2,58,59
 499 42 499 42 539.5 76 c 128,-1,60
 580 110 580 110 582 142 c 1,61,-1
 610 138 l 1,62,-1
 576 0 l 1,16,-1
EndSplineSet
EndChar

StartChar: Igrave
Encoding: 204 204 142
Width: 334
GlyphClass: 2
Flags: W
LayerCount: 2
Fore
SplineSet
294 0 m 1,0,-1
 40 0 l 1,1,-1
 40 28 l 1,2,-1
 74 28 l 2,3,4
 104 28 104 28 113 40 c 128,-1,5
 122 52 122 52 122 74 c 2,6,-1
 122 626 l 2,7,8
 122 648 122 648 113 660 c 128,-1,9
 104 672 104 672 74 672 c 2,10,-1
 40 672 l 1,11,-1
 40 700 l 1,12,-1
 294 700 l 1,13,-1
 294 672 l 1,14,-1
 256 672 l 2,15,16
 226 672 226 672 217 660 c 128,-1,17
 208 648 208 648 208 626 c 2,18,-1
 208 74 l 2,19,20
 208 52 208 52 217 40 c 128,-1,21
 226 28 226 28 256 28 c 2,22,-1
 294 28 l 1,23,-1
 294 0 l 1,0,-1
230 760 m 1,24,-1
 51 842 l 1,25,-1
 103 900 l 1,26,-1
 249 782 l 1,27,-1
 230 760 l 1,24,-1
EndSplineSet
EndChar

StartChar: Iacute
Encoding: 205 205 143
Width: 334
GlyphClass: 2
Flags: W
LayerCount: 2
Fore
SplineSet
294 0 m 1,0,-1
 40 0 l 1,1,-1
 40 28 l 1,2,-1
 74 28 l 2,3,4
 104 28 104 28 113 40 c 128,-1,5
 122 52 122 52 122 74 c 2,6,-1
 122 626 l 2,7,8
 122 648 122 648 113 660 c 128,-1,9
 104 672 104 672 74 672 c 2,10,-1
 40 672 l 1,11,-1
 40 700 l 1,12,-1
 294 700 l 1,13,-1
 294 672 l 1,14,-1
 256 672 l 2,15,16
 226 672 226 672 217 660 c 128,-1,17
 208 648 208 648 208 626 c 2,18,-1
 208 74 l 2,19,20
 208 52 208 52 217 40 c 128,-1,21
 226 28 226 28 256 28 c 2,22,-1
 294 28 l 1,23,-1
 294 0 l 1,0,-1
281 842 m 1,24,-1
 102 760 l 1,25,-1
 83 782 l 1,26,-1
 229 900 l 1,27,-1
 281 842 l 1,24,-1
EndSplineSet
EndChar

StartChar: Icircumflex
Encoding: 206 206 144
Width: 334
GlyphClass: 2
Flags: W
LayerCount: 2
Fore
SplineSet
280 772 m 1,0,-1
 254 760 l 1,1,-1
 166 858 l 1,2,-1
 80 760 l 1,3,-1
 54 772 l 1,4,-1
 138 940 l 1,5,-1
 196 940 l 1,6,-1
 280 772 l 1,0,-1
294 0 m 1,7,-1
 40 0 l 1,8,-1
 40 28 l 1,9,-1
 74 28 l 2,10,11
 104 28 104 28 113 40 c 128,-1,12
 122 52 122 52 122 74 c 2,13,-1
 122 626 l 2,14,15
 122 648 122 648 113 660 c 128,-1,16
 104 672 104 672 74 672 c 2,17,-1
 40 672 l 1,18,-1
 40 700 l 1,19,-1
 294 700 l 1,20,-1
 294 672 l 1,21,-1
 256 672 l 2,22,23
 226 672 226 672 217 660 c 128,-1,24
 208 648 208 648 208 626 c 2,25,-1
 208 74 l 2,26,27
 208 52 208 52 217 40 c 128,-1,28
 226 28 226 28 256 28 c 2,29,-1
 294 28 l 1,30,-1
 294 0 l 1,7,-1
EndSplineSet
EndChar

StartChar: Idieresis
Encoding: 207 207 145
Width: 334
GlyphClass: 2
Flags: W
LayerCount: 2
Fore
SplineSet
106.5 915 m 128,-1,1
 120 900 120 900 120 876.5 c 128,-1,2
 120 853 120 853 101 837.5 c 128,-1,3
 82 822 82 822 59 822 c 128,-1,4
 36 822 36 822 24 837.5 c 128,-1,5
 12 853 12 853 12 875 c 128,-1,6
 12 897 12 897 30.5 913.5 c 128,-1,7
 49 930 49 930 71 930 c 128,-1,0
 93 930 93 930 106.5 915 c 128,-1,1
309.5 915 m 128,-1,9
 322 900 322 900 322 876.5 c 128,-1,10
 322 853 322 853 303 837.5 c 128,-1,11
 284 822 284 822 261.5 822 c 128,-1,12
 239 822 239 822 226.5 837 c 128,-1,13
 214 852 214 852 214 874.5 c 128,-1,14
 214 897 214 897 233 913.5 c 128,-1,15
 252 930 252 930 274.5 930 c 128,-1,8
 297 930 297 930 309.5 915 c 128,-1,9
294 0 m 1,16,-1
 40 0 l 1,17,-1
 40 28 l 1,18,-1
 74 28 l 2,19,20
 104 28 104 28 113 40 c 128,-1,21
 122 52 122 52 122 74 c 2,22,-1
 122 626 l 2,23,24
 122 648 122 648 113 660 c 128,-1,25
 104 672 104 672 74 672 c 2,26,-1
 40 672 l 1,27,-1
 40 700 l 1,28,-1
 294 700 l 1,29,-1
 294 672 l 1,30,-1
 256 672 l 2,31,32
 226 672 226 672 217 660 c 128,-1,33
 208 648 208 648 208 626 c 2,34,-1
 208 74 l 2,35,36
 208 52 208 52 217 40 c 128,-1,37
 226 28 226 28 256 28 c 2,38,-1
 294 28 l 1,39,-1
 294 0 l 1,16,-1
EndSplineSet
EndChar

StartChar: Eth
Encoding: 208 208 146
Width: 778
GlyphClass: 2
Flags: W
LayerCount: 2
Fore
SplineSet
356 0 m 2,0,-1
 30 0 l 1,1,-1
 30 30 l 1,2,-1
 74 30 l 2,3,4
 104 30 104 30 113 41 c 128,-1,5
 122 52 122 52 122 74 c 2,6,-1
 122 344 l 1,7,-1
 40 344 l 1,8,-1
 40 386 l 1,9,-1
 122 386 l 1,10,-1
 122 626 l 2,11,12
 122 649 122 649 112.5 659.5 c 128,-1,13
 103 670 103 670 74 670 c 2,14,-1
 30 670 l 1,15,-1
 30 700 l 1,16,-1
 196 700 l 1,17,18
 398 710 398 710 442 710 c 0,19,20
 581 710 581 710 661.5 620 c 128,-1,21
 742 530 742 530 742 379.5 c 128,-1,22
 742 229 742 229 626.5 114.5 c 128,-1,23
 511 0 511 0 356 0 c 2,0,-1
400 344 m 1,24,-1
 208 344 l 1,25,-1
 208 90 l 1,26,27
 266 56 266 56 366 56 c 0,28,29
 485 56 485 56 576 121 c 0,30,31
 622 154 622 154 649 213 c 128,-1,32
 676 272 676 272 676 346.5 c 128,-1,33
 676 421 676 421 646.5 479 c 128,-1,34
 617 537 617 537 570 572 c 0,35,36
 475 644 475 644 374 644 c 1,37,-1
 208 634 l 1,38,-1
 208 386 l 1,39,-1
 400 386 l 1,40,-1
 400 344 l 1,24,-1
EndSplineSet
EndChar

StartChar: Ntilde
Encoding: 209 209 147
Width: 798
GlyphClass: 2
Flags: W
LayerCount: 2
Fore
SplineSet
622 -16 m 2,0,-1
 180 576 l 1,1,-1
 180 74 l 2,2,3
 180 30 180 30 242 30 c 2,4,-1
 280 30 l 1,5,-1
 280 0 l 1,6,-1
 40 0 l 1,7,-1
 40 30 l 1,8,-1
 72 30 l 2,9,10
 134 30 134 30 134 74 c 2,11,-1
 134 626 l 2,12,13
 134 670 134 670 72 670 c 2,14,-1
 40 670 l 1,15,-1
 40 700 l 1,16,-1
 198 700 l 1,17,-1
 610 146 l 1,18,-1
 610 626 l 2,19,20
 610 670 610 670 550 670 c 2,21,-1
 516 670 l 1,22,-1
 516 700 l 1,23,-1
 756 700 l 1,24,-1
 756 670 l 1,25,-1
 718 670 l 2,26,27
 656 670 656 670 656 626 c 2,28,-1
 656 4 l 1,29,30
 644 4 644 4 632.5 -5 c 128,-1,31
 621 -14 621 -14 622 -16 c 2,0,-1
542 846 m 1,32,-1
 556 832 l 1,33,34
 485 752 485 752 426 752 c 0,35,36
 401 752 401 752 370 792 c 0,37,38
 351 816 351 816 324.5 816 c 128,-1,39
 298 816 298 816 254 772 c 1,40,-1
 240 786 l 1,41,42
 311 866 311 866 370 866 c 0,43,44
 388 866 388 866 426 828 c 1,45,46
 449 802 449 802 473.5 802 c 128,-1,47
 498 802 498 802 542 846 c 1,32,-1
EndSplineSet
EndChar

StartChar: Ograve
Encoding: 210 210 148
Width: 764
GlyphClass: 2
Flags: W
LayerCount: 2
Fore
SplineSet
342 -20 m 0,0,1
 211 -20 211 -20 123.5 81 c 128,-1,2
 36 182 36 182 36 314 c 0,3,4
 36 396 36 396 72 472 c 128,-1,5
 108 548 108 548 164.5 601 c 128,-1,6
 221 654 221 654 289.5 686 c 128,-1,7
 358 718 358 718 422 718 c 0,8,9
 552 718 552 718 640 617 c 128,-1,10
 728 516 728 516 728 384 c 0,11,12
 728 286 728 286 675 192.5 c 128,-1,13
 622 99 622 99 531.5 39.5 c 128,-1,14
 441 -20 441 -20 342 -20 c 0,0,1
404 56 m 0,15,16
 513 56 513 56 587.5 136 c 128,-1,17
 662 216 662 216 662 334 c 128,-1,18
 662 452 662 452 575.5 546 c 128,-1,19
 489 640 489 640 366 640 c 0,20,21
 261 640 261 640 181.5 564.5 c 128,-1,22
 102 489 102 489 102 384 c 0,23,24
 102 248 102 248 185.5 152 c 128,-1,25
 269 56 269 56 404 56 c 0,15,16
444 760 m 1,26,-1
 265 842 l 1,27,-1
 317 900 l 1,28,-1
 463 782 l 1,29,-1
 444 760 l 1,26,-1
EndSplineSet
EndChar

StartChar: Oacute
Encoding: 211 211 149
Width: 764
GlyphClass: 2
Flags: W
LayerCount: 2
Fore
SplineSet
342 -20 m 0,0,1
 211 -20 211 -20 123.5 81 c 128,-1,2
 36 182 36 182 36 314 c 0,3,4
 36 396 36 396 72 472 c 128,-1,5
 108 548 108 548 164.5 601 c 128,-1,6
 221 654 221 654 289.5 686 c 128,-1,7
 358 718 358 718 422 718 c 0,8,9
 552 718 552 718 640 617 c 128,-1,10
 728 516 728 516 728 384 c 0,11,12
 728 286 728 286 675 192.5 c 128,-1,13
 622 99 622 99 531.5 39.5 c 128,-1,14
 441 -20 441 -20 342 -20 c 0,0,1
404 56 m 0,15,16
 513 56 513 56 587.5 136 c 128,-1,17
 662 216 662 216 662 334 c 128,-1,18
 662 452 662 452 575.5 546 c 128,-1,19
 489 640 489 640 366 640 c 0,20,21
 261 640 261 640 181.5 564.5 c 128,-1,22
 102 489 102 489 102 384 c 0,23,24
 102 248 102 248 185.5 152 c 128,-1,25
 269 56 269 56 404 56 c 0,15,16
497 842 m 1,26,-1
 318 760 l 1,27,-1
 299 782 l 1,28,-1
 445 900 l 1,29,-1
 497 842 l 1,26,-1
EndSplineSet
EndChar

StartChar: Ocircumflex
Encoding: 212 212 150
Width: 764
GlyphClass: 2
Flags: W
LayerCount: 2
Fore
SplineSet
496 772 m 1,0,-1
 470 760 l 1,1,-1
 382 858 l 1,2,-1
 294 760 l 1,3,-1
 268 772 l 1,4,-1
 354 940 l 1,5,-1
 410 940 l 1,6,-1
 496 772 l 1,0,-1
342 -20 m 0,7,8
 211 -20 211 -20 123.5 81 c 128,-1,9
 36 182 36 182 36 314 c 0,10,11
 36 396 36 396 72 472 c 128,-1,12
 108 548 108 548 164.5 601 c 128,-1,13
 221 654 221 654 289.5 686 c 128,-1,14
 358 718 358 718 422 718 c 0,15,16
 552 718 552 718 640 617 c 128,-1,17
 728 516 728 516 728 384 c 0,18,19
 728 286 728 286 675 192.5 c 128,-1,20
 622 99 622 99 531.5 39.5 c 128,-1,21
 441 -20 441 -20 342 -20 c 0,7,8
404 56 m 0,22,23
 513 56 513 56 587.5 136 c 128,-1,24
 662 216 662 216 662 334 c 128,-1,25
 662 452 662 452 575.5 546 c 128,-1,26
 489 640 489 640 366 640 c 0,27,28
 261 640 261 640 181.5 564.5 c 128,-1,29
 102 489 102 489 102 384 c 0,30,31
 102 248 102 248 185.5 152 c 128,-1,32
 269 56 269 56 404 56 c 0,22,23
EndSplineSet
EndChar

StartChar: Otilde
Encoding: 213 213 151
Width: 764
GlyphClass: 2
Flags: W
LayerCount: 2
Fore
SplineSet
524 896 m 1,0,-1
 538 880 l 1,1,2
 470 802 470 802 408 802 c 0,3,4
 391 802 391 802 359 834 c 128,-1,5
 327 866 327 866 304.5 866 c 128,-1,6
 282 866 282 866 238 822 c 1,7,-1
 224 836 l 1,8,9
 299 916 299 916 354 916 c 0,10,11
 373 916 373 916 405.5 883 c 128,-1,12
 438 850 438 850 462 850 c 128,-1,13
 486 850 486 850 524 896 c 1,0,-1
342 -20 m 0,14,15
 211 -20 211 -20 123.5 81 c 128,-1,16
 36 182 36 182 36 314 c 0,17,18
 36 396 36 396 72 472 c 128,-1,19
 108 548 108 548 164.5 601 c 128,-1,20
 221 654 221 654 289.5 686 c 128,-1,21
 358 718 358 718 422 718 c 0,22,23
 552 718 552 718 640 617 c 128,-1,24
 728 516 728 516 728 384 c 0,25,26
 728 286 728 286 675 192.5 c 128,-1,27
 622 99 622 99 531.5 39.5 c 128,-1,28
 441 -20 441 -20 342 -20 c 0,14,15
404 56 m 0,29,30
 513 56 513 56 587.5 136 c 128,-1,31
 662 216 662 216 662 334 c 128,-1,32
 662 452 662 452 575.5 546 c 128,-1,33
 489 640 489 640 366 640 c 0,34,35
 261 640 261 640 181.5 564.5 c 128,-1,36
 102 489 102 489 102 384 c 0,37,38
 102 248 102 248 185.5 152 c 128,-1,39
 269 56 269 56 404 56 c 0,29,30
EndSplineSet
EndChar

StartChar: Odieresis
Encoding: 214 214 152
Width: 764
GlyphClass: 2
Flags: W
LayerCount: 2
Fore
SplineSet
321.5 915 m 128,-1,1
 334 900 334 900 334 876.5 c 128,-1,2
 334 853 334 853 315 837.5 c 128,-1,3
 296 822 296 822 273.5 822 c 128,-1,4
 251 822 251 822 238.5 837 c 128,-1,5
 226 852 226 852 226 874.5 c 128,-1,6
 226 897 226 897 245 913.5 c 128,-1,7
 264 930 264 930 286.5 930 c 128,-1,0
 309 930 309 930 321.5 915 c 128,-1,1
524.5 915 m 128,-1,9
 538 900 538 900 538 876.5 c 128,-1,10
 538 853 538 853 519 837.5 c 128,-1,11
 500 822 500 822 477 822 c 128,-1,12
 454 822 454 822 442 837.5 c 128,-1,13
 430 853 430 853 430 875 c 128,-1,14
 430 897 430 897 448.5 913.5 c 128,-1,15
 467 930 467 930 489 930 c 128,-1,8
 511 930 511 930 524.5 915 c 128,-1,9
342 -20 m 0,16,17
 211 -20 211 -20 123.5 81 c 128,-1,18
 36 182 36 182 36 314 c 0,19,20
 36 396 36 396 72 472 c 128,-1,21
 108 548 108 548 164.5 601 c 128,-1,22
 221 654 221 654 289.5 686 c 128,-1,23
 358 718 358 718 422 718 c 0,24,25
 552 718 552 718 640 617 c 128,-1,26
 728 516 728 516 728 384 c 0,27,28
 728 286 728 286 675 192.5 c 128,-1,29
 622 99 622 99 531.5 39.5 c 128,-1,30
 441 -20 441 -20 342 -20 c 0,16,17
404 56 m 0,31,32
 513 56 513 56 587.5 136 c 128,-1,33
 662 216 662 216 662 334 c 128,-1,34
 662 452 662 452 575.5 546 c 128,-1,35
 489 640 489 640 366 640 c 0,36,37
 261 640 261 640 181.5 564.5 c 128,-1,38
 102 489 102 489 102 384 c 0,39,40
 102 248 102 248 185.5 152 c 128,-1,41
 269 56 269 56 404 56 c 0,31,32
EndSplineSet
EndChar

StartChar: multiply
Encoding: 215 215 153
Width: 574
GlyphClass: 2
Flags: W
LayerCount: 2
Fore
SplineSet
446 28 m 1,0,-1
 270 204 l 1,1,-1
 96 30 l 1,2,-1
 62 64 l 1,3,-1
 236 238 l 1,4,-1
 66 408 l 1,5,-1
 100 442 l 1,6,-1
 270 272 l 1,7,-1
 442 442 l 1,8,-1
 476 408 l 1,9,-1
 306 238 l 1,10,-1
 480 62 l 1,11,-1
 446 28 l 1,0,-1
EndSplineSet
EndChar

StartChar: Oslash
Encoding: 216 216 154
Width: 764
GlyphClass: 2
Flags: W
LayerCount: 2
Fore
SplineSet
130 -64 m 1,0,-1
 102 -44 l 1,1,-1
 158 48 l 1,2,3
 101 95 101 95 68.5 165.5 c 128,-1,4
 36 236 36 236 36 316 c 128,-1,5
 36 396 36 396 72 472 c 128,-1,6
 108 548 108 548 164.5 601 c 128,-1,7
 221 654 221 654 289.5 686 c 128,-1,8
 358 718 358 718 426 718 c 128,-1,9
 494 718 494 718 556 684 c 1,10,-1
 606 766 l 1,11,-1
 636 746 l 1,12,-1
 586 666 l 1,13,14
 652 620 652 620 690 543.5 c 128,-1,15
 728 467 728 467 728 376.5 c 128,-1,16
 728 286 728 286 675 192.5 c 128,-1,17
 622 99 622 99 531.5 39.5 c 128,-1,18
 441 -20 441 -20 349.5 -20 c 128,-1,19
 258 -20 258 -20 186 26 c 1,20,-1
 130 -64 l 1,0,-1
534 582 m 1,21,-1
 236 106 l 1,22,23
 308 56 308 56 410.5 56 c 128,-1,24
 513 56 513 56 587.5 136 c 128,-1,25
 662 216 662 216 662 326 c 0,26,27
 662 402 662 402 627.5 470 c 128,-1,28
 593 538 593 538 534 582 c 1,21,-1
208 128 m 1,29,-1
 504 602 l 1,30,31
 438 640 438 640 366 640 c 0,32,33
 261 640 261 640 181.5 564.5 c 128,-1,34
 102 489 102 489 102 384 c 0,35,36
 102 309 102 309 129.5 241.5 c 128,-1,37
 157 174 157 174 208 128 c 1,29,-1
EndSplineSet
EndChar

StartChar: Ugrave
Encoding: 217 217 155
Width: 794
GlyphClass: 2
Flags: W
LayerCount: 2
Fore
SplineSet
612 288 m 2,0,-1
 612 626 l 2,1,2
 612 670 612 670 550 670 c 2,3,-1
 518 670 l 1,4,-1
 518 700 l 1,5,-1
 758 700 l 1,6,-1
 758 670 l 1,7,-1
 720 670 l 2,8,9
 687 670 687 670 670.5 657.5 c 128,-1,10
 654 645 654 645 654 626 c 2,11,-1
 654 288 l 2,12,13
 654 212 654 212 626.5 150.5 c 128,-1,14
 599 89 599 89 556 53 c 0,15,16
 467 -20 467 -20 368 -20 c 128,-1,17
 269 -20 269 -20 192.5 42 c 128,-1,18
 116 104 116 104 116 188 c 2,19,-1
 116 626 l 2,20,21
 116 641 116 641 114 649 c 128,-1,22
 112 657 112 657 101 663.5 c 128,-1,23
 90 670 90 670 68 670 c 2,24,-1
 34 670 l 1,25,-1
 34 700 l 1,26,-1
 290 700 l 1,27,-1
 290 670 l 1,28,-1
 252 670 l 2,29,30
 230 670 230 670 219 663.5 c 128,-1,31
 208 657 208 657 206 649 c 128,-1,32
 204 641 204 641 204 626 c 2,33,-1
 204 274 l 2,34,35
 204 163 204 163 254.5 113.5 c 128,-1,36
 305 64 305 64 406 64 c 0,37,38
 453 64 453 64 492 80 c 128,-1,39
 531 96 531 96 554.5 118 c 128,-1,40
 578 140 578 140 595 184.5 c 128,-1,41
 612 229 612 229 612 288 c 2,0,-1
459 760 m 1,42,-1
 280 842 l 1,43,-1
 332 900 l 1,44,-1
 478 782 l 1,45,-1
 459 760 l 1,42,-1
EndSplineSet
EndChar

StartChar: Uacute
Encoding: 218 218 156
Width: 794
GlyphClass: 2
Flags: W
LayerCount: 2
Fore
SplineSet
612 288 m 2,0,-1
 612 626 l 2,1,2
 612 670 612 670 550 670 c 2,3,-1
 518 670 l 1,4,-1
 518 700 l 1,5,-1
 758 700 l 1,6,-1
 758 670 l 1,7,-1
 720 670 l 2,8,9
 687 670 687 670 670.5 657.5 c 128,-1,10
 654 645 654 645 654 626 c 2,11,-1
 654 288 l 2,12,13
 654 212 654 212 626.5 150.5 c 128,-1,14
 599 89 599 89 556 53 c 0,15,16
 467 -20 467 -20 368 -20 c 128,-1,17
 269 -20 269 -20 192.5 42 c 128,-1,18
 116 104 116 104 116 188 c 2,19,-1
 116 626 l 2,20,21
 116 641 116 641 114 649 c 128,-1,22
 112 657 112 657 101 663.5 c 128,-1,23
 90 670 90 670 68 670 c 2,24,-1
 34 670 l 1,25,-1
 34 700 l 1,26,-1
 290 700 l 1,27,-1
 290 670 l 1,28,-1
 252 670 l 2,29,30
 230 670 230 670 219 663.5 c 128,-1,31
 208 657 208 657 206 649 c 128,-1,32
 204 641 204 641 204 626 c 2,33,-1
 204 274 l 2,34,35
 204 163 204 163 254.5 113.5 c 128,-1,36
 305 64 305 64 406 64 c 0,37,38
 453 64 453 64 492 80 c 128,-1,39
 531 96 531 96 554.5 118 c 128,-1,40
 578 140 578 140 595 184.5 c 128,-1,41
 612 229 612 229 612 288 c 2,0,-1
510 842 m 1,42,-1
 331 760 l 1,43,-1
 312 782 l 1,44,-1
 458 900 l 1,45,-1
 510 842 l 1,42,-1
EndSplineSet
EndChar

StartChar: Ucircumflex
Encoding: 219 219 157
Width: 794
GlyphClass: 2
Flags: W
LayerCount: 2
Fore
SplineSet
510 772 m 1,0,-1
 484 760 l 1,1,-1
 396 858 l 1,2,-1
 308 760 l 1,3,-1
 282 772 l 1,4,-1
 368 940 l 1,5,-1
 424 940 l 1,6,-1
 510 772 l 1,0,-1
612 288 m 2,7,-1
 612 626 l 2,8,9
 612 670 612 670 550 670 c 2,10,-1
 518 670 l 1,11,-1
 518 700 l 1,12,-1
 758 700 l 1,13,-1
 758 670 l 1,14,-1
 720 670 l 2,15,16
 687 670 687 670 670.5 657.5 c 128,-1,17
 654 645 654 645 654 626 c 2,18,-1
 654 288 l 2,19,20
 654 212 654 212 626.5 150.5 c 128,-1,21
 599 89 599 89 556 53 c 0,22,23
 467 -20 467 -20 368 -20 c 128,-1,24
 269 -20 269 -20 192.5 42 c 128,-1,25
 116 104 116 104 116 188 c 2,26,-1
 116 626 l 2,27,28
 116 641 116 641 114 649 c 128,-1,29
 112 657 112 657 101 663.5 c 128,-1,30
 90 670 90 670 68 670 c 2,31,-1
 34 670 l 1,32,-1
 34 700 l 1,33,-1
 290 700 l 1,34,-1
 290 670 l 1,35,-1
 252 670 l 2,36,37
 230 670 230 670 219 663.5 c 128,-1,38
 208 657 208 657 206 649 c 128,-1,39
 204 641 204 641 204 626 c 2,40,-1
 204 274 l 2,41,42
 204 163 204 163 254.5 113.5 c 128,-1,43
 305 64 305 64 406 64 c 0,44,45
 453 64 453 64 492 80 c 128,-1,46
 531 96 531 96 554.5 118 c 128,-1,47
 578 140 578 140 595 184.5 c 128,-1,48
 612 229 612 229 612 288 c 2,7,-1
EndSplineSet
EndChar

StartChar: Udieresis
Encoding: 220 220 158
Width: 794
GlyphClass: 2
Flags: W
LayerCount: 2
Fore
SplineSet
335.5 915 m 128,-1,1
 348 900 348 900 348 876.5 c 128,-1,2
 348 853 348 853 329 837.5 c 128,-1,3
 310 822 310 822 287.5 822 c 128,-1,4
 265 822 265 822 252.5 837 c 128,-1,5
 240 852 240 852 240 874.5 c 128,-1,6
 240 897 240 897 259 913.5 c 128,-1,7
 278 930 278 930 300.5 930 c 128,-1,0
 323 930 323 930 335.5 915 c 128,-1,1
538.5 915 m 128,-1,9
 552 900 552 900 552 876.5 c 128,-1,10
 552 853 552 853 533 837.5 c 128,-1,11
 514 822 514 822 491 822 c 128,-1,12
 468 822 468 822 456 837.5 c 128,-1,13
 444 853 444 853 444 875 c 128,-1,14
 444 897 444 897 462.5 913.5 c 128,-1,15
 481 930 481 930 503 930 c 128,-1,8
 525 930 525 930 538.5 915 c 128,-1,9
612 288 m 2,16,-1
 612 626 l 2,17,18
 612 670 612 670 550 670 c 2,19,-1
 518 670 l 1,20,-1
 518 700 l 1,21,-1
 758 700 l 1,22,-1
 758 670 l 1,23,-1
 720 670 l 2,24,25
 687 670 687 670 670.5 657.5 c 128,-1,26
 654 645 654 645 654 626 c 2,27,-1
 654 288 l 2,28,29
 654 212 654 212 626.5 150.5 c 128,-1,30
 599 89 599 89 556 53 c 0,31,32
 467 -20 467 -20 368 -20 c 128,-1,33
 269 -20 269 -20 192.5 42 c 128,-1,34
 116 104 116 104 116 188 c 2,35,-1
 116 626 l 2,36,37
 116 641 116 641 114 649 c 128,-1,38
 112 657 112 657 101 663.5 c 128,-1,39
 90 670 90 670 68 670 c 2,40,-1
 34 670 l 1,41,-1
 34 700 l 1,42,-1
 290 700 l 1,43,-1
 290 670 l 1,44,-1
 252 670 l 2,45,46
 230 670 230 670 219 663.5 c 128,-1,47
 208 657 208 657 206 649 c 128,-1,48
 204 641 204 641 204 626 c 2,49,-1
 204 274 l 2,50,51
 204 163 204 163 254.5 113.5 c 128,-1,52
 305 64 305 64 406 64 c 0,53,54
 453 64 453 64 492 80 c 128,-1,55
 531 96 531 96 554.5 118 c 128,-1,56
 578 140 578 140 595 184.5 c 128,-1,57
 612 229 612 229 612 288 c 2,16,-1
EndSplineSet
EndChar

StartChar: Yacute
Encoding: 221 221 159
Width: 662
GlyphClass: 2
Flags: W
LayerCount: 2
Fore
SplineSet
468 0 m 1,0,-1
 214 0 l 1,1,-1
 214 28 l 1,2,-1
 246 28 l 2,3,4
 276 28 276 28 286 40 c 128,-1,5
 296 52 296 52 296 72 c 2,6,-1
 296 290 l 1,7,-1
 148 586 l 1,8,9
 107 672 107 672 42 672 c 2,10,-1
 20 672 l 1,11,-1
 20 700 l 1,12,-1
 246 700 l 1,13,-1
 246 672 l 1,14,-1
 234 672 l 2,15,16
 218 672 218 672 218 662 c 128,-1,17
 218 652 218 652 230 630 c 1,18,-1
 356 362 l 1,19,-1
 484 630 l 2,20,21
 496 654 496 654 496 660 c 0,22,23
 496 672 496 672 466 672 c 2,24,-1
 440 672 l 1,25,-1
 440 700 l 1,26,-1
 642 700 l 1,27,-1
 642 672 l 1,28,-1
 626 672 l 2,29,30
 551 672 551 672 518 602 c 1,31,-1
 382 330 l 1,32,-1
 382 72 l 2,33,34
 382 52 382 52 392 40 c 128,-1,35
 402 28 402 28 432 28 c 2,36,-1
 468 28 l 1,37,-1
 468 0 l 1,0,-1
447 842 m 1,38,-1
 268 760 l 1,39,-1
 249 782 l 1,40,-1
 395 900 l 1,41,-1
 447 842 l 1,38,-1
EndSplineSet
EndChar

StartChar: Thorn
Encoding: 222 222 160
Width: 568
GlyphClass: 2
Flags: W
LayerCount: 2
Fore
SplineSet
210 574 m 1,0,-1
 348 576 l 1,1,2
 436 576 436 576 492 540.5 c 128,-1,3
 548 505 548 505 548 426 c 0,4,5
 548 364 548 364 521 315.5 c 128,-1,6
 494 267 494 267 454 242 c 1,7,8
 375 190 375 190 310 190 c 0,9,10
 266 190 266 190 242 192 c 1,11,-1
 234 228 l 1,12,13
 246 224 246 224 284 224 c 0,14,15
 359 224 359 224 412.5 264.5 c 128,-1,16
 466 305 466 305 466 379.5 c 128,-1,17
 466 454 466 454 412.5 492 c 128,-1,18
 359 530 359 530 276 530 c 1,19,-1
 210 526 l 1,20,-1
 210 72 l 2,21,22
 210 58 210 58 212 50 c 128,-1,23
 214 42 214 42 224.5 35 c 128,-1,24
 235 28 235 28 256 28 c 2,25,-1
 296 28 l 1,26,-1
 296 0 l 1,27,-1
 40 0 l 1,28,-1
 40 28 l 1,29,-1
 74 28 l 2,30,31
 96 28 96 28 107 35 c 128,-1,32
 118 42 118 42 120 50 c 128,-1,33
 122 58 122 58 122 72 c 2,34,-1
 122 632 l 2,35,36
 122 650 122 650 112.5 660 c 128,-1,37
 103 670 103 670 74 670 c 2,38,-1
 40 670 l 1,39,-1
 40 700 l 1,40,-1
 296 700 l 1,41,-1
 296 670 l 1,42,-1
 256 670 l 2,43,44
 228 670 228 670 219 661 c 128,-1,45
 210 652 210 652 210 634 c 2,46,-1
 210 574 l 1,0,-1
EndSplineSet
EndChar

StartChar: germandbls
Encoding: 223 223 161
Width: 598
GlyphClass: 2
Flags: W
LayerCount: 2
Fore
SplineSet
252 28 m 1,0,-1
 262 136 l 1,1,-1
 288 134 l 1,2,3
 288 100 288 100 323.5 69 c 128,-1,4
 359 38 359 38 399.5 38 c 128,-1,5
 440 38 440 38 461 53 c 128,-1,6
 482 68 482 68 482 101 c 128,-1,7
 482 134 482 134 461 159 c 128,-1,8
 440 184 440 184 409.5 200.5 c 128,-1,9
 379 217 379 217 348.5 234.5 c 128,-1,10
 318 252 318 252 297 280.5 c 128,-1,11
 276 309 276 309 276 347.5 c 128,-1,12
 276 386 276 386 292.5 414 c 128,-1,13
 309 442 309 442 336 454 c 0,14,15
 384 476 384 476 443 476 c 0,16,17
 476 476 476 476 476 549 c 128,-1,18
 476 622 476 622 424 674.5 c 128,-1,19
 372 727 372 727 303.5 727 c 128,-1,20
 235 727 235 727 209.5 659.5 c 128,-1,21
 184 592 184 592 184 426 c 2,22,-1
 184 74 l 2,23,24
 184 58 184 58 185.5 50.5 c 128,-1,25
 187 43 187 43 197.5 35.5 c 128,-1,26
 208 28 208 28 230 28 c 2,27,-1
 252 28 l 1,0,-1
270 0 m 1,28,-1
 44 0 l 1,29,-1
 44 28 l 1,30,-1
 56 28 l 2,31,32
 78 28 78 28 88.5 35.5 c 128,-1,33
 99 43 99 43 100.5 50.5 c 128,-1,34
 102 58 102 58 102 74 c 2,35,-1
 102 390 l 2,36,37
 102 409 102 409 95 417.5 c 128,-1,38
 88 426 88 426 66 426 c 2,39,-1
 44 426 l 1,40,-1
 44 468 l 1,41,-1
 102 468 l 1,42,-1
 102 512 l 2,43,44
 102 611 102 611 151 687 c 0,45,46
 176 726 176 726 224 749 c 128,-1,47
 272 772 272 772 336 772 c 0,48,49
 421 772 421 772 479 721 c 128,-1,50
 537 670 537 670 537 589 c 0,51,52
 537 542 537 542 516 492.5 c 128,-1,53
 495 443 495 443 470 420 c 1,54,55
 436 436 436 436 404.5 436 c 128,-1,56
 373 436 373 436 352.5 419.5 c 128,-1,57
 332 403 332 403 332 375.5 c 128,-1,58
 332 348 332 348 348.5 329.5 c 128,-1,59
 365 311 365 311 390 302 c 128,-1,60
 415 293 415 293 444 280 c 128,-1,61
 473 267 473 267 498 252.5 c 128,-1,62
 523 238 523 238 539.5 206.5 c 128,-1,63
 556 175 556 175 556 134 c 128,-1,64
 556 93 556 93 538.5 64 c 128,-1,65
 521 35 521 35 493 18 c 0,66,67
 438 -14 438 -14 378.5 -14 c 128,-1,68
 319 -14 319 -14 270 20 c 1,69,-1
 270 0 l 1,28,-1
EndSplineSet
EndChar

StartChar: agrave
Encoding: 224 224 162
Width: 510
GlyphClass: 2
Flags: W
LayerCount: 2
Fore
SplineSet
476 0 m 1,0,-1
 332 0 l 1,1,-1
 332 80 l 1,2,3
 282 26 282 26 249 6 c 128,-1,4
 216 -14 216 -14 159.5 -14 c 128,-1,5
 103 -14 103 -14 71.5 12.5 c 128,-1,6
 40 39 40 39 40 87 c 128,-1,7
 40 135 40 135 81.5 180.5 c 128,-1,8
 123 226 123 226 178.5 249.5 c 128,-1,9
 234 273 234 273 276 285.5 c 128,-1,10
 318 298 318 298 332 298 c 1,11,-1
 332 320 l 2,12,13
 332 414 332 414 254 414 c 0,14,15
 200 414 200 414 153.5 391 c 128,-1,16
 107 368 107 368 84 332 c 1,17,-1
 64 350 l 1,18,19
 131 480 131 480 296 480 c 0,20,21
 338 480 338 480 365.5 457.5 c 128,-1,22
 393 435 393 435 402.5 405 c 128,-1,23
 412 375 412 375 412 338 c 2,24,-1
 412 68 l 2,25,26
 412 55 412 55 414 48 c 128,-1,27
 416 41 416 41 426.5 34.5 c 128,-1,28
 437 28 437 28 458 28 c 2,29,-1
 476 28 l 1,30,-1
 476 0 l 1,0,-1
332 136 m 1,31,-1
 332 258 l 1,32,33
 254 243 254 243 187 198 c 128,-1,34
 120 153 120 153 120 100 c 0,35,36
 120 79 120 79 140.5 63.5 c 128,-1,37
 161 48 161 48 191.5 48 c 128,-1,38
 222 48 222 48 264 75.5 c 128,-1,39
 306 103 306 103 332 136 c 1,31,-1
234 702 m 1,40,-1
 340 548 l 1,41,-1
 316 532 l 1,42,-1
 168 660 l 1,43,-1
 234 702 l 1,40,-1
EndSplineSet
EndChar

StartChar: aacute
Encoding: 225 225 163
Width: 510
GlyphClass: 2
Flags: W
LayerCount: 2
Fore
SplineSet
340 660 m 1,0,-1
 192 532 l 1,1,-1
 168 548 l 1,2,-1
 274 702 l 1,3,-1
 340 660 l 1,0,-1
476 0 m 1,4,-1
 332 0 l 1,5,-1
 332 80 l 1,6,7
 282 26 282 26 249 6 c 128,-1,8
 216 -14 216 -14 159.5 -14 c 128,-1,9
 103 -14 103 -14 71.5 12.5 c 128,-1,10
 40 39 40 39 40 87 c 128,-1,11
 40 135 40 135 81.5 180.5 c 128,-1,12
 123 226 123 226 178.5 249.5 c 128,-1,13
 234 273 234 273 276 285.5 c 128,-1,14
 318 298 318 298 332 298 c 1,15,-1
 332 320 l 2,16,17
 332 414 332 414 254 414 c 0,18,19
 200 414 200 414 153.5 391 c 128,-1,20
 107 368 107 368 84 332 c 1,21,-1
 64 350 l 1,22,23
 131 480 131 480 296 480 c 0,24,25
 338 480 338 480 365.5 457.5 c 128,-1,26
 393 435 393 435 402.5 405 c 128,-1,27
 412 375 412 375 412 338 c 2,28,-1
 412 68 l 2,29,30
 412 55 412 55 414 48 c 128,-1,31
 416 41 416 41 426.5 34.5 c 128,-1,32
 437 28 437 28 458 28 c 2,33,-1
 476 28 l 1,34,-1
 476 0 l 1,4,-1
332 136 m 1,35,-1
 332 258 l 1,36,37
 254 243 254 243 187 198 c 128,-1,38
 120 153 120 153 120 100 c 0,39,40
 120 79 120 79 140.5 63.5 c 128,-1,41
 161 48 161 48 191.5 48 c 128,-1,42
 222 48 222 48 264 75.5 c 128,-1,43
 306 103 306 103 332 136 c 1,35,-1
EndSplineSet
EndChar

StartChar: acircumflex
Encoding: 226 226 164
Width: 510
GlyphClass: 2
Flags: W
LayerCount: 2
Fore
SplineSet
368 538 m 1,0,-1
 342 526 l 1,1,-1
 254 624 l 1,2,-1
 168 526 l 1,3,-1
 142 538 l 1,4,-1
 226 706 l 1,5,-1
 284 706 l 1,6,-1
 368 538 l 1,0,-1
476 0 m 1,7,-1
 332 0 l 1,8,-1
 332 80 l 1,9,10
 282 26 282 26 249 6 c 128,-1,11
 216 -14 216 -14 159.5 -14 c 128,-1,12
 103 -14 103 -14 71.5 12.5 c 128,-1,13
 40 39 40 39 40 87 c 128,-1,14
 40 135 40 135 81.5 180.5 c 128,-1,15
 123 226 123 226 178.5 249.5 c 128,-1,16
 234 273 234 273 276 285.5 c 128,-1,17
 318 298 318 298 332 298 c 1,18,-1
 332 320 l 2,19,20
 332 414 332 414 254 414 c 0,21,22
 200 414 200 414 153.5 391 c 128,-1,23
 107 368 107 368 84 332 c 1,24,-1
 64 350 l 1,25,26
 131 480 131 480 296 480 c 0,27,28
 338 480 338 480 365.5 457.5 c 128,-1,29
 393 435 393 435 402.5 405 c 128,-1,30
 412 375 412 375 412 338 c 2,31,-1
 412 68 l 2,32,33
 412 55 412 55 414 48 c 128,-1,34
 416 41 416 41 426.5 34.5 c 128,-1,35
 437 28 437 28 458 28 c 2,36,-1
 476 28 l 1,37,-1
 476 0 l 1,7,-1
332 136 m 1,38,-1
 332 258 l 1,39,40
 254 243 254 243 187 198 c 128,-1,41
 120 153 120 153 120 100 c 0,42,43
 120 79 120 79 140.5 63.5 c 128,-1,44
 161 48 161 48 191.5 48 c 128,-1,45
 222 48 222 48 264 75.5 c 128,-1,46
 306 103 306 103 332 136 c 1,38,-1
EndSplineSet
EndChar

StartChar: atilde
Encoding: 227 227 165
Width: 510
GlyphClass: 2
Flags: W
LayerCount: 2
Fore
SplineSet
398 662 m 1,0,-1
 412 646 l 1,1,2
 344 568 344 568 282 568 c 0,3,4
 265 568 265 568 233 600 c 128,-1,5
 201 632 201 632 178.5 632 c 128,-1,6
 156 632 156 632 112 588 c 1,7,-1
 98 602 l 1,8,9
 173 682 173 682 228 682 c 0,10,11
 247 682 247 682 279.5 649 c 128,-1,12
 312 616 312 616 336 616 c 128,-1,13
 360 616 360 616 398 662 c 1,0,-1
476 0 m 1,14,-1
 332 0 l 1,15,-1
 332 80 l 1,16,17
 282 26 282 26 249 6 c 128,-1,18
 216 -14 216 -14 159.5 -14 c 128,-1,19
 103 -14 103 -14 71.5 12.5 c 128,-1,20
 40 39 40 39 40 87 c 128,-1,21
 40 135 40 135 81.5 180.5 c 128,-1,22
 123 226 123 226 178.5 249.5 c 128,-1,23
 234 273 234 273 276 285.5 c 128,-1,24
 318 298 318 298 332 298 c 1,25,-1
 332 320 l 2,26,27
 332 414 332 414 254 414 c 0,28,29
 200 414 200 414 153.5 391 c 128,-1,30
 107 368 107 368 84 332 c 1,31,-1
 64 350 l 1,32,33
 131 480 131 480 296 480 c 0,34,35
 338 480 338 480 365.5 457.5 c 128,-1,36
 393 435 393 435 402.5 405 c 128,-1,37
 412 375 412 375 412 338 c 2,38,-1
 412 68 l 2,39,40
 412 55 412 55 414 48 c 128,-1,41
 416 41 416 41 426.5 34.5 c 128,-1,42
 437 28 437 28 458 28 c 2,43,-1
 476 28 l 1,44,-1
 476 0 l 1,14,-1
332 136 m 1,45,-1
 332 258 l 1,46,47
 254 243 254 243 187 198 c 128,-1,48
 120 153 120 153 120 100 c 0,49,50
 120 79 120 79 140.5 63.5 c 128,-1,51
 161 48 161 48 191.5 48 c 128,-1,52
 222 48 222 48 264 75.5 c 128,-1,53
 306 103 306 103 332 136 c 1,45,-1
EndSplineSet
EndChar

StartChar: adieresis
Encoding: 228 228 166
Width: 510
GlyphClass: 2
Flags: W
LayerCount: 2
Fore
SplineSet
194.5 681 m 128,-1,1
 208 666 208 666 208 642.5 c 128,-1,2
 208 619 208 619 189 603.5 c 128,-1,3
 170 588 170 588 147 588 c 128,-1,4
 124 588 124 588 112 603.5 c 128,-1,5
 100 619 100 619 100 641 c 128,-1,6
 100 663 100 663 118.5 679.5 c 128,-1,7
 137 696 137 696 159 696 c 128,-1,0
 181 696 181 696 194.5 681 c 128,-1,1
397.5 681 m 128,-1,9
 410 666 410 666 410 642.5 c 128,-1,10
 410 619 410 619 391 603.5 c 128,-1,11
 372 588 372 588 349.5 588 c 128,-1,12
 327 588 327 588 314.5 603 c 128,-1,13
 302 618 302 618 302 640.5 c 128,-1,14
 302 663 302 663 321 679.5 c 128,-1,15
 340 696 340 696 362.5 696 c 128,-1,8
 385 696 385 696 397.5 681 c 128,-1,9
476 0 m 1,16,-1
 332 0 l 1,17,-1
 332 80 l 1,18,19
 282 26 282 26 249 6 c 128,-1,20
 216 -14 216 -14 159.5 -14 c 128,-1,21
 103 -14 103 -14 71.5 12.5 c 128,-1,22
 40 39 40 39 40 87 c 128,-1,23
 40 135 40 135 81.5 180.5 c 128,-1,24
 123 226 123 226 178.5 249.5 c 128,-1,25
 234 273 234 273 276 285.5 c 128,-1,26
 318 298 318 298 332 298 c 1,27,-1
 332 320 l 2,28,29
 332 414 332 414 254 414 c 0,30,31
 200 414 200 414 153.5 391 c 128,-1,32
 107 368 107 368 84 332 c 1,33,-1
 64 350 l 1,34,35
 131 480 131 480 296 480 c 0,36,37
 338 480 338 480 365.5 457.5 c 128,-1,38
 393 435 393 435 402.5 405 c 128,-1,39
 412 375 412 375 412 338 c 2,40,-1
 412 68 l 2,41,42
 412 55 412 55 414 48 c 128,-1,43
 416 41 416 41 426.5 34.5 c 128,-1,44
 437 28 437 28 458 28 c 2,45,-1
 476 28 l 1,46,-1
 476 0 l 1,16,-1
332 136 m 1,47,-1
 332 258 l 1,48,49
 254 243 254 243 187 198 c 128,-1,50
 120 153 120 153 120 100 c 0,51,52
 120 79 120 79 140.5 63.5 c 128,-1,53
 161 48 161 48 191.5 48 c 128,-1,54
 222 48 222 48 264 75.5 c 128,-1,55
 306 103 306 103 332 136 c 1,47,-1
EndSplineSet
EndChar

StartChar: aring
Encoding: 229 229 167
Width: 510
GlyphClass: 2
Flags: W
LayerCount: 2
Fore
SplineSet
324 638 m 128,-1,1
 324 668 324 668 304.5 687 c 128,-1,2
 285 706 285 706 254.5 706 c 128,-1,3
 224 706 224 706 206 687 c 128,-1,4
 188 668 188 668 188 638 c 128,-1,5
 188 608 188 608 206 590 c 128,-1,6
 224 572 224 572 255 572 c 128,-1,7
 286 572 286 572 305 590 c 128,-1,0
 324 608 324 608 324 638 c 128,-1,1
329.5 713.5 m 128,-1,9
 360 683 360 683 360 638.5 c 128,-1,10
 360 594 360 594 329.5 564 c 128,-1,11
 299 534 299 534 254.5 534 c 128,-1,12
 210 534 210 534 179 564.5 c 128,-1,13
 148 595 148 595 148 639 c 128,-1,14
 148 683 148 683 179 713.5 c 128,-1,15
 210 744 210 744 254.5 744 c 128,-1,8
 299 744 299 744 329.5 713.5 c 128,-1,9
476 0 m 1,16,-1
 332 0 l 1,17,-1
 332 80 l 1,18,19
 282 26 282 26 249 6 c 128,-1,20
 216 -14 216 -14 159.5 -14 c 128,-1,21
 103 -14 103 -14 71.5 12.5 c 128,-1,22
 40 39 40 39 40 87 c 128,-1,23
 40 135 40 135 81.5 180.5 c 128,-1,24
 123 226 123 226 178.5 249.5 c 128,-1,25
 234 273 234 273 276 285.5 c 128,-1,26
 318 298 318 298 332 298 c 1,27,-1
 332 320 l 2,28,29
 332 414 332 414 254 414 c 0,30,31
 200 414 200 414 153.5 391 c 128,-1,32
 107 368 107 368 84 332 c 1,33,-1
 64 350 l 1,34,35
 131 480 131 480 296 480 c 0,36,37
 338 480 338 480 365.5 457.5 c 128,-1,38
 393 435 393 435 402.5 405 c 128,-1,39
 412 375 412 375 412 338 c 2,40,-1
 412 68 l 2,41,42
 412 55 412 55 414 48 c 128,-1,43
 416 41 416 41 426.5 34.5 c 128,-1,44
 437 28 437 28 458 28 c 2,45,-1
 476 28 l 1,46,-1
 476 0 l 1,16,-1
332 136 m 1,47,-1
 332 258 l 1,48,49
 254 243 254 243 187 198 c 128,-1,50
 120 153 120 153 120 100 c 0,51,52
 120 79 120 79 140.5 63.5 c 128,-1,53
 161 48 161 48 191.5 48 c 128,-1,54
 222 48 222 48 264 75.5 c 128,-1,55
 306 103 306 103 332 136 c 1,47,-1
EndSplineSet
EndChar

StartChar: ae
Encoding: 230 230 168
Width: 796
GlyphClass: 2
Flags: W
LayerCount: 2
Fore
SplineSet
738 122 m 1,0,-1
 756 104 l 1,1,2
 692 -14 692 -14 526 -14 c 0,3,4
 431 -14 431 -14 366 92 c 1,5,6
 308 20 308 20 268 3 c 128,-1,7
 228 -14 228 -14 165.5 -14 c 128,-1,8
 103 -14 103 -14 71.5 12.5 c 128,-1,9
 40 39 40 39 40 87 c 128,-1,10
 40 135 40 135 81.5 180.5 c 128,-1,11
 123 226 123 226 178.5 249.5 c 128,-1,12
 234 273 234 273 276 285.5 c 128,-1,13
 318 298 318 298 332 298 c 1,14,-1
 332 320 l 2,15,16
 332 414 332 414 254 414 c 0,17,18
 200 414 200 414 153.5 391 c 128,-1,19
 107 368 107 368 84 332 c 1,20,-1
 64 350 l 1,21,22
 131 480 131 480 296 480 c 0,23,24
 384 480 384 480 406 392 c 1,25,26
 481 480 481 480 590 480 c 0,27,28
 663 480 663 480 702.5 426 c 128,-1,29
 742 372 742 372 742 314 c 0,30,31
 742 301 742 301 738 284.5 c 128,-1,32
 734 268 734 268 730 268 c 2,33,-1
 414 258 l 1,34,35
 414 180 414 180 462.5 114 c 128,-1,36
 511 48 511 48 580 48 c 0,37,38
 631 48 631 48 673 68 c 128,-1,39
 715 88 715 88 738 122 c 1,0,-1
332 120 m 1,40,-1
 332 258 l 1,41,42
 254 243 254 243 187 198 c 128,-1,43
 120 153 120 153 120 100 c 0,44,45
 120 79 120 79 140.5 63.5 c 128,-1,46
 161 48 161 48 192.5 48 c 128,-1,47
 224 48 224 48 266.5 69.5 c 128,-1,48
 309 91 309 91 332 120 c 1,40,-1
424 298 m 1,49,-1
 654 308 l 2,50,51
 656 308 656 308 656 326 c 0,52,53
 656 422 656 422 552 422 c 0,54,55
 491 422 491 422 457.5 389 c 128,-1,56
 424 356 424 356 424 298 c 1,49,-1
EndSplineSet
EndChar

StartChar: ccedilla
Encoding: 231 231 169
Width: 470
GlyphClass: 2
Flags: W
LayerCount: 2
Fore
SplineSet
210 -188 m 128,-1,1
 249 -188 249 -188 267 -163 c 0,2,3
 277 -149 277 -149 277 -128 c 0,4,5
 277 -92 277 -92 224 -92 c 0,6,7
 196 -92 196 -92 174 -108 c 1,8,-1
 166 -100 l 1,9,-1
 186 -12 l 1,10,11
 119 0 119 0 73.5 64.5 c 128,-1,12
 28 129 28 129 28 206 c 0,13,14
 28 260 28 260 54.5 314.5 c 128,-1,15
 81 369 81 369 109.5 401.5 c 128,-1,16
 138 434 138 434 187.5 457 c 128,-1,17
 237 480 237 480 292 480 c 128,-1,18
 347 480 347 480 406 458 c 1,19,-1
 400 366 l 1,20,-1
 370 366 l 1,21,22
 370 392 370 392 337.5 409 c 128,-1,23
 305 426 305 426 265 426 c 128,-1,24
 225 426 225 426 193 413.5 c 128,-1,25
 161 401 161 401 144.5 383 c 128,-1,26
 128 365 128 365 118 340 c 0,27,28
 102 303 102 303 102 258 c 0,29,30
 102 180 102 180 151 114 c 128,-1,31
 200 48 200 48 270 48 c 0,32,33
 320 48 320 48 362.5 68.5 c 128,-1,34
 405 89 405 89 426 122 c 1,35,-1
 444 104 l 1,36,37
 382 -11 382 -11 220 -14 c 1,38,-1
 206 -70 l 1,39,40
 233 -52 233 -52 265.5 -52 c 128,-1,41
 298 -52 298 -52 314 -68.5 c 128,-1,42
 330 -85 330 -85 330 -108 c 0,43,44
 330 -150 330 -150 291.5 -182 c 128,-1,45
 253 -214 253 -214 210.5 -214 c 128,-1,46
 168 -214 168 -214 140 -180 c 1,47,-1
 154 -162 l 1,48,0
 171 -188 171 -188 210 -188 c 128,-1,1
EndSplineSet
EndChar

StartChar: egrave
Encoding: 232 232 170
Width: 484
GlyphClass: 2
Flags: W
LayerCount: 2
Fore
SplineSet
426 122 m 1,0,-1
 444 104 l 1,1,2
 380 -14 380 -14 214 -14 c 0,3,4
 137 -14 137 -14 82.5 54 c 128,-1,5
 28 122 28 122 28 206 c 0,6,7
 28 319 28 319 101.5 399.5 c 128,-1,8
 175 480 175 480 280 480 c 0,9,10
 330 480 330 480 368 451 c 0,11,12
 436 398 436 398 436 314 c 0,13,14
 436 302 436 302 431.5 285 c 128,-1,15
 427 268 427 268 424 268 c 2,16,-1
 112 258 l 1,17,18
 112 179 112 179 156 113.5 c 128,-1,19
 200 48 200 48 270 48 c 0,20,21
 320 48 320 48 362.5 68.5 c 128,-1,22
 405 89 405 89 426 122 c 1,0,-1
112 298 m 1,23,-1
 346 308 l 2,24,25
 348 308 348 308 348 326 c 0,26,27
 348 378 348 378 317.5 400 c 128,-1,28
 287 422 287 422 233.5 422 c 128,-1,29
 180 422 180 422 146 389 c 128,-1,30
 112 356 112 356 112 298 c 1,23,-1
230 702 m 1,31,-1
 338 548 l 1,32,-1
 314 532 l 1,33,-1
 164 660 l 1,34,-1
 230 702 l 1,31,-1
EndSplineSet
EndChar

StartChar: eacute
Encoding: 233 233 171
Width: 484
GlyphClass: 2
Flags: W
LayerCount: 2
Fore
SplineSet
328 660 m 1,0,-1
 178 532 l 1,1,-1
 154 548 l 1,2,-1
 262 702 l 1,3,-1
 328 660 l 1,0,-1
426 122 m 1,4,-1
 444 104 l 1,5,6
 380 -14 380 -14 214 -14 c 0,7,8
 137 -14 137 -14 82.5 54 c 128,-1,9
 28 122 28 122 28 206 c 0,10,11
 28 319 28 319 101.5 399.5 c 128,-1,12
 175 480 175 480 280 480 c 0,13,14
 330 480 330 480 368 451 c 0,15,16
 436 398 436 398 436 314 c 0,17,18
 436 302 436 302 431.5 285 c 128,-1,19
 427 268 427 268 424 268 c 2,20,-1
 112 258 l 1,21,22
 112 179 112 179 156 113.5 c 128,-1,23
 200 48 200 48 270 48 c 0,24,25
 320 48 320 48 362.5 68.5 c 128,-1,26
 405 89 405 89 426 122 c 1,4,-1
112 298 m 1,27,-1
 346 308 l 2,28,29
 348 308 348 308 348 326 c 0,30,31
 348 378 348 378 317.5 400 c 128,-1,32
 287 422 287 422 233.5 422 c 128,-1,33
 180 422 180 422 146 389 c 128,-1,34
 112 356 112 356 112 298 c 1,27,-1
EndSplineSet
EndChar

StartChar: ecircumflex
Encoding: 234 234 172
Width: 484
GlyphClass: 2
Flags: W
LayerCount: 2
Fore
SplineSet
354 538 m 1,0,-1
 328 526 l 1,1,-1
 240 624 l 1,2,-1
 154 526 l 1,3,-1
 128 538 l 1,4,-1
 212 706 l 1,5,-1
 270 706 l 1,6,-1
 354 538 l 1,0,-1
426 122 m 1,7,-1
 444 104 l 1,8,9
 380 -14 380 -14 214 -14 c 0,10,11
 137 -14 137 -14 82.5 54 c 128,-1,12
 28 122 28 122 28 206 c 0,13,14
 28 319 28 319 101.5 399.5 c 128,-1,15
 175 480 175 480 280 480 c 0,16,17
 330 480 330 480 368 451 c 0,18,19
 436 398 436 398 436 314 c 0,20,21
 436 302 436 302 431.5 285 c 128,-1,22
 427 268 427 268 424 268 c 2,23,-1
 112 258 l 1,24,25
 112 179 112 179 156 113.5 c 128,-1,26
 200 48 200 48 270 48 c 0,27,28
 320 48 320 48 362.5 68.5 c 128,-1,29
 405 89 405 89 426 122 c 1,7,-1
112 298 m 1,30,-1
 346 308 l 2,31,32
 348 308 348 308 348 326 c 0,33,34
 348 378 348 378 317.5 400 c 128,-1,35
 287 422 287 422 233.5 422 c 128,-1,36
 180 422 180 422 146 389 c 128,-1,37
 112 356 112 356 112 298 c 1,30,-1
EndSplineSet
EndChar

StartChar: edieresis
Encoding: 235 235 173
Width: 484
GlyphClass: 2
Flags: W
LayerCount: 2
Fore
SplineSet
180.5 681 m 128,-1,1
 194 666 194 666 194 642.5 c 128,-1,2
 194 619 194 619 175 603.5 c 128,-1,3
 156 588 156 588 133 588 c 128,-1,4
 110 588 110 588 98 603.5 c 128,-1,5
 86 619 86 619 86 641 c 128,-1,6
 86 663 86 663 104.5 679.5 c 128,-1,7
 123 696 123 696 145 696 c 128,-1,0
 167 696 167 696 180.5 681 c 128,-1,1
383.5 681 m 128,-1,9
 396 666 396 666 396 642.5 c 128,-1,10
 396 619 396 619 377 603.5 c 128,-1,11
 358 588 358 588 335.5 588 c 128,-1,12
 313 588 313 588 300.5 603 c 128,-1,13
 288 618 288 618 288 640.5 c 128,-1,14
 288 663 288 663 307 679.5 c 128,-1,15
 326 696 326 696 348.5 696 c 128,-1,8
 371 696 371 696 383.5 681 c 128,-1,9
426 122 m 1,16,-1
 444 104 l 1,17,18
 380 -14 380 -14 214 -14 c 0,19,20
 137 -14 137 -14 82.5 54 c 128,-1,21
 28 122 28 122 28 206 c 0,22,23
 28 319 28 319 101.5 399.5 c 128,-1,24
 175 480 175 480 280 480 c 0,25,26
 330 480 330 480 368 451 c 0,27,28
 436 398 436 398 436 314 c 0,29,30
 436 302 436 302 431.5 285 c 128,-1,31
 427 268 427 268 424 268 c 2,32,-1
 112 258 l 1,33,34
 112 179 112 179 156 113.5 c 128,-1,35
 200 48 200 48 270 48 c 0,36,37
 320 48 320 48 362.5 68.5 c 128,-1,38
 405 89 405 89 426 122 c 1,16,-1
112 298 m 1,39,-1
 346 308 l 2,40,41
 348 308 348 308 348 326 c 0,42,43
 348 378 348 378 317.5 400 c 128,-1,44
 287 422 287 422 233.5 422 c 128,-1,45
 180 422 180 422 146 389 c 128,-1,46
 112 356 112 356 112 298 c 1,39,-1
EndSplineSet
EndChar

StartChar: igrave
Encoding: 236 236 174
Width: 282
GlyphClass: 2
Flags: W
LayerCount: 2
Fore
SplineSet
246 0 m 1,0,-1
 44 0 l 1,1,-1
 44 28 l 1,2,-1
 60 28 l 2,3,4
 87 28 87 28 94.5 37 c 128,-1,5
 102 46 102 46 102 66 c 2,6,-1
 102 366 l 2,7,8
 102 385 102 385 89.5 393.5 c 128,-1,9
 77 402 77 402 44 402 c 1,10,-1
 44 430 l 1,11,12
 64 430 64 430 104.5 444.5 c 128,-1,13
 145 459 145 459 166 472 c 1,14,-1
 184 476 l 1,15,-1
 184 72 l 2,16,17
 184 56 184 56 185.5 49 c 128,-1,18
 187 42 187 42 197 35 c 128,-1,19
 207 28 207 28 228 28 c 2,20,-1
 246 28 l 1,21,-1
 246 0 l 1,0,-1
120 702 m 1,22,-1
 226 548 l 1,23,-1
 202 532 l 1,24,-1
 54 660 l 1,25,-1
 120 702 l 1,22,-1
EndSplineSet
EndChar

StartChar: iacute
Encoding: 237 237 175
Width: 282
GlyphClass: 2
Flags: W
LayerCount: 2
Fore
SplineSet
246 0 m 1,0,-1
 44 0 l 1,1,-1
 44 28 l 1,2,-1
 60 28 l 2,3,4
 87 28 87 28 94.5 37 c 128,-1,5
 102 46 102 46 102 66 c 2,6,-1
 102 366 l 2,7,8
 102 385 102 385 89.5 393.5 c 128,-1,9
 77 402 77 402 44 402 c 1,10,-1
 44 430 l 1,11,12
 64 430 64 430 104.5 444.5 c 128,-1,13
 145 459 145 459 166 472 c 1,14,-1
 184 476 l 1,15,-1
 184 72 l 2,16,17
 184 56 184 56 185.5 49 c 128,-1,18
 187 42 187 42 197 35 c 128,-1,19
 207 28 207 28 228 28 c 2,20,-1
 246 28 l 1,21,-1
 246 0 l 1,0,-1
236 660 m 1,22,-1
 88 532 l 1,23,-1
 64 548 l 1,24,-1
 170 702 l 1,25,-1
 236 660 l 1,22,-1
EndSplineSet
EndChar

StartChar: icircumflex
Encoding: 238 238 176
Width: 282
GlyphClass: 2
Flags: W
LayerCount: 2
Fore
SplineSet
254 538 m 1,0,-1
 228 526 l 1,1,-1
 140 624 l 1,2,-1
 52 526 l 1,3,-1
 26 538 l 1,4,-1
 112 706 l 1,5,-1
 168 706 l 1,6,-1
 254 538 l 1,0,-1
246 0 m 1,7,-1
 44 0 l 1,8,-1
 44 28 l 1,9,-1
 60 28 l 2,10,11
 87 28 87 28 94.5 37 c 128,-1,12
 102 46 102 46 102 66 c 2,13,-1
 102 366 l 2,14,15
 102 385 102 385 89.5 393.5 c 128,-1,16
 77 402 77 402 44 402 c 1,17,-1
 44 430 l 1,18,19
 64 430 64 430 104.5 444.5 c 128,-1,20
 145 459 145 459 166 472 c 1,21,-1
 184 476 l 1,22,-1
 184 72 l 2,23,24
 184 56 184 56 185.5 49 c 128,-1,25
 187 42 187 42 197 35 c 128,-1,26
 207 28 207 28 228 28 c 2,27,-1
 246 28 l 1,28,-1
 246 0 l 1,7,-1
EndSplineSet
EndChar

StartChar: idieresis
Encoding: 239 239 177
Width: 282
GlyphClass: 2
Flags: W
LayerCount: 2
Fore
SplineSet
80.5 681 m 128,-1,1
 94 666 94 666 94 642.5 c 128,-1,2
 94 619 94 619 75 603.5 c 128,-1,3
 56 588 56 588 33 588 c 128,-1,4
 10 588 10 588 -2 603.5 c 128,-1,5
 -14 619 -14 619 -14 641 c 128,-1,6
 -14 663 -14 663 4.5 679.5 c 128,-1,7
 23 696 23 696 45 696 c 128,-1,0
 67 696 67 696 80.5 681 c 128,-1,1
283.5 681 m 128,-1,9
 296 666 296 666 296 642.5 c 128,-1,10
 296 619 296 619 277 603.5 c 128,-1,11
 258 588 258 588 235.5 588 c 128,-1,12
 213 588 213 588 200.5 603 c 128,-1,13
 188 618 188 618 188 640.5 c 128,-1,14
 188 663 188 663 207 679.5 c 128,-1,15
 226 696 226 696 248.5 696 c 128,-1,8
 271 696 271 696 283.5 681 c 128,-1,9
246 0 m 1,16,-1
 44 0 l 1,17,-1
 44 28 l 1,18,-1
 60 28 l 2,19,20
 87 28 87 28 94.5 37 c 128,-1,21
 102 46 102 46 102 66 c 2,22,-1
 102 366 l 2,23,24
 102 385 102 385 89.5 393.5 c 128,-1,25
 77 402 77 402 44 402 c 1,26,-1
 44 430 l 1,27,28
 64 430 64 430 104.5 444.5 c 128,-1,29
 145 459 145 459 166 472 c 1,30,-1
 184 476 l 1,31,-1
 184 72 l 2,32,33
 184 56 184 56 185.5 49 c 128,-1,34
 187 42 187 42 197 35 c 128,-1,35
 207 28 207 28 228 28 c 2,36,-1
 246 28 l 1,37,-1
 246 0 l 1,16,-1
EndSplineSet
EndChar

StartChar: eth
Encoding: 240 240 178
Width: 598
GlyphClass: 2
Flags: W
LayerCount: 2
Fore
SplineSet
402 718 m 1,0,-1
 306 632 l 1,1,2
 526 496 526 496 526 260 c 0,3,4
 526 151 526 151 444.5 68.5 c 128,-1,5
 363 -14 363 -14 258 -14 c 0,6,7
 170 -14 170 -14 111 52 c 128,-1,8
 52 118 52 118 52 198.5 c 128,-1,9
 52 279 52 279 92.5 340.5 c 128,-1,10
 133 402 133 402 192 434 c 128,-1,11
 251 466 251 466 304.5 466 c 128,-1,12
 358 466 358 466 386 454 c 1,13,14
 334 526 334 526 254 590 c 1,15,-1
 156 504 l 1,16,-1
 132 532 l 1,17,-1
 226 612 l 1,18,19
 148 665 148 665 96 690 c 1,20,-1
 106 720 l 1,21,22
 198 692 198 692 274 652 c 1,23,-1
 380 746 l 1,24,-1
 402 718 l 1,0,-1
178.5 105.5 m 128,-1,26
 235 44 235 44 305.5 44 c 128,-1,27
 376 44 376 44 416 97 c 128,-1,28
 456 150 456 150 456 206 c 0,29,30
 456 289 456 289 404 349.5 c 128,-1,31
 352 410 352 410 276.5 410 c 128,-1,32
 201 410 201 410 161.5 363 c 128,-1,33
 122 316 122 316 122 260 c 0,34,25
 122 167 122 167 178.5 105.5 c 128,-1,26
EndSplineSet
EndChar

StartChar: ntilde
Encoding: 241 241 179
Width: 580
GlyphClass: 2
Flags: W
LayerCount: 2
Fore
SplineSet
428 662 m 1,0,-1
 442 646 l 1,1,2
 369 568 369 568 312 568 c 0,3,4
 294 568 294 568 262 600 c 128,-1,5
 230 632 230 632 206 632 c 128,-1,6
 182 632 182 632 142 588 c 1,7,-1
 128 602 l 1,8,9
 198 682 198 682 258 682 c 0,10,11
 276 682 276 682 309 649 c 128,-1,12
 342 616 342 616 364 616 c 128,-1,13
 386 616 386 616 428 662 c 1,0,-1
550 0 m 1,14,-1
 378 0 l 1,15,-1
 378 28 l 1,16,-1
 382 28 l 2,17,18
 393 28 393 28 400.5 39 c 128,-1,19
 408 50 408 50 408 66 c 2,20,-1
 408 320 l 2,21,22
 408 365 408 365 386.5 388.5 c 128,-1,23
 365 412 365 412 326 412 c 0,24,25
 270 412 270 412 227 352 c 128,-1,26
 184 292 184 292 184 262 c 2,27,-1
 184 72 l 2,28,29
 184 56 184 56 185.5 49 c 128,-1,30
 187 42 187 42 197 35 c 128,-1,31
 207 28 207 28 228 28 c 2,32,-1
 246 28 l 1,33,-1
 246 0 l 1,34,-1
 44 0 l 1,35,-1
 44 28 l 1,36,-1
 60 28 l 2,37,38
 87 28 87 28 94.5 37 c 128,-1,39
 102 46 102 46 102 66 c 2,40,-1
 102 366 l 2,41,42
 102 385 102 385 89.5 393.5 c 128,-1,43
 77 402 77 402 44 402 c 1,44,-1
 44 430 l 1,45,46
 64 430 64 430 104.5 444.5 c 128,-1,47
 145 459 145 459 166 472 c 1,48,-1
 184 476 l 1,49,-1
 184 348 l 1,50,51
 207 411 207 411 255 445.5 c 128,-1,52
 303 480 303 480 372 480 c 0,53,54
 408 480 408 480 433 464 c 128,-1,55
 458 448 458 448 469 423 c 0,56,57
 488 380 488 380 488 338 c 2,58,-1
 488 68 l 2,59,60
 488 54 488 54 490 47 c 0,61,62
 495 28 495 28 532 28 c 2,63,-1
 550 28 l 1,64,-1
 550 0 l 1,14,-1
EndSplineSet
EndChar

StartChar: ograve
Encoding: 242 242 180
Width: 528
GlyphClass: 2
Flags: W
LayerCount: 2
Fore
SplineSet
234 -14 m 0,0,1
 146 -14 146 -14 87 52 c 128,-1,2
 28 118 28 118 28 206 c 0,3,4
 28 318 28 318 112.5 399 c 128,-1,5
 197 480 197 480 291 480 c 128,-1,6
 385 480 385 480 442.5 413.5 c 128,-1,7
 500 347 500 347 500 260 c 0,8,9
 500 151 500 151 419.5 68.5 c 128,-1,10
 339 -14 339 -14 234 -14 c 0,0,1
154.5 105.5 m 128,-1,12
 211 44 211 44 281.5 44 c 128,-1,13
 352 44 352 44 392 97 c 128,-1,14
 432 150 432 150 432 206 c 0,15,16
 432 291 432 291 379.5 354.5 c 128,-1,17
 327 418 327 418 252 418 c 128,-1,18
 177 418 177 418 137.5 367.5 c 128,-1,19
 98 317 98 317 98 260 c 0,20,11
 98 167 98 167 154.5 105.5 c 128,-1,12
230 702 m 1,21,-1
 338 548 l 1,22,-1
 314 532 l 1,23,-1
 164 660 l 1,24,-1
 230 702 l 1,21,-1
EndSplineSet
EndChar

StartChar: oacute
Encoding: 243 243 181
Width: 528
GlyphClass: 2
Flags: W
LayerCount: 2
Fore
SplineSet
234 -14 m 0,0,1
 146 -14 146 -14 87 52 c 128,-1,2
 28 118 28 118 28 206 c 0,3,4
 28 318 28 318 112.5 399 c 128,-1,5
 197 480 197 480 291 480 c 128,-1,6
 385 480 385 480 442.5 413.5 c 128,-1,7
 500 347 500 347 500 260 c 0,8,9
 500 151 500 151 419.5 68.5 c 128,-1,10
 339 -14 339 -14 234 -14 c 0,0,1
392 97 m 128,-1,12
 432 150 432 150 432 206 c 0,13,14
 432 291 432 291 379.5 354.5 c 128,-1,15
 327 418 327 418 252 418 c 128,-1,16
 177 418 177 418 137.5 367.5 c 128,-1,17
 98 317 98 317 98 260 c 0,18,19
 98 167 98 167 154.5 105.5 c 128,-1,20
 211 44 211 44 281.5 44 c 128,-1,11
 352 44 352 44 392 97 c 128,-1,12
370 660 m 1,21,-1
 220 532 l 1,22,-1
 196 548 l 1,23,-1
 304 702 l 1,24,-1
 370 660 l 1,21,-1
EndSplineSet
EndChar

StartChar: ocircumflex
Encoding: 244 244 182
Width: 528
GlyphClass: 2
Flags: W
LayerCount: 2
Fore
SplineSet
380 538 m 1,0,-1
 354 526 l 1,1,-1
 266 624 l 1,2,-1
 178 526 l 1,3,-1
 152 538 l 1,4,-1
 238 706 l 1,5,-1
 294 706 l 1,6,-1
 380 538 l 1,0,-1
234 -14 m 0,7,8
 146 -14 146 -14 87 52 c 128,-1,9
 28 118 28 118 28 206 c 0,10,11
 28 318 28 318 112.5 399 c 128,-1,12
 197 480 197 480 291 480 c 128,-1,13
 385 480 385 480 442.5 413.5 c 128,-1,14
 500 347 500 347 500 260 c 0,15,16
 500 151 500 151 419.5 68.5 c 128,-1,17
 339 -14 339 -14 234 -14 c 0,7,8
392 97 m 128,-1,19
 432 150 432 150 432 206 c 0,20,21
 432 291 432 291 379.5 354.5 c 128,-1,22
 327 418 327 418 252 418 c 128,-1,23
 177 418 177 418 137.5 367.5 c 128,-1,24
 98 317 98 317 98 260 c 0,25,26
 98 167 98 167 154.5 105.5 c 128,-1,27
 211 44 211 44 281.5 44 c 128,-1,18
 352 44 352 44 392 97 c 128,-1,19
EndSplineSet
EndChar

StartChar: otilde
Encoding: 245 245 183
Width: 528
GlyphClass: 2
Flags: W
LayerCount: 2
Fore
SplineSet
408 662 m 1,0,-1
 422 646 l 1,1,2
 349 568 349 568 292 568 c 0,3,4
 274 568 274 568 242 600 c 128,-1,5
 210 632 210 632 186 632 c 128,-1,6
 162 632 162 632 122 588 c 1,7,-1
 108 602 l 1,8,9
 178 682 178 682 238 682 c 0,10,11
 256 682 256 682 289 649 c 128,-1,12
 322 616 322 616 344 616 c 128,-1,13
 366 616 366 616 408 662 c 1,0,-1
234 -14 m 0,14,15
 146 -14 146 -14 87 52 c 128,-1,16
 28 118 28 118 28 206 c 0,17,18
 28 318 28 318 112.5 399 c 128,-1,19
 197 480 197 480 291 480 c 128,-1,20
 385 480 385 480 442.5 413.5 c 128,-1,21
 500 347 500 347 500 260 c 0,22,23
 500 151 500 151 419.5 68.5 c 128,-1,24
 339 -14 339 -14 234 -14 c 0,14,15
392 97 m 128,-1,26
 432 150 432 150 432 206 c 0,27,28
 432 291 432 291 379.5 354.5 c 128,-1,29
 327 418 327 418 252 418 c 128,-1,30
 177 418 177 418 137.5 367.5 c 128,-1,31
 98 317 98 317 98 260 c 0,32,33
 98 167 98 167 154.5 105.5 c 128,-1,34
 211 44 211 44 281.5 44 c 128,-1,25
 352 44 352 44 392 97 c 128,-1,26
EndSplineSet
EndChar

StartChar: odieresis
Encoding: 246 246 184
Width: 528
GlyphClass: 2
Flags: W
LayerCount: 2
Fore
SplineSet
203.5 681 m 128,-1,1
 216 666 216 666 216 642.5 c 128,-1,2
 216 619 216 619 197 603.5 c 128,-1,3
 178 588 178 588 155.5 588 c 128,-1,4
 133 588 133 588 120.5 603 c 128,-1,5
 108 618 108 618 108 640.5 c 128,-1,6
 108 663 108 663 127 679.5 c 128,-1,7
 146 696 146 696 168.5 696 c 128,-1,0
 191 696 191 696 203.5 681 c 128,-1,1
406.5 681 m 128,-1,9
 420 666 420 666 420 642.5 c 128,-1,10
 420 619 420 619 401 603.5 c 128,-1,11
 382 588 382 588 359 588 c 128,-1,12
 336 588 336 588 324 603.5 c 128,-1,13
 312 619 312 619 312 641 c 128,-1,14
 312 663 312 663 330.5 679.5 c 128,-1,15
 349 696 349 696 371 696 c 128,-1,8
 393 696 393 696 406.5 681 c 128,-1,9
234 -14 m 0,16,17
 146 -14 146 -14 87 52 c 128,-1,18
 28 118 28 118 28 206 c 0,19,20
 28 318 28 318 112.5 399 c 128,-1,21
 197 480 197 480 291 480 c 128,-1,22
 385 480 385 480 442.5 413.5 c 128,-1,23
 500 347 500 347 500 260 c 0,24,25
 500 151 500 151 419.5 68.5 c 128,-1,26
 339 -14 339 -14 234 -14 c 0,16,17
154.5 105.5 m 128,-1,28
 211 44 211 44 281.5 44 c 128,-1,29
 352 44 352 44 392 97 c 128,-1,30
 432 150 432 150 432 206 c 0,31,32
 432 291 432 291 379.5 354.5 c 128,-1,33
 327 418 327 418 252 418 c 128,-1,34
 177 418 177 418 137.5 367.5 c 128,-1,35
 98 317 98 317 98 260 c 0,36,27
 98 167 98 167 154.5 105.5 c 128,-1,28
EndSplineSet
EndChar

StartChar: divide
Encoding: 247 247 185
Width: 476
GlyphClass: 2
Flags: W
LayerCount: 2
Fore
SplineSet
437 178 m 1,0,-1
 39 178 l 1,1,-1
 39 226 l 1,2,-1
 437 226 l 1,3,-1
 437 178 l 1,0,-1
287.5 404 m 128,-1,5
 301 388 301 388 301 365 c 128,-1,6
 301 342 301 342 281.5 326 c 128,-1,7
 262 310 262 310 239.5 310 c 128,-1,8
 217 310 217 310 205 326 c 128,-1,9
 193 342 193 342 193 364 c 128,-1,10
 193 386 193 386 211.5 403 c 128,-1,11
 230 420 230 420 252 420 c 128,-1,4
 274 420 274 420 287.5 404 c 128,-1,5
287.5 79 m 128,-1,13
 301 64 301 64 301 40.5 c 128,-1,14
 301 17 301 17 282 1.5 c 128,-1,15
 263 -14 263 -14 240 -14 c 128,-1,16
 217 -14 217 -14 205 1.5 c 128,-1,17
 193 17 193 17 193 39 c 128,-1,18
 193 61 193 61 211.5 77.5 c 128,-1,19
 230 94 230 94 252 94 c 128,-1,12
 274 94 274 94 287.5 79 c 128,-1,13
EndSplineSet
EndChar

StartChar: oslash
Encoding: 248 248 186
Width: 528
GlyphClass: 2
Flags: W
LayerCount: 2
Fore
SplineSet
146 6 m 1,0,-1
 104 -64 l 1,1,-1
 76 -44 l 1,2,-1
 118 24 l 1,3,4
 76 54 76 54 52 103 c 128,-1,5
 28 152 28 152 28 206 c 0,6,7
 28 318 28 318 112.5 399 c 128,-1,8
 197 480 197 480 298 480 c 0,9,10
 345 480 345 480 386 458 c 1,11,-1
 428 524 l 1,12,-1
 458 504 l 1,13,-1
 416 438 l 1,14,15
 455 407 455 407 477.5 359 c 128,-1,16
 500 311 500 311 500 260 c 0,17,18
 500 151 500 151 419.5 68.5 c 128,-1,19
 339 -14 339 -14 234 -14 c 0,20,21
 183 -14 183 -14 146 6 c 1,0,-1
162 96 m 1,22,-1
 344 388 l 1,23,24
 297 418 297 418 246 418 c 0,25,26
 177 418 177 418 137.5 367.5 c 128,-1,27
 98 317 98 317 98 260 c 0,28,29
 98 160 98 160 162 96 c 1,22,-1
370 364 m 1,30,-1
 190 74 l 1,31,32
 232 44 232 44 292 44 c 128,-1,33
 352 44 352 44 392 97 c 128,-1,34
 432 150 432 150 432 206 c 0,35,36
 432 299 432 299 370 364 c 1,30,-1
EndSplineSet
EndChar

StartChar: ugrave
Encoding: 249 249 187
Width: 572
GlyphClass: 2
Flags: W
LayerCount: 2
Fore
SplineSet
264 702 m 1,0,-1
 372 548 l 1,1,-1
 348 532 l 1,2,-1
 198 660 l 1,3,-1
 264 702 l 1,0,-1
538 0 m 1,4,-1
 394 0 l 1,5,-1
 394 118 l 1,6,7
 371 55 371 55 323 20.5 c 128,-1,8
 275 -14 275 -14 206 -14 c 0,9,10
 170 -14 170 -14 145 2 c 128,-1,11
 120 18 120 18 109 43 c 0,12,13
 90 86 90 86 90 128 c 2,14,-1
 90 366 l 2,15,16
 90 412 90 412 32 412 c 1,17,-1
 32 440 l 1,18,19
 52 440 52 440 92.5 451 c 128,-1,20
 133 462 133 462 152 474 c 1,21,-1
 170 476 l 1,22,-1
 170 146 l 2,23,24
 170 101 170 101 191.5 77.5 c 128,-1,25
 213 54 213 54 252 54 c 0,26,27
 308 54 308 54 351 114 c 128,-1,28
 394 174 394 174 394 204 c 2,29,-1
 394 366 l 2,30,31
 394 412 394 412 336 412 c 1,32,-1
 336 440 l 1,33,34
 358 440 358 440 398.5 451 c 128,-1,35
 439 462 439 462 458 474 c 1,36,-1
 476 476 l 1,37,-1
 476 68 l 2,38,39
 476 54 476 54 478 47 c 0,40,41
 483 28 483 28 520 28 c 2,42,-1
 538 28 l 1,43,-1
 538 0 l 1,4,-1
EndSplineSet
EndChar

StartChar: uacute
Encoding: 250 250 188
Width: 572
GlyphClass: 2
Flags: W
LayerCount: 2
Fore
SplineSet
372 660 m 1,0,-1
 222 532 l 1,1,-1
 198 548 l 1,2,-1
 306 702 l 1,3,-1
 372 660 l 1,0,-1
538 0 m 1,4,-1
 394 0 l 1,5,-1
 394 118 l 1,6,7
 371 55 371 55 323 20.5 c 128,-1,8
 275 -14 275 -14 206 -14 c 0,9,10
 170 -14 170 -14 145 2 c 128,-1,11
 120 18 120 18 109 43 c 0,12,13
 90 86 90 86 90 128 c 2,14,-1
 90 366 l 2,15,16
 90 412 90 412 32 412 c 1,17,-1
 32 440 l 1,18,19
 52 440 52 440 92.5 451 c 128,-1,20
 133 462 133 462 152 474 c 1,21,-1
 170 476 l 1,22,-1
 170 146 l 2,23,24
 170 101 170 101 191.5 77.5 c 128,-1,25
 213 54 213 54 252 54 c 0,26,27
 308 54 308 54 351 114 c 128,-1,28
 394 174 394 174 394 204 c 2,29,-1
 394 366 l 2,30,31
 394 412 394 412 336 412 c 1,32,-1
 336 440 l 1,33,34
 358 440 358 440 398.5 451 c 128,-1,35
 439 462 439 462 458 474 c 1,36,-1
 476 476 l 1,37,-1
 476 68 l 2,38,39
 476 54 476 54 478 47 c 0,40,41
 483 28 483 28 520 28 c 2,42,-1
 538 28 l 1,43,-1
 538 0 l 1,4,-1
EndSplineSet
EndChar

StartChar: ucircumflex
Encoding: 251 251 189
Width: 572
GlyphClass: 2
Flags: W
LayerCount: 2
Fore
SplineSet
400 538 m 1,0,-1
 374 526 l 1,1,-1
 286 624 l 1,2,-1
 198 526 l 1,3,-1
 172 538 l 1,4,-1
 258 706 l 1,5,-1
 314 706 l 1,6,-1
 400 538 l 1,0,-1
538 0 m 1,7,-1
 394 0 l 1,8,-1
 394 118 l 1,9,10
 371 55 371 55 323 20.5 c 128,-1,11
 275 -14 275 -14 206 -14 c 0,12,13
 170 -14 170 -14 145 2 c 128,-1,14
 120 18 120 18 109 43 c 0,15,16
 90 86 90 86 90 128 c 2,17,-1
 90 366 l 2,18,19
 90 412 90 412 32 412 c 1,20,-1
 32 440 l 1,21,22
 52 440 52 440 92.5 451 c 128,-1,23
 133 462 133 462 152 474 c 1,24,-1
 170 476 l 1,25,-1
 170 146 l 2,26,27
 170 101 170 101 191.5 77.5 c 128,-1,28
 213 54 213 54 252 54 c 0,29,30
 308 54 308 54 351 114 c 128,-1,31
 394 174 394 174 394 204 c 2,32,-1
 394 366 l 2,33,34
 394 412 394 412 336 412 c 1,35,-1
 336 440 l 1,36,37
 358 440 358 440 398.5 451 c 128,-1,38
 439 462 439 462 458 474 c 1,39,-1
 476 476 l 1,40,-1
 476 68 l 2,41,42
 476 54 476 54 478 47 c 0,43,44
 483 28 483 28 520 28 c 2,45,-1
 538 28 l 1,46,-1
 538 0 l 1,7,-1
EndSplineSet
EndChar

StartChar: udieresis
Encoding: 252 252 190
Width: 572
GlyphClass: 2
Flags: W
LayerCount: 2
Fore
SplineSet
225.5 681 m 128,-1,1
 238 666 238 666 238 642.5 c 128,-1,2
 238 619 238 619 219 603.5 c 128,-1,3
 200 588 200 588 177.5 588 c 128,-1,4
 155 588 155 588 142.5 603 c 128,-1,5
 130 618 130 618 130 640.5 c 128,-1,6
 130 663 130 663 149 679.5 c 128,-1,7
 168 696 168 696 190.5 696 c 128,-1,0
 213 696 213 696 225.5 681 c 128,-1,1
428.5 681 m 128,-1,9
 442 666 442 666 442 642.5 c 128,-1,10
 442 619 442 619 423 603.5 c 128,-1,11
 404 588 404 588 381 588 c 128,-1,12
 358 588 358 588 346 603.5 c 128,-1,13
 334 619 334 619 334 641 c 128,-1,14
 334 663 334 663 352.5 679.5 c 128,-1,15
 371 696 371 696 393 696 c 128,-1,8
 415 696 415 696 428.5 681 c 128,-1,9
538 0 m 1,16,-1
 394 0 l 1,17,-1
 394 118 l 1,18,19
 371 55 371 55 323 20.5 c 128,-1,20
 275 -14 275 -14 206 -14 c 0,21,22
 170 -14 170 -14 145 2 c 128,-1,23
 120 18 120 18 109 43 c 0,24,25
 90 86 90 86 90 128 c 2,26,-1
 90 366 l 2,27,28
 90 412 90 412 32 412 c 1,29,-1
 32 440 l 1,30,31
 52 440 52 440 92.5 451 c 128,-1,32
 133 462 133 462 152 474 c 1,33,-1
 170 476 l 1,34,-1
 170 146 l 2,35,36
 170 101 170 101 191.5 77.5 c 128,-1,37
 213 54 213 54 252 54 c 0,38,39
 308 54 308 54 351 114 c 128,-1,40
 394 174 394 174 394 204 c 2,41,-1
 394 366 l 2,42,43
 394 412 394 412 336 412 c 1,44,-1
 336 440 l 1,45,46
 358 440 358 440 398.5 451 c 128,-1,47
 439 462 439 462 458 474 c 1,48,-1
 476 476 l 1,49,-1
 476 68 l 2,50,51
 476 54 476 54 478 47 c 0,52,53
 483 28 483 28 520 28 c 2,54,-1
 538 28 l 1,55,-1
 538 0 l 1,16,-1
EndSplineSet
EndChar

StartChar: yacute
Encoding: 253 253 191
Width: 500
GlyphClass: 2
Flags: W
LayerCount: 2
Fore
SplineSet
336 660 m 1,0,-1
 188 532 l 1,1,-1
 164 548 l 1,2,-1
 270 702 l 1,3,-1
 336 660 l 1,0,-1
-14 -232 m 1,4,-1
 2 -154 l 1,5,-1
 16 -154 l 1,6,7
 18 -165 18 -165 34 -178.5 c 128,-1,8
 50 -192 50 -192 68 -192 c 0,9,10
 130 -192 130 -192 156 -150 c 128,-1,11
 182 -108 182 -108 210 2 c 1,12,-1
 58 396 l 2,13,14
 49 417 49 417 39 426.5 c 128,-1,15
 29 436 29 436 8 436 c 2,16,-1
 -6 436 l 1,17,-1
 -6 466 l 1,18,-1
 190 466 l 1,19,-1
 190 436 l 1,20,-1
 184 436 l 2,21,22
 142 436 142 436 142 412 c 0,23,24
 142 407 142 407 152 380 c 2,25,-1
 254 108 l 1,26,-1
 366 390 l 1,27,28
 378 414 378 414 378 420 c 0,29,30
 378 429 378 429 366.5 432.5 c 128,-1,31
 355 436 355 436 320 436 c 2,32,-1
 312 436 l 1,33,-1
 312 466 l 1,34,-1
 498 466 l 1,35,-1
 498 436 l 1,36,-1
 488 436 l 2,37,38
 454 436 454 436 441 426 c 128,-1,39
 428 416 428 416 418 388 c 1,40,-1
 216 -118 l 2,41,42
 189 -184 189 -184 151.5 -216 c 128,-1,43
 114 -248 114 -248 50 -248 c 0,44,45
 26 -248 26 -248 -14 -232 c 1,4,-1
EndSplineSet
EndChar

StartChar: thorn
Encoding: 254 254 192
Width: 532
GlyphClass: 2
Flags: W
LayerCount: 2
Fore
SplineSet
232 -234 m 1,0,-1
 30 -234 l 1,1,-1
 30 -204 l 1,2,-1
 44 -204 l 2,3,4
 65 -204 65 -204 75 -197 c 128,-1,5
 85 -190 85 -190 86.5 -183 c 128,-1,6
 88 -176 88 -176 88 -160 c 2,7,-1
 88 662 l 2,8,9
 88 681 88 681 75.5 689.5 c 128,-1,10
 63 698 63 698 30 698 c 1,11,-1
 30 724 l 1,12,13
 51 724 51 724 92 736 c 128,-1,14
 133 748 133 748 152 760 c 1,15,-1
 170 762 l 1,16,-1
 170 348 l 1,17,18
 190 406 190 406 237 443 c 128,-1,19
 284 480 284 480 353.5 480 c 128,-1,20
 423 480 423 480 463.5 434.5 c 128,-1,21
 504 389 504 389 504 312 c 0,22,23
 504 171 504 171 430 78.5 c 128,-1,24
 356 -14 356 -14 248 -14 c 0,25,26
 217 -14 217 -14 170 4 c 1,27,-1
 170 -164 l 2,28,29
 170 -178 170 -178 171.5 -185 c 128,-1,30
 173 -192 173 -192 183 -198 c 128,-1,31
 193 -204 193 -204 214 -204 c 2,32,-1
 232 -204 l 1,33,-1
 232 -234 l 1,0,-1
170 268 m 2,34,-1
 170 90 l 1,35,36
 179 72 179 72 198 57 c 0,37,38
 234 30 234 30 266 30 c 0,39,40
 338 30 338 30 387 99.5 c 128,-1,41
 436 169 436 169 436 274 c 0,42,43
 436 334 436 334 400.5 373 c 128,-1,44
 365 412 365 412 310.5 412 c 128,-1,45
 256 412 256 412 213 351.5 c 128,-1,46
 170 291 170 291 170 268 c 2,34,-1
EndSplineSet
EndChar

StartChar: ydieresis
Encoding: 255 255 193
Width: 500
GlyphClass: 2
Flags: W
LayerCount: 2
Fore
SplineSet
189.5 681 m 128,-1,1
 202 666 202 666 202 642.5 c 128,-1,2
 202 619 202 619 183 603.5 c 128,-1,3
 164 588 164 588 141.5 588 c 128,-1,4
 119 588 119 588 106.5 603 c 128,-1,5
 94 618 94 618 94 640.5 c 128,-1,6
 94 663 94 663 113 679.5 c 128,-1,7
 132 696 132 696 154.5 696 c 128,-1,0
 177 696 177 696 189.5 681 c 128,-1,1
392.5 681 m 128,-1,9
 406 666 406 666 406 642.5 c 128,-1,10
 406 619 406 619 387 603.5 c 128,-1,11
 368 588 368 588 345 588 c 128,-1,12
 322 588 322 588 310 603.5 c 128,-1,13
 298 619 298 619 298 641 c 128,-1,14
 298 663 298 663 316.5 679.5 c 128,-1,15
 335 696 335 696 357 696 c 128,-1,8
 379 696 379 696 392.5 681 c 128,-1,9
-14 -232 m 1,16,-1
 2 -154 l 1,17,-1
 16 -154 l 1,18,19
 18 -165 18 -165 34 -178.5 c 128,-1,20
 50 -192 50 -192 68 -192 c 0,21,22
 130 -192 130 -192 156 -150 c 128,-1,23
 182 -108 182 -108 210 2 c 1,24,-1
 58 396 l 2,25,26
 49 417 49 417 39 426.5 c 128,-1,27
 29 436 29 436 8 436 c 2,28,-1
 -6 436 l 1,29,-1
 -6 466 l 1,30,-1
 190 466 l 1,31,-1
 190 436 l 1,32,-1
 184 436 l 2,33,34
 142 436 142 436 142 412 c 0,35,36
 142 407 142 407 152 380 c 2,37,-1
 254 108 l 1,38,-1
 366 390 l 1,39,40
 378 414 378 414 378 420 c 0,41,42
 378 429 378 429 366.5 432.5 c 128,-1,43
 355 436 355 436 320 436 c 2,44,-1
 312 436 l 1,45,-1
 312 466 l 1,46,-1
 498 466 l 1,47,-1
 498 436 l 1,48,-1
 488 436 l 2,49,50
 454 436 454 436 441 426 c 128,-1,51
 428 416 428 416 418 388 c 1,52,-1
 216 -118 l 2,53,54
 189 -184 189 -184 151.5 -216 c 128,-1,55
 114 -248 114 -248 50 -248 c 0,56,57
 26 -248 26 -248 -14 -232 c 1,16,-1
EndSplineSet
EndChar

StartChar: hbar
Encoding: 295 295 194
Width: 578
GlyphClass: 2
Flags: W
LayerCount: 2
Fore
SplineSet
546 0 m 1,0,-1
 372 0 l 1,1,-1
 372 28 l 1,2,-1
 378 28 l 2,3,4
 388 28 388 28 395 38.5 c 128,-1,5
 402 49 402 49 402 66 c 2,6,-1
 402 320 l 2,7,8
 402 412 402 412 322 412 c 0,9,10
 265 412 265 412 221.5 352 c 128,-1,11
 178 292 178 292 178 262 c 2,12,-1
 178 72 l 2,13,14
 178 57 178 57 180 49 c 0,15,16
 185 28 185 28 222 28 c 2,17,-1
 242 28 l 1,18,-1
 242 0 l 1,19,-1
 40 0 l 1,20,-1
 40 28 l 1,21,-1
 54 28 l 2,22,23
 81 28 81 28 89.5 37.5 c 128,-1,24
 98 47 98 47 98 66 c 2,25,-1
 98 452 l 1,26,-1
 2 356 l 1,27,-1
 2 410 l 1,28,-1
 98 504 l 1,29,-1
 98 660 l 2,30,31
 98 679 98 679 85 687.5 c 128,-1,32
 72 696 72 696 40 696 c 1,33,-1
 40 724 l 1,34,35
 61 724 61 724 102 735 c 128,-1,36
 143 746 143 746 160 758 c 1,37,-1
 178 762 l 1,38,-1
 178 586 l 1,39,-1
 282 688 l 1,40,-1
 282 640 l 1,41,-1
 178 534 l 1,42,-1
 178 348 l 1,43,44
 230 480 230 480 366 480 c 0,45,46
 402 480 402 480 427.5 464 c 128,-1,47
 453 448 453 448 464 423 c 0,48,49
 484 381 484 381 484 338 c 2,50,-1
 484 68 l 2,51,52
 484 54 484 54 486 47 c 0,53,54
 490 28 490 28 526 28 c 2,55,-1
 546 28 l 1,56,-1
 546 0 l 1,0,-1
EndSplineSet
EndChar

StartChar: Itilde
Encoding: 296 296 195
Width: 334
GlyphClass: 2
Flags: W
LayerCount: 2
Fore
SplineSet
310 846 m 1,0,-1
 324 830 l 1,1,2
 251 752 251 752 194 752 c 0,3,4
 176 752 176 752 144 784 c 128,-1,5
 112 816 112 816 88 816 c 128,-1,6
 64 816 64 816 24 772 c 1,7,-1
 10 786 l 1,8,9
 80 866 80 866 140 866 c 0,10,11
 158 866 158 866 191 833 c 128,-1,12
 224 800 224 800 246 800 c 128,-1,13
 268 800 268 800 310 846 c 1,0,-1
294 0 m 1,14,-1
 40 0 l 1,15,-1
 40 28 l 1,16,-1
 74 28 l 2,17,18
 104 28 104 28 113 40 c 128,-1,19
 122 52 122 52 122 74 c 2,20,-1
 122 626 l 2,21,22
 122 648 122 648 113 660 c 128,-1,23
 104 672 104 672 74 672 c 2,24,-1
 40 672 l 1,25,-1
 40 700 l 1,26,-1
 294 700 l 1,27,-1
 294 672 l 1,28,-1
 256 672 l 2,29,30
 226 672 226 672 217 660 c 128,-1,31
 208 648 208 648 208 626 c 2,32,-1
 208 74 l 2,33,34
 208 52 208 52 217 40 c 128,-1,35
 226 28 226 28 256 28 c 2,36,-1
 294 28 l 1,37,-1
 294 0 l 1,14,-1
EndSplineSet
EndChar

StartChar: itilde
Encoding: 297 297 196
Width: 282
GlyphClass: 2
Flags: W
LayerCount: 2
Fore
SplineSet
266 662 m 1,0,-1
 280 646 l 1,1,2
 212 568 212 568 150 568 c 0,3,4
 133 568 133 568 101 600 c 128,-1,5
 69 632 69 632 46.5 632 c 128,-1,6
 24 632 24 632 -20 588 c 1,7,-1
 -34 602 l 1,8,9
 41 682 41 682 96 682 c 0,10,11
 115 682 115 682 147.5 649 c 128,-1,12
 180 616 180 616 204 616 c 128,-1,13
 228 616 228 616 266 662 c 1,0,-1
246 0 m 1,14,-1
 44 0 l 1,15,-1
 44 28 l 1,16,-1
 60 28 l 2,17,18
 87 28 87 28 94.5 37 c 128,-1,19
 102 46 102 46 102 66 c 2,20,-1
 102 366 l 2,21,22
 102 385 102 385 89.5 393.5 c 128,-1,23
 77 402 77 402 44 402 c 1,24,-1
 44 430 l 1,25,26
 64 430 64 430 104.5 444.5 c 128,-1,27
 145 459 145 459 166 472 c 1,28,-1
 184 476 l 1,29,-1
 184 72 l 2,30,31
 184 56 184 56 185.5 49 c 128,-1,32
 187 42 187 42 197 35 c 128,-1,33
 207 28 207 28 228 28 c 2,34,-1
 246 28 l 1,35,-1
 246 0 l 1,14,-1
EndSplineSet
EndChar

StartChar: dotlessi
Encoding: 305 305 197
Width: 282
GlyphClass: 2
Flags: W
LayerCount: 2
Fore
SplineSet
246 0 m 1,0,-1
 44 0 l 1,1,-1
 44 28 l 1,2,-1
 60 28 l 2,3,4
 87 28 87 28 94.5 37 c 128,-1,5
 102 46 102 46 102 66 c 2,6,-1
 102 366 l 2,7,8
 102 385 102 385 89.5 393.5 c 128,-1,9
 77 402 77 402 44 402 c 1,10,-1
 44 430 l 1,11,12
 64 430 64 430 104.5 444.5 c 128,-1,13
 145 459 145 459 166 472 c 1,14,-1
 184 476 l 1,15,-1
 184 72 l 2,16,17
 184 56 184 56 185.5 49 c 128,-1,18
 187 42 187 42 197 35 c 128,-1,19
 207 28 207 28 228 28 c 2,20,-1
 246 28 l 1,21,-1
 246 0 l 1,0,-1
EndSplineSet
EndChar

StartChar: IJ
Encoding: 306 306 198
Width: 660
GlyphClass: 2
Flags: W
LayerCount: 2
Fore
SplineSet
362 -218 m 1,0,-1
 340 -180 l 1,1,2
 382 -152 382 -152 415 -111 c 128,-1,3
 448 -70 448 -70 448 -36 c 2,4,-1
 448 626 l 2,5,6
 448 641 448 641 446 649 c 128,-1,7
 444 657 444 657 433 663.5 c 128,-1,8
 422 670 422 670 400 670 c 2,9,-1
 366 670 l 1,10,-1
 366 700 l 1,11,-1
 622 700 l 1,12,-1
 622 670 l 1,13,-1
 584 670 l 2,14,15
 562 670 562 670 551 663.5 c 128,-1,16
 540 657 540 657 538 649 c 128,-1,17
 536 641 536 641 536 626 c 2,18,-1
 536 -6 l 2,19,20
 536 -109 536 -109 480 -154 c 0,21,22
 461 -169 461 -169 446 -176.5 c 128,-1,23
 431 -184 431 -184 404 -196.5 c 128,-1,24
 377 -209 377 -209 362 -218 c 1,0,-1
294 0 m 1,25,-1
 40 0 l 1,26,-1
 40 28 l 1,27,-1
 74 28 l 2,28,29
 104 28 104 28 113 40 c 128,-1,30
 122 52 122 52 122 74 c 2,31,-1
 122 626 l 2,32,33
 122 648 122 648 113 660 c 128,-1,34
 104 672 104 672 74 672 c 2,35,-1
 40 672 l 1,36,-1
 40 700 l 1,37,-1
 294 700 l 1,38,-1
 294 672 l 1,39,-1
 256 672 l 2,40,41
 226 672 226 672 217 660 c 128,-1,42
 208 648 208 648 208 626 c 2,43,-1
 208 74 l 2,44,45
 208 52 208 52 217 40 c 128,-1,46
 226 28 226 28 256 28 c 2,47,-1
 294 28 l 1,48,-1
 294 0 l 1,25,-1
EndSplineSet
EndChar

StartChar: ij
Encoding: 307 307 199
Width: 488
GlyphClass: 2
Flags: W
LayerCount: 2
Fore
SplineSet
177.5 681 m 128,-1,1
 190 666 190 666 190 642.5 c 128,-1,2
 190 619 190 619 171 603.5 c 128,-1,3
 152 588 152 588 129.5 588 c 128,-1,4
 107 588 107 588 94.5 603 c 128,-1,5
 82 618 82 618 82 640.5 c 128,-1,6
 82 663 82 663 101 679.5 c 128,-1,7
 120 696 120 696 142.5 696 c 128,-1,0
 165 696 165 696 177.5 681 c 128,-1,1
246 0 m 1,8,-1
 44 0 l 1,9,-1
 44 28 l 1,10,-1
 60 28 l 2,11,12
 87 28 87 28 94.5 37 c 128,-1,13
 102 46 102 46 102 66 c 2,14,-1
 102 366 l 2,15,16
 102 385 102 385 89.5 393.5 c 128,-1,17
 77 402 77 402 44 402 c 1,18,-1
 44 430 l 1,19,20
 64 430 64 430 104.5 444.5 c 128,-1,21
 145 459 145 459 166 472 c 1,22,-1
 184 476 l 1,23,-1
 184 72 l 2,24,25
 184 56 184 56 185.5 49 c 128,-1,26
 187 42 187 42 197 35 c 128,-1,27
 207 28 207 28 228 28 c 2,28,-1
 246 28 l 1,29,-1
 246 0 l 1,8,-1
423.5 681 m 128,-1,31
 436 666 436 666 436 642.5 c 128,-1,32
 436 619 436 619 417 603.5 c 128,-1,33
 398 588 398 588 375.5 588 c 128,-1,34
 353 588 353 588 340.5 603 c 128,-1,35
 328 618 328 618 328 640.5 c 128,-1,36
 328 663 328 663 347 679.5 c 128,-1,37
 366 696 366 696 388.5 696 c 128,-1,30
 411 696 411 696 423.5 681 c 128,-1,31
280 -240 m 1,38,-1
 264 -214 l 1,39,40
 308 -187 308 -187 331 -152 c 128,-1,41
 354 -117 354 -117 354 -60 c 2,42,-1
 354 366 l 2,43,44
 354 385 354 385 341.5 393.5 c 128,-1,45
 329 402 329 402 296 402 c 1,46,-1
 296 430 l 1,47,48
 316 430 316 430 356.5 444.5 c 128,-1,49
 397 459 397 459 418 472 c 1,50,-1
 436 476 l 1,51,-1
 436 -22 l 2,52,53
 436 -100 436 -100 392.5 -158.5 c 128,-1,54
 349 -217 349 -217 280 -240 c 1,38,-1
EndSplineSet
EndChar

StartChar: Jcircumflex
Encoding: 308 308 200
Width: 324
GlyphClass: 2
Flags: W
LayerCount: 2
Fore
SplineSet
276 772 m 1,0,-1
 250 760 l 1,1,-1
 162 858 l 1,2,-1
 74 760 l 1,3,-1
 48 772 l 1,4,-1
 134 940 l 1,5,-1
 190 940 l 1,6,-1
 276 772 l 1,0,-1
26 -218 m 1,7,-1
 4 -180 l 1,8,9
 46 -152 46 -152 79 -111 c 128,-1,10
 112 -70 112 -70 112 -36 c 2,11,-1
 112 626 l 2,12,13
 112 641 112 641 110 649 c 128,-1,14
 108 657 108 657 97 663.5 c 128,-1,15
 86 670 86 670 64 670 c 2,16,-1
 32 670 l 1,17,-1
 32 700 l 1,18,-1
 286 700 l 1,19,-1
 286 670 l 1,20,-1
 248 670 l 2,21,22
 226 670 226 670 215 663.5 c 128,-1,23
 204 657 204 657 202 649 c 128,-1,24
 200 641 200 641 200 626 c 2,25,-1
 200 -6 l 2,26,27
 200 -109 200 -109 144 -154 c 0,28,29
 125 -169 125 -169 110 -176.5 c 128,-1,30
 95 -184 95 -184 68 -196.5 c 128,-1,31
 41 -209 41 -209 26 -218 c 1,7,-1
EndSplineSet
EndChar

StartChar: jcircumflex
Encoding: 309 309 201
Width: 206
GlyphClass: 2
Flags: W
LayerCount: 2
Fore
SplineSet
-2 -240 m 1,0,-1
 -18 -214 l 1,1,2
 26 -187 26 -187 49 -152 c 128,-1,3
 72 -117 72 -117 72 -60 c 2,4,-1
 72 366 l 2,5,6
 72 385 72 385 59.5 393.5 c 128,-1,7
 47 402 47 402 14 402 c 1,8,-1
 14 430 l 1,9,10
 34 430 34 430 74.5 444.5 c 128,-1,11
 115 459 115 459 136 472 c 1,12,-1
 154 476 l 1,13,-1
 154 -22 l 2,14,15
 154 -100 154 -100 110.5 -158.5 c 128,-1,16
 67 -217 67 -217 -2 -240 c 1,0,-1
216 538 m 1,17,-1
 190 526 l 1,18,-1
 102 624 l 1,19,-1
 16 526 l 1,20,-1
 -10 538 l 1,21,-1
 74 706 l 1,22,-1
 132 706 l 1,23,-1
 216 538 l 1,17,-1
EndSplineSet
EndChar

StartChar: kcommaaccent
Encoding: 311 311 202
Width: 530
GlyphClass: 2
Flags: W
LayerCount: 2
Fore
SplineSet
558 0 m 1,0,-1
 434 0 l 1,1,-1
 218 266 l 1,2,-1
 178 232 l 1,3,-1
 178 72 l 2,4,5
 178 56 178 56 179.5 49 c 128,-1,6
 181 42 181 42 191.5 35 c 128,-1,7
 202 28 202 28 224 28 c 2,8,-1
 242 28 l 1,9,-1
 242 0 l 1,10,-1
 40 0 l 1,11,-1
 40 28 l 1,12,-1
 52 28 l 2,13,14
 74 28 74 28 84.5 35 c 128,-1,15
 95 42 95 42 96.5 49 c 128,-1,16
 98 56 98 56 98 72 c 2,17,-1
 98 660 l 2,18,19
 98 679 98 679 84.5 687.5 c 128,-1,20
 71 696 71 696 38 696 c 1,21,-1
 38 724 l 1,22,23
 60 724 60 724 101.5 735 c 128,-1,24
 143 746 143 746 162 758 c 1,25,-1
 178 762 l 1,26,-1
 178 290 l 1,27,-1
 328 410 l 2,28,29
 344 423 344 423 344 428 c 0,30,31
 344 436 344 436 320 436 c 2,32,-1
 312 436 l 1,33,-1
 312 466 l 1,34,-1
 480 466 l 1,35,-1
 480 436 l 1,36,-1
 470 436 l 2,37,38
 432 436 432 436 408 416 c 2,39,-1
 284 314 l 1,40,-1
 480 72 l 1,41,42
 513 28 513 28 536 28 c 2,43,-1
 558 28 l 1,44,-1
 558 0 l 1,0,-1
232 -218 m 1,45,-1
 220 -202 l 1,46,47
 261 -169 261 -169 272 -116 c 1,48,49
 255 -116 255 -116 246.5 -105.5 c 128,-1,50
 238 -95 238 -95 238 -76 c 128,-1,51
 238 -57 238 -57 253.5 -43.5 c 128,-1,52
 269 -30 269 -30 288 -30 c 0,53,54
 322 -30 322 -30 322 -66 c 0,55,56
 322 -153 322 -153 232 -218 c 1,45,-1
EndSplineSet
EndChar

StartChar: kgreenlandic
Encoding: 312 312 203
Width: 530
GlyphClass: 2
Flags: W
LayerCount: 2
Fore
SplineSet
558 0 m 1,0,-1
 434 0 l 1,1,-1
 218 266 l 1,2,-1
 178 232 l 1,3,-1
 178 72 l 2,4,5
 178 56 178 56 179.5 49 c 128,-1,6
 181 42 181 42 191.5 35 c 128,-1,7
 202 28 202 28 224 28 c 2,8,-1
 242 28 l 1,9,-1
 242 0 l 1,10,-1
 40 0 l 1,11,-1
 40 28 l 1,12,-1
 52 28 l 2,13,14
 74 28 74 28 84.5 35 c 128,-1,15
 95 42 95 42 96.5 49 c 128,-1,16
 98 56 98 56 98 72 c 2,17,-1
 98 384 l 2,18,19
 98 403 98 403 84.5 411.5 c 128,-1,20
 71 420 71 420 38 420 c 1,21,-1
 38 446 l 1,22,23
 59 446 59 446 101 458 c 128,-1,24
 143 470 143 470 162 482 c 1,25,-1
 178 484 l 1,26,-1
 178 290 l 1,27,-1
 328 410 l 2,28,29
 344 423 344 423 344 428 c 0,30,31
 344 436 344 436 320 436 c 2,32,-1
 312 436 l 1,33,-1
 312 466 l 1,34,-1
 480 466 l 1,35,-1
 480 436 l 1,36,-1
 470 436 l 2,37,38
 432 436 432 436 408 416 c 2,39,-1
 284 314 l 1,40,-1
 480 72 l 1,41,42
 513 28 513 28 536 28 c 2,43,-1
 558 28 l 1,44,-1
 558 0 l 1,0,-1
EndSplineSet
EndChar

StartChar: Ldotaccent
Encoding: 319 319 204
Width: 624
GlyphClass: 2
Flags: W
LayerCount: 2
Fore
SplineSet
576 0 m 1,0,-1
 40 0 l 1,1,-1
 40 30 l 1,2,-1
 74 30 l 2,3,4
 104 30 104 30 113 41 c 128,-1,5
 122 52 122 52 122 74 c 2,6,-1
 122 626 l 2,7,8
 122 648 122 648 113 659 c 128,-1,9
 104 670 104 670 74 670 c 2,10,-1
 40 670 l 1,11,-1
 40 700 l 1,12,-1
 294 700 l 1,13,-1
 294 670 l 1,14,-1
 256 670 l 2,15,16
 226 670 226 670 217 659 c 128,-1,17
 208 648 208 648 208 626 c 2,18,-1
 208 88 l 2,19,20
 208 66 208 66 217 54 c 128,-1,21
 226 42 226 42 256 42 c 2,22,-1
 446 42 l 2,23,24
 499 42 499 42 539.5 76.5 c 128,-1,25
 580 111 580 111 580 144 c 1,26,-1
 610 138 l 1,27,-1
 576 0 l 1,0,-1
399 373.5 m 128,-1,29
 380 358 380 358 357 358 c 128,-1,30
 334 358 334 358 322 373.5 c 128,-1,31
 310 389 310 389 310 411 c 128,-1,32
 310 433 310 433 328.5 449.5 c 128,-1,33
 347 466 347 466 369 466 c 128,-1,34
 391 466 391 466 404.5 451 c 128,-1,35
 418 436 418 436 418 412.5 c 128,-1,28
 418 389 418 389 399 373.5 c 128,-1,29
EndSplineSet
EndChar

StartChar: ldot
Encoding: 320 320 205
Width: 448
GlyphClass: 2
Flags: W
LayerCount: 2
Fore
SplineSet
345 373.5 m 128,-1,1
 326 358 326 358 303.5 358 c 128,-1,2
 281 358 281 358 268.5 373 c 128,-1,3
 256 388 256 388 256 410.5 c 128,-1,4
 256 433 256 433 275 449.5 c 128,-1,5
 294 466 294 466 316.5 466 c 128,-1,6
 339 466 339 466 351.5 451 c 128,-1,7
 364 436 364 436 364 412.5 c 128,-1,0
 364 389 364 389 345 373.5 c 128,-1,1
238 0 m 1,8,-1
 38 0 l 1,9,-1
 38 28 l 1,10,-1
 52 28 l 2,11,12
 74 28 74 28 84 37.5 c 128,-1,13
 94 47 94 47 94 70 c 2,14,-1
 94 660 l 2,15,16
 94 679 94 679 81 687.5 c 128,-1,17
 68 696 68 696 36 696 c 1,18,-1
 36 724 l 1,19,20
 56 724 56 724 97.5 735 c 128,-1,21
 139 746 139 746 158 758 c 1,22,-1
 176 762 l 1,23,-1
 176 72 l 2,24,25
 176 56 176 56 177.5 49 c 128,-1,26
 179 42 179 42 189 35 c 128,-1,27
 199 28 199 28 220 28 c 2,28,-1
 238 28 l 1,29,-1
 238 0 l 1,8,-1
EndSplineSet
EndChar

StartChar: Lslash
Encoding: 321 321 206
Width: 624
GlyphClass: 2
Flags: W
LayerCount: 2
Fore
SplineSet
576 0 m 1,0,-1
 40 0 l 1,1,-1
 40 30 l 1,2,-1
 74 30 l 2,3,4
 104 30 104 30 113 41 c 128,-1,5
 122 52 122 52 122 74 c 2,6,-1
 122 270 l 1,7,-1
 48 196 l 1,8,-1
 48 248 l 1,9,-1
 122 322 l 1,10,-1
 122 626 l 2,11,12
 122 648 122 648 113 659 c 128,-1,13
 104 670 104 670 74 670 c 2,14,-1
 40 670 l 1,15,-1
 40 700 l 1,16,-1
 294 700 l 1,17,-1
 294 670 l 1,18,-1
 256 670 l 2,19,20
 226 670 226 670 217 659 c 128,-1,21
 208 648 208 648 208 626 c 2,22,-1
 208 408 l 1,23,-1
 328 528 l 1,24,-1
 328 478 l 1,25,-1
 208 358 l 1,26,-1
 208 88 l 2,27,28
 208 66 208 66 217 54 c 128,-1,29
 226 42 226 42 256 42 c 2,30,-1
 446 42 l 2,31,32
 499 42 499 42 539.5 76.5 c 128,-1,33
 580 111 580 111 580 144 c 1,34,-1
 610 138 l 1,35,-1
 576 0 l 1,0,-1
EndSplineSet
EndChar

StartChar: lslash
Encoding: 322 322 207
Width: 278
GlyphClass: 2
Flags: W
LayerCount: 2
Fore
SplineSet
238 0 m 1,0,-1
 38 0 l 1,1,-1
 38 28 l 1,2,-1
 52 28 l 2,3,4
 74 28 74 28 84 37.5 c 128,-1,5
 94 47 94 47 94 70 c 2,6,-1
 94 374 l 1,7,-1
 0 278 l 1,8,-1
 0 330 l 1,9,-1
 94 424 l 1,10,-1
 94 660 l 2,11,12
 94 679 94 679 81 687.5 c 128,-1,13
 68 696 68 696 36 696 c 1,14,-1
 36 724 l 1,15,16
 56 724 56 724 97.5 735 c 128,-1,17
 139 746 139 746 158 758 c 1,18,-1
 176 762 l 1,19,-1
 176 506 l 1,20,-1
 280 610 l 1,21,-1
 280 560 l 1,22,-1
 176 456 l 1,23,-1
 176 72 l 2,24,25
 176 56 176 56 177.5 49 c 128,-1,26
 179 42 179 42 189 35 c 128,-1,27
 199 28 199 28 220 28 c 2,28,-1
 238 28 l 1,29,-1
 238 0 l 1,0,-1
EndSplineSet
EndChar

StartChar: Nacute
Encoding: 323 323 208
Width: 798
GlyphClass: 2
Flags: W
LayerCount: 2
Fore
SplineSet
622 -16 m 1,0,-1
 180 576 l 1,1,-1
 180 74 l 2,2,3
 180 30 180 30 242 30 c 2,4,-1
 280 30 l 1,5,-1
 280 0 l 1,6,-1
 40 0 l 1,7,-1
 40 30 l 1,8,-1
 72 30 l 2,9,10
 134 30 134 30 134 74 c 2,11,-1
 134 626 l 2,12,13
 134 670 134 670 72 670 c 2,14,-1
 40 670 l 1,15,-1
 40 700 l 1,16,-1
 198 700 l 1,17,-1
 610 146 l 1,18,-1
 610 626 l 2,19,20
 610 670 610 670 550 670 c 2,21,-1
 516 670 l 1,22,-1
 516 700 l 1,23,-1
 756 700 l 1,24,-1
 756 670 l 1,25,-1
 718 670 l 2,26,27
 656 670 656 670 656 626 c 2,28,-1
 656 4 l 1,29,30
 645 4 645 4 632.5 -5.5 c 128,-1,31
 620 -15 620 -15 622 -16 c 1,0,-1
515 842 m 1,32,-1
 336 760 l 1,33,-1
 317 782 l 1,34,-1
 463 900 l 1,35,-1
 515 842 l 1,32,-1
EndSplineSet
EndChar

StartChar: nacute
Encoding: 324 324 209
Width: 586
GlyphClass: 2
Flags: W
LayerCount: 2
Fore
SplineSet
378 660 m 1,0,-1
 230 532 l 1,1,-1
 206 548 l 1,2,-1
 312 702 l 1,3,-1
 378 660 l 1,0,-1
550 0 m 1,4,-1
 378 0 l 1,5,-1
 378 28 l 1,6,-1
 382 28 l 2,7,8
 393 28 393 28 400.5 39 c 128,-1,9
 408 50 408 50 408 66 c 2,10,-1
 408 320 l 2,11,12
 408 365 408 365 386.5 388.5 c 128,-1,13
 365 412 365 412 326 412 c 0,14,15
 270 412 270 412 227 352 c 128,-1,16
 184 292 184 292 184 262 c 2,17,-1
 184 72 l 2,18,19
 184 56 184 56 185.5 49 c 128,-1,20
 187 42 187 42 197 35 c 128,-1,21
 207 28 207 28 228 28 c 2,22,-1
 246 28 l 1,23,-1
 246 0 l 1,24,-1
 44 0 l 1,25,-1
 44 28 l 1,26,-1
 60 28 l 2,27,28
 87 28 87 28 94.5 37 c 128,-1,29
 102 46 102 46 102 66 c 2,30,-1
 102 366 l 2,31,32
 102 385 102 385 89.5 393.5 c 128,-1,33
 77 402 77 402 44 402 c 1,34,-1
 44 430 l 1,35,36
 64 430 64 430 104.5 444.5 c 128,-1,37
 145 459 145 459 166 472 c 1,38,-1
 184 476 l 1,39,-1
 184 348 l 1,40,41
 207 411 207 411 255 445.5 c 128,-1,42
 303 480 303 480 372 480 c 0,43,44
 408 480 408 480 433 464 c 128,-1,45
 458 448 458 448 469 423 c 0,46,47
 488 380 488 380 488 338 c 2,48,-1
 488 68 l 2,49,50
 488 54 488 54 490 47 c 0,51,52
 495 28 495 28 532 28 c 2,53,-1
 550 28 l 1,54,-1
 550 0 l 1,4,-1
EndSplineSet
EndChar

